<svg xmlns="http://www.w3.org/2000/svg" width="84" height="63" fill="none"><path fill="url(#a)" d="M23.835 3.127C21.498 13.394 13.394 21.499 3.127 23.835 1.313 24.247 0 25.817 0 27.677v7.644c0 2.442 2.21 4.3 4.614 3.868a42.579 42.579 0 0 0 16.858-7.004 43.06 43.06 0 0 0 10.712-10.713 42.552 42.552 0 0 0 7.44-19.923A1.396 1.396 0 0 0 38.242 0H27.677c-1.86 0-3.43 1.313-3.842 3.127Z"/><path fill="url(#b)" d="M43.748 61.456A1.392 1.392 0 0 0 45.127 63h10.567c1.86 0 3.431-1.314 3.843-3.129C61.868 49.599 69.973 41.5 80.246 39.165c1.814-.412 3.127-1.983 3.127-3.843V27.68c0-2.442-2.209-4.3-4.613-3.869a42.465 42.465 0 0 0-16.859 7.006A43.03 43.03 0 0 0 51.19 41.52a42.61 42.61 0 0 0-7.44 19.935Z"/><path fill="url(#c)" d="M55.696 0H45.132c-.83 0-1.47.723-1.383 1.549a42.551 42.551 0 0 0 7.44 19.923A43.062 43.062 0 0 0 61.9 32.185a42.58 42.58 0 0 0 16.858 7.004c2.405.431 4.614-1.426 4.614-3.868v-7.643c0-1.86-1.313-3.43-3.127-3.843C69.98 21.499 61.876 13.395 59.54 3.127 59.126 1.313 57.556 0 55.696 0Z"/><path fill="url(#d)" d="M32.185 41.52a43.03 43.03 0 0 0-10.713-10.704A42.466 42.466 0 0 0 4.613 23.81C2.21 23.38 0 25.237 0 27.68v7.642c0 1.86 1.314 3.43 3.128 3.843C13.4 41.5 21.505 49.6 23.837 59.871c.411 1.815 1.982 3.13 3.843 3.13h10.567c.827 0 1.465-.722 1.378-1.545a42.613 42.613 0 0 0-7.44-19.935Z"/><defs><linearGradient id="a" x1="6.691" x2="30.99" y1=".466" y2="37.014" gradientUnits="userSpaceOnUse"><stop stop-color="#fff"/><stop offset="1" stop-color="#fff" stop-opacity=".5"/></linearGradient><linearGradient id="b" x1="50.431" x2="74.731" y1="24.214" y2="60.762" gradientUnits="userSpaceOnUse"><stop stop-color="#fff"/><stop offset="1" stop-color="#fff" stop-opacity=".5"/></linearGradient><linearGradient id="c" x1="50.432" x2="74.731" y1=".466" y2="37.014" gradientUnits="userSpaceOnUse"><stop stop-color="#fff"/><stop offset="1" stop-color="#fff" stop-opacity=".5"/></linearGradient><linearGradient id="d" x1="6.691" x2="30.991" y1="24.214" y2="60.762" gradientUnits="userSpaceOnUse"><stop stop-color="#fff"/><stop offset="1" stop-color="#fff" stop-opacity=".5"/></linearGradient></defs></svg>