<svg xmlns="http://www.w3.org/2000/svg" width="280" height="70" fill="none"><rect width="279.067" height="68.817" x=".467" y=".467" fill="#fff" stroke="#DDE5ED" stroke-width=".933" rx="8.867"/><rect width="46.667" height="46.667" x="9.746" y="11.332" fill="url(#a)" rx="9.333"/><path fill="#5C5C5C" d="M33.08 46.798c6.413 0 11.612-5.432 11.612-12.133 0-6.701-5.2-12.134-11.612-12.134-6.413 0-11.612 5.433-11.612 12.134 0 6.7 5.199 12.133 11.612 12.133Z"/><path fill="#B5B5B5" d="M33.08 45.518c6.347 0 11.493-5.146 11.493-11.493 0-6.348-5.146-11.494-11.494-11.494-6.347 0-11.493 5.146-11.493 11.494 0 6.347 5.146 11.493 11.493 11.493Z"/><path fill="#fff" d="M37.667 23.483 22.54 38.607a11.372 11.372 0 0 1-.92-3.744l12.3-12.304c1.322.1 2.582.417 3.748.924Zm5.427 4.901L27.439 44.04a11.472 11.472 0 0 1-2.63-2.038L41.06 25.754a11.482 11.482 0 0 1 2.033 2.63Zm-2.502-3.063-16.21 16.21a12.229 12.229 0 0 1-.715-.92l16.006-16.005c.317.222.625.464.919.715Zm3.62 5.838-14 14a12.132 12.132 0 0 1-1.237-.393l14.844-14.844c.152.403.284.815.393 1.237Z" opacity=".5"/><path fill="#fff" d="M44.573 34.025c0 .08 0 .156-.005.237-.123-6.238-5.218-11.257-11.489-11.257-6.27 0-11.365 5.02-11.488 11.257 0-.08-.005-.157-.005-.237 0-6.347 5.147-11.494 11.493-11.494 6.347 0 11.494 5.147 11.494 11.494Z" opacity=".5"/><path fill="#fff" d="M42.416 34.524a9.007 9.007 0 0 1-9.005 9.005 9.002 9.002 0 0 1-6.943-3.27A9.007 9.007 0 0 0 40.023 28.41a8.985 8.985 0 0 1 2.394 6.114Z" opacity=".5"/><path fill="#777" d="M33.08 43.147a9.005 9.005 0 1 0 0-18.01 9.005 9.005 0 0 0 0 18.01Z"/><path fill="#5C5C5C" d="M39.904 28.265a9.007 9.007 0 0 0-12.702 12.702 9.007 9.007 0 1 1 12.702-12.702Z"/><path fill="#464646" d="m37.7 35.742-.08.047c-.208-.796-.805-1.208-1.63-1.407.635-.323 1.047-.877 1.024-1.768v-.66l-.095.03c-.313-1.081-1.422-1.47-2.787-1.589v-1.938h-1.18v1.886c-.308 0-.626.005-.943.015v-1.901h-1.18v1.938c-.256.005-.508.01-.754.01V30.4h-1.626v1.261s.872-.019.858 0c.479 0 .635.28.678.517v2.204c.033 0 .076 0 .123.009h-.123v3.095c-.02.152-.11.389-.446.389.014.014-.858 0-.858 0l-.109.658-.123.038v.711h1.536c.284 0 .569.005.843.005v1.967h1.18v-1.939c.323.005.636.01.944.01v1.929h1.18v-1.957c1.986-.114 3.375-.617 3.545-2.475.01-.104.014-.203.02-.303v-.777h.004Zm-5.653-4c.668 0 2.758-.214 2.758 1.18 0 1.332-2.09 1.175-2.758 1.18v-2.36Zm0 6.147V35.29c.8 0 3.308-.232 3.308 1.3 0 1.464-2.512 1.293-3.308 1.298Z"/><path fill="#B5B5B5" d="M37.005 31.685c-.133-1.398-1.342-1.868-2.863-2v-1.939h-1.18v1.886c-.309 0-.626.005-.944.015v-1.9h-1.18v1.938c-.256.004-.507.01-.753.01v-.006h-1.626v1.261s.872-.019.858 0c.479 0 .635.28.678.517v2.204c.033 0 .075 0 .123.01h-.123v3.094c-.02.152-.11.389-.446.389.014.014-.858 0-.858 0l-.232 1.407h1.536c.284 0 .568.005.843.005v1.967h1.18v-1.938c.323.004.636.009.944.009v1.929h1.18v-1.957c1.986-.114 3.374-.617 3.545-2.474.137-1.498-.569-2.171-1.692-2.441.682-.351 1.109-.963 1.01-1.986Zm-1.65 4.19c0 1.464-2.507 1.298-3.308 1.298v-2.597c.796 0 3.308-.228 3.308 1.298Zm-.55-3.664c0 1.332-2.09 1.175-2.758 1.18v-2.356c.663 0 2.758-.213 2.758 1.176Z"/><path fill="#fff" d="M30.838 27.746h1.18v1.384l-2.104 2.104c-.09-.16-.27-.289-.597-.289.014-.014-.858 0-.858 0V29.69h1.626v.005c.246 0 .497-.005.753-.01v-1.938Zm2.564 0-.446.446v-.446h.446Zm1.171 9.161-1.702 1.702c-.28 0-.559-.005-.853-.01v.863l-1.08 1.08h-.1V38.58c-.275 0-.559-.005-.843-.005h-1.536l.043-.26 1.156-1.157a.4.4 0 0 0 .327-.327l2.062-2.062v2.408c.507 0 1.72.067 2.526-.27Zm.744-.746c.024-.09.038-.184.038-.289 0-1.422-2.166-1.322-3.114-1.303l1.242-1.242c.683-.104 1.322-.388 1.322-1.123 0-.066-.004-.128-.014-.185l1.597-1.597c.342.299.564.706.617 1.256.099 1.024-.328 1.635-1.015 1.986.493.118.905.313 1.2.62l-1.873 1.877Zm-6.626 1.007h.057l-.066.066.01-.066Zm3.356-3.778c.118 0 .284.006.478.006L30 35.922v-1.635l2.052-2.053-.005 1.157Zm3.791-3.314-1.37 1.37c-.303-.26-.772-.365-1.232-.403l1.313-1.313c.484.067.92.171 1.29.346ZM33.193 40.54l.944-.942v.943h-.944Zm4.494-4.493c0 .019-.005.043-.005.062-.137 1.478-1.043 2.1-2.408 2.35l2.413-2.412Z" opacity=".5"/><path fill="#fff" d="M40.592 29.171a21.527 21.527 0 0 0-12.806 12.257 8.976 8.976 0 0 1-.583-.464 8.963 8.963 0 0 1-2.18-5.873 9.007 9.007 0 0 1 9.005-9.005c2.246 0 4.299.82 5.872 2.18.251.29.479.593.692.905Z" opacity=".25"/><path fill="#4D585F" d="M67.566 26.668v-9.506h3.522c1.016 0 1.822.265 2.418.797.595.532.893 1.253.893 2.163 0 .608-.138 1.136-.415 1.582a2.751 2.751 0 0 1-1.167 1.027c-.502.239-1.093.358-1.774.358h-2.06v3.579h-1.417Zm1.416-4.804h2.036c.612 0 1.095-.156 1.448-.466.357-.315.536-.74.536-1.276s-.179-.957-.536-1.263c-.353-.31-.836-.466-1.448-.466h-2.036v3.47Zm9.08 4.957c-.643 0-1.206-.149-1.691-.447a3.073 3.073 0 0 1-1.136-1.237c-.268-.528-.402-1.136-.402-1.825 0-.698.134-1.31.402-1.838a3.06 3.06 0 0 1 1.136-1.244c.485-.302 1.048-.453 1.69-.453.643 0 1.204.151 1.685.453a3.02 3.02 0 0 1 1.13 1.244c.271.528.407 1.14.407 1.838 0 .689-.136 1.297-.408 1.825a3.03 3.03 0 0 1-1.13 1.238c-.48.297-1.041.446-1.684.446Zm0-1.161c.578 0 1.033-.213 1.365-.638.331-.425.497-.995.497-1.71 0-.723-.168-1.3-.504-1.73-.331-.429-.784-.643-1.359-.643-.574 0-1.029.214-1.365.644-.332.425-.498 1.002-.498 1.729 0 .719.166 1.29.498 1.716.332.421.787.632 1.365.632Zm7.662-5.73v1.11h-1.365v3.848c0 .25.05.425.153.523.102.098.287.147.555.147h.657v1.11h-.849c-1.246 0-1.869-.536-1.869-1.608v-4.02H81.82v-1.11h1.187v-1.837h1.353v1.837h1.365Zm3.828 6.891c-.668 0-1.242-.15-1.723-.453a3.015 3.015 0 0 1-1.103-1.244c-.255-.532-.383-1.136-.383-1.812 0-.685.134-1.293.402-1.825a3.11 3.11 0 0 1 1.11-1.25c.472-.306 1.014-.46 1.627-.46.638 0 1.19.15 1.659.447.472.298.838.712 1.097 1.244.26.527.39 1.138.39 1.831v.364H87.67c.025.608.2 1.1.523 1.474.328.374.787.561 1.378.561.443 0 .806-.1 1.091-.3.285-.2.475-.46.568-.778h1.295c-.08.434-.261.817-.542 1.148a2.84 2.84 0 0 1-1.046.779 3.41 3.41 0 0 1-1.385.274Zm-1.87-4.179h3.631c-.055-.536-.245-.96-.568-1.27-.323-.314-.74-.472-1.25-.472s-.928.158-1.25.472c-.32.31-.507.734-.562 1.27Zm7.46.147v3.879h-1.347V19.93h1.32v1.015c.46-.766 1.139-1.148 2.036-1.148.464 0 .878.102 1.244.306.37.2.662.497.874.893.213.396.32.887.32 1.474v4.198h-1.347v-4.032c0-.54-.13-.947-.39-1.219-.259-.276-.62-.415-1.084-.415-.46 0-.846.143-1.161.428-.31.28-.466.733-.466 1.359Zm9.212-2.859v1.11h-1.365v3.848c0 .25.051.425.153.523.102.098.287.147.555.147h.657v1.11h-.848c-1.247 0-1.87-.536-1.87-1.608v-4.02h-1.186v-1.11h1.186v-1.837h1.353v1.837h1.365Zm1.066 6.738V19.93h1.346v6.738h-1.346Zm.67-7.899a.845.845 0 0 1-.606-.236.799.799 0 0 1-.243-.587c0-.234.081-.43.243-.587a.833.833 0 0 1 .606-.242c.238 0 .44.08.606.242a.776.776 0 0 1 .249.587c0 .23-.083.426-.249.587a.848.848 0 0 1-.606.236Zm4.255 8.007c-.672 0-1.229-.17-1.671-.51-.443-.344-.664-.853-.664-1.525 0-.51.126-.902.377-1.174a2.13 2.13 0 0 1 .988-.593c.409-.12.841-.207 1.296-.262.421-.05.755-.093 1.001-.127.247-.034.421-.085.524-.154.106-.068.159-.184.159-.35v-.058a1.02 1.02 0 0 0-.357-.804c-.238-.212-.572-.319-1.002-.319-.43 0-.78.105-1.053.313-.272.204-.421.461-.446.772h-1.321c.03-.642.3-1.168.81-1.576.511-.408 1.187-.612 2.029-.612.83 0 1.483.204 1.959.612.476.408.714.955.714 1.64v4.619h-1.327v-.957h-.025c-.14.272-.364.519-.67.74-.302.217-.742.325-1.321.325Zm.275-1.084c.595 0 1.033-.153 1.314-.46.285-.31.427-.672.427-1.084v-.791c-.089.072-.291.138-.606.197-.314.056-.651.109-1.008.16-.37.055-.695.16-.976.313s-.421.4-.421.74a.8.8 0 0 0 .338.682c.23.162.54.243.932.243Zm5.933-8.53v9.506h-1.346v-9.506h1.346Zm8.058 9.64a2.56 2.56 0 0 1-1.205-.287 2.203 2.203 0 0 1-.881-.874h-.013v1.027h-1.32v-9.506h1.346v3.745h.013c.217-.375.506-.653.867-.836a2.623 2.623 0 0 1 1.2-.274c.578 0 1.087.148 1.525.446.438.294.778.704 1.02 1.232.247.523.371 1.13.371 1.824 0 .694-.122 1.304-.364 1.831a2.954 2.954 0 0 1-1.021 1.232c-.438.293-.951.44-1.538.44Zm-.274-1.161c.544 0 .985-.2 1.321-.6.34-.4.51-.98.51-1.742 0-.761-.17-1.342-.51-1.742-.336-.404-.777-.606-1.321-.606-.574 0-1.034.215-1.378.645-.34.425-.51.993-.51 1.703 0 .706.17 1.274.51 1.704.344.425.804.638 1.378.638Zm4.383 1.027V19.93h1.289v1.091h.026c.123-.37.316-.657.58-.86.268-.21.617-.314 1.047-.314.102 0 .195.005.28.013l.211.02v1.256a2.214 2.214 0 0 0-.275-.038 3.387 3.387 0 0 0-.433-.025c-.379 0-.704.131-.977.395-.268.264-.402.67-.402 1.219v3.981h-1.346Zm7.216.153c-.668 0-1.242-.15-1.722-.453a3.008 3.008 0 0 1-1.104-1.244c-.255-.532-.383-1.136-.383-1.812 0-.685.134-1.293.402-1.825a3.112 3.112 0 0 1 1.11-1.25c.472-.306 1.015-.46 1.627-.46.638 0 1.191.15 1.659.447.472.298.838.712 1.097 1.244.26.527.39 1.138.39 1.831v.364h-4.958c.026.608.2 1.1.523 1.474.328.374.787.561 1.378.561.443 0 .806-.1 1.091-.3.285-.2.475-.46.568-.778h1.295c-.08.434-.261.817-.542 1.148a2.834 2.834 0 0 1-1.046.779 3.412 3.412 0 0 1-1.385.274Zm-1.869-4.179h3.63c-.055-.536-.244-.96-.568-1.27-.323-.314-.74-.472-1.25-.472-.511 0-.927.158-1.251.472-.319.31-.506.734-.561 1.27Zm8.243 4.134c-.672 0-1.229-.17-1.672-.51-.442-.344-.663-.853-.663-1.525 0-.51.125-.902.376-1.174a2.14 2.14 0 0 1 .989-.593 8 8 0 0 1 1.295-.262c.422-.05.755-.093 1.002-.127s.421-.085.523-.154c.107-.068.16-.184.16-.35v-.058a1.02 1.02 0 0 0-.357-.804c-.239-.212-.573-.319-1.002-.319-.43 0-.781.105-1.053.313-.272.204-.421.461-.446.772h-1.321c.03-.642.3-1.168.81-1.576.511-.408 1.187-.612 2.029-.612.829 0 1.482.204 1.959.612.476.408.714.955.714 1.64v4.619h-1.327v-.957h-.025c-.141.272-.364.519-.67.74-.302.217-.742.325-1.321.325Zm.274-1.084c.596 0 1.034-.153 1.315-.46.285-.31.427-.672.427-1.084v-.791c-.089.072-.291.138-.606.197a30.11 30.11 0 0 1-1.008.16c-.37.055-.695.16-.976.313s-.421.4-.421.74a.8.8 0 0 0 .338.682c.23.162.54.243.931.243Zm4.588.976v-9.506h1.346v5.646h.019l2.871-2.878h1.672l-2.852 2.897 3.043 3.841h-1.652l-2.418-3.03-.683.663v2.367h-1.346Zm9.417.153c-.642 0-1.206-.149-1.691-.447a3.07 3.07 0 0 1-1.135-1.237c-.268-.528-.402-1.136-.402-1.825 0-.698.134-1.31.402-1.838a3.06 3.06 0 0 1 1.135-1.244c.485-.302 1.049-.453 1.691-.453.642 0 1.204.151 1.684.453.485.298.862.713 1.13 1.244.272.528.408 1.14.408 1.838 0 .689-.136 1.297-.408 1.825a3.03 3.03 0 0 1-1.13 1.238c-.48.297-1.042.446-1.684.446Zm0-1.161c.578 0 1.034-.213 1.365-.638.332-.425.498-.995.498-1.71 0-.723-.168-1.3-.504-1.73-.332-.429-.785-.643-1.359-.643s-1.029.214-1.365.644c-.332.425-.498 1.002-.498 1.729 0 .719.166 1.29.498 1.716.331.421.787.632 1.365.632Zm6.852 1.142c-.459 0-.874-.1-1.244-.3a2.228 2.228 0 0 1-.874-.9c-.213-.395-.319-.886-.319-1.473V19.93h1.346v4.033c0 .54.13.948.39 1.225.259.272.623.408 1.091.408.455 0 .837-.14 1.148-.421.315-.285.472-.74.472-1.365v-3.88h1.346v6.738h-1.32v-1.014c-.46.765-1.138 1.148-2.036 1.148Zm8.122-6.872v1.11h-1.365v3.848c0 .25.051.425.153.523.102.098.287.147.555.147h.657v1.11h-.848c-1.246 0-1.87-.536-1.87-1.608v-4.02h-1.186v-1.11h1.186v-1.837h1.353v1.837h1.365Zm6.674 6.898a3.7 3.7 0 0 1-1.391-.25 2.362 2.362 0 0 1-1.002-.74c-.25-.327-.391-.733-.421-1.218h1.327c.077.757.564 1.136 1.462 1.136.425 0 .761-.088 1.008-.262.251-.174.376-.396.376-.663a.653.653 0 0 0-.268-.55 1.726 1.726 0 0 0-.702-.305l-1.116-.25c-1.289-.28-1.934-.922-1.934-1.926 0-.596.237-1.08.709-1.455.476-.374 1.099-.561 1.869-.561.761 0 1.387.198 1.876.593.493.391.748.927.766 1.608h-1.289a1.054 1.054 0 0 0-.37-.81c-.243-.217-.564-.326-.964-.326-.383 0-.687.09-.912.268-.226.179-.338.398-.338.657 0 .23.085.415.255.555.174.14.413.245.715.313l1.148.255c.655.145 1.138.368 1.448.67.311.302.466.698.466 1.187 0 .43-.119.8-.357 1.11a2.284 2.284 0 0 1-.964.715 3.685 3.685 0 0 1-1.397.248Zm3.911-.16V19.93h1.346v6.738h-1.346Zm.67-7.899a.848.848 0 0 1-.606-.236.799.799 0 0 1-.243-.587c0-.234.081-.43.243-.587a.836.836 0 0 1 .606-.242c.238 0 .44.08.606.242a.776.776 0 0 1 .249.587c0 .23-.083.426-.249.587a.848.848 0 0 1-.606.236Zm5.142 10.655c-.825 0-1.499-.183-2.022-.549-.523-.365-.829-.878-.919-1.537h1.346c.086.327.271.574.556.74.284.166.631.249 1.039.249.545 0 .97-.147 1.277-.44.306-.294.459-.713.459-1.257v-1.021h-.006c-.234.391-.53.68-.887.868a2.51 2.51 0 0 1-1.193.28c-.587 0-1.1-.147-1.538-.44a2.963 2.963 0 0 1-1.021-1.225c-.242-.523-.364-1.127-.364-1.812s.122-1.289.364-1.812a2.951 2.951 0 0 1 1.027-1.225c.438-.298.947-.446 1.525-.446.438 0 .84.093 1.206.28.366.187.661.48.887.88h.006V19.93h1.327v6.649c0 .68-.138 1.229-.414 1.646a2.407 2.407 0 0 1-1.111.912 4.006 4.006 0 0 1-1.544.287Zm-.076-3.822c.574 0 1.031-.21 1.372-.631.344-.425.516-.991.516-1.697 0-.706-.172-1.27-.516-1.691-.341-.425-.798-.638-1.372-.638-.545 0-.987.2-1.327.6-.336.395-.504.972-.504 1.729 0 .757.168 1.335.504 1.735.34.396.782.593 1.327.593Zm6.01-2.813v3.879h-1.346V19.93h1.321v1.015c.459-.766 1.137-1.148 2.035-1.148.463 0 .878.102 1.244.306.37.2.661.497.874.893.213.396.319.887.319 1.474v4.198h-1.346v-4.032c0-.54-.13-.947-.389-1.219-.26-.276-.621-.415-1.085-.415-.459 0-.846.143-1.161.428-.311.28-.466.733-.466 1.359Zm8.02 3.987c-.672 0-1.229-.17-1.672-.51-.442-.344-.663-.853-.663-1.525 0-.51.125-.902.376-1.174.255-.276.585-.474.989-.593a8 8 0 0 1 1.295-.262c.421-.05.755-.093 1.002-.127s.421-.085.523-.154c.107-.068.16-.184.16-.35v-.058a1.02 1.02 0 0 0-.358-.804c-.238-.212-.572-.319-1.001-.319-.43 0-.781.105-1.053.313-.272.204-.421.461-.447.772h-1.32c.03-.642.3-1.168.81-1.576.51-.408 1.187-.612 2.029-.612.829 0 1.482.204 1.959.612.476.408.714.955.714 1.64v4.619h-1.327v-.957h-.025c-.141.272-.364.519-.67.74-.302.217-.743.325-1.321.325Zm.274-1.084c.596 0 1.034-.153 1.315-.46.285-.31.427-.672.427-1.084v-.791c-.089.072-.291.138-.606.197a30.11 30.11 0 0 1-1.008.16c-.37.055-.695.16-.976.313s-.421.4-.421.74a.8.8 0 0 0 .338.682c.23.162.54.243.931.243Zm5.934-8.53v9.506h-1.346v-9.506h1.346Z"/><path fill="#1D1D1D" d="M67.814 51.27V39.047h4.569c1.258 0 2.237.293 2.937.878.705.58 1.058 1.359 1.058 2.338 0 .7-.183 1.268-.55 1.706-.36.437-.861.754-1.5.951v.017a3.08 3.08 0 0 1 1.796.87c.492.48.738 1.156.738 2.025 0 1.04-.364 1.873-1.091 2.502-.722.624-1.805.935-3.249.935h-4.708Zm1.805-1.535h2.789c.83 0 1.47-.16 1.92-.483.453-.329.68-.804.68-1.428 0-.618-.221-1.107-.664-1.468-.438-.361-1.061-.541-1.87-.541h-2.855v3.92Zm0-5.422h2.74c.694 0 1.235-.166 1.624-.5.393-.334.59-.788.59-1.362 0-.574-.197-1.028-.59-1.361-.389-.34-.93-.51-1.625-.51h-2.74v3.733Zm8.818 6.956v-8.662h1.73v8.663h-1.73Zm.861-10.155a1.09 1.09 0 0 1-.78-.303 1.028 1.028 0 0 1-.31-.755c0-.3.103-.552.31-.755.214-.208.474-.312.78-.312.306 0 .566.104.78.312a1 1 0 0 1 .32.755c0 .295-.107.547-.32.755a1.09 1.09 0 0 1-.78.303Zm7.153 1.493v1.427h-1.755v4.947c0 .322.066.547.197.672.131.126.369.19.713.19h.845v1.426h-1.09c-1.603 0-2.404-.688-2.404-2.067v-5.168H81.43v-1.427h1.526v-2.362h1.739v2.362h1.755Zm4.93 8.86c-.825 0-1.55-.192-2.173-.575a3.913 3.913 0 0 1-1.444-1.591c-.345-.684-.517-1.466-.517-2.346 0-.892.172-1.68.517-2.363a3.958 3.958 0 0 1 1.452-1.6c.618-.388 1.34-.582 2.165-.582.69 0 1.305.137 1.846.41.547.268.99.64 1.33 1.116a3.45 3.45 0 0 1 .614 1.632H93.45a2.036 2.036 0 0 0-.657-1.197c-.35-.312-.817-.468-1.402-.468-.75 0-1.335.276-1.756.829-.42.552-.632 1.293-.632 2.223 0 .918.211 1.651.632 2.198.421.547 1.006.82 1.756.82.596 0 1.055-.15 1.378-.45.322-.307.541-.714.656-1.223h1.747a3.416 3.416 0 0 1-.607 1.624 3.62 3.62 0 0 1-1.329 1.132c-.546.274-1.165.41-1.854.41Zm8.991 0c-.826 0-1.55-.192-2.174-.575a3.951 3.951 0 0 1-1.46-1.591c-.344-.678-.517-1.46-.517-2.346 0-.897.173-1.685.517-2.363a3.939 3.939 0 0 1 1.46-1.6c.624-.388 1.348-.582 2.174-.582.826 0 1.548.194 2.166.583a3.889 3.889 0 0 1 1.452 1.6c.35.677.525 1.465.525 2.362 0 .886-.175 1.668-.525 2.346a3.9 3.9 0 0 1-1.452 1.591c-.618.383-1.34.574-2.166.574Zm0-1.494c.744 0 1.329-.273 1.756-.82.426-.547.639-1.28.639-2.198 0-.93-.216-1.671-.648-2.223-.426-.553-1.009-.829-1.747-.829-.738 0-1.323.276-1.755.829-.427.547-.64 1.288-.64 2.223 0 .924.213 1.66.64 2.206.426.542 1.011.812 1.755.812Zm5.677 1.297v-8.663h1.73v8.663h-1.73Zm.861-10.156a1.09 1.09 0 0 1-.779-.303 1.027 1.027 0 0 1-.312-.755c0-.3.104-.552.312-.755.213-.208.473-.312.779-.312.306 0 .566.104.779.312.214.203.32.454.32.755 0 .295-.106.547-.32.755a1.09 1.09 0 0 1-.779.303Zm4.561 5.168v4.988h-1.731v-8.663h1.698v1.304c.591-.984 1.463-1.476 2.617-1.476.596 0 1.129.131 1.599.393.476.258.851.64 1.124 1.149.274.509.41 1.14.41 1.895v5.398h-1.73v-5.185c0-.694-.167-1.217-.501-1.567-.333-.355-.798-.533-1.394-.533-.591 0-1.089.183-1.493.55-.399.36-.599.943-.599 1.747Zm15.381 5.184c-.826 0-1.551-.191-2.174-.574a3.917 3.917 0 0 1-1.444-1.591c-.344-.684-.517-1.466-.517-2.346 0-.892.173-1.68.517-2.363a3.958 3.958 0 0 1 1.452-1.6c.618-.388 1.34-.582 2.166-.582.689 0 1.304.137 1.845.41.547.268.99.64 1.329 1.116a3.45 3.45 0 0 1 .616 1.632h-1.723a2.039 2.039 0 0 0-.656-1.197c-.35-.312-.818-.468-1.403-.468-.749 0-1.334.276-1.756.829-.421.552-.631 1.293-.631 2.223 0 .918.21 1.651.631 2.198.422.547 1.007.82 1.756.82.596 0 1.055-.15 1.378-.45.323-.307.541-.714.656-1.223h1.748a3.42 3.42 0 0 1-.607 1.624 3.621 3.621 0 0 1-1.329 1.132c-.547.274-1.165.41-1.854.41Zm5.266-.197v-8.662h1.657v1.403h.033c.159-.476.407-.845.746-1.108.345-.268.793-.402 1.346-.402.131 0 .251.006.361.017.109.01.199.019.27.024v1.616a2.79 2.79 0 0 0-.352-.049 4.384 4.384 0 0 0-.558-.033c-.487 0-.905.17-1.255.509-.345.339-.517.861-.517 1.567v5.118h-1.731Zm9.303.197c-.826 0-1.551-.191-2.174-.574a3.947 3.947 0 0 1-1.46-1.591c-.345-.678-.517-1.46-.517-2.346 0-.897.172-1.685.517-2.363a3.934 3.934 0 0 1 1.46-1.6c.623-.388 1.348-.582 2.174-.582.825 0 1.547.194 2.165.583a3.875 3.875 0 0 1 1.452 1.6c.35.677.525 1.465.525 2.362 0 .886-.175 1.668-.525 2.346a3.887 3.887 0 0 1-1.452 1.591c-.618.383-1.34.574-2.165.574Zm0-1.493c.743 0 1.328-.273 1.755-.82.427-.547.64-1.28.64-2.198 0-.93-.216-1.671-.648-2.223-.427-.553-1.009-.829-1.747-.829-.739 0-1.324.276-1.756.829-.427.547-.64 1.288-.64 2.223 0 .924.213 1.66.64 2.206.427.542 1.012.812 1.756.812Zm8.883 1.502c-.661 0-1.257-.107-1.788-.32a3.03 3.03 0 0 1-1.288-.952c-.322-.421-.503-.943-.541-1.567h1.706c.099.974.725 1.46 1.879 1.46.547 0 .979-.112 1.296-.336.322-.224.484-.508.484-.853a.84.84 0 0 0-.345-.705c-.229-.18-.53-.312-.902-.394l-1.436-.32c-1.657-.361-2.485-1.187-2.485-2.477 0-.766.303-1.39.91-1.87.613-.482 1.414-.723 2.404-.723.979 0 1.783.255 2.412.763.634.503.962 1.192.984 2.067h-1.657a1.351 1.351 0 0 0-.476-1.041c-.312-.28-.724-.419-1.239-.419-.492 0-.883.115-1.173.345-.289.23-.434.511-.434.845 0 .295.109.533.328.713.224.18.53.315.919.402l1.476.328c.842.186 1.463.474 1.862.862s.599.897.599 1.526c0 .552-.153 1.028-.459 1.427-.301.394-.714.7-1.239.919-.525.213-1.124.32-1.797.32Zm8.236 0c-.661 0-1.257-.107-1.788-.32a3.03 3.03 0 0 1-1.288-.952c-.322-.421-.503-.943-.541-1.567h1.706c.099.974.725 1.46 1.879 1.46.546 0 .979-.112 1.296-.336.322-.224.484-.508.484-.853a.84.84 0 0 0-.345-.705c-.23-.18-.53-.312-.902-.394l-1.436-.32c-1.657-.361-2.485-1.187-2.485-2.477 0-.766.303-1.39.91-1.87.613-.482 1.414-.723 2.404-.723.979 0 1.783.255 2.412.763.634.503.962 1.192.984 2.067h-1.657a1.351 1.351 0 0 0-.476-1.041c-.312-.28-.725-.419-1.239-.419-.492 0-.883.115-1.173.345-.289.23-.434.511-.434.845 0 .295.109.533.328.713.224.18.53.315.918.402l1.477.328c.842.186 1.463.474 1.862.862s.599.897.599 1.526c0 .552-.153 1.028-.459 1.427-.301.394-.714.7-1.239.919-.525.213-1.124.32-1.797.32Zm8.729-.009c-.859 0-1.597-.194-2.215-.582a3.868 3.868 0 0 1-1.419-1.6c-.329-.683-.493-1.46-.493-2.33 0-.88.173-1.662.517-2.345.345-.684.82-1.22 1.428-1.608.607-.394 1.304-.59 2.091-.59.821 0 1.532.19 2.133.573a3.831 3.831 0 0 1 1.411 1.6c.334.678.5 1.463.5 2.354v.468h-6.373c.032.782.257 1.413.672 1.895.421.481 1.012.722 1.772.722.569 0 1.036-.129 1.403-.386.366-.257.61-.59.73-1h1.665a3.135 3.135 0 0 1-.697 1.476c-.356.426-.804.76-1.345 1a4.386 4.386 0 0 1-1.78.353Zm-2.404-5.373h4.668c-.071-.689-.315-1.233-.73-1.632-.416-.405-.952-.607-1.608-.607-.657 0-1.192.202-1.608.607-.41.4-.651.943-.722 1.632Zm11.189 5.349c-.755 0-1.414-.189-1.977-.566-.563-.383-1.001-.91-1.312-1.583-.312-.678-.468-1.463-.468-2.355 0-.891.156-1.673.468-2.346.317-.678.757-1.206 1.32-1.583.564-.383 1.217-.574 1.961-.574a3.37 3.37 0 0 1 1.542.352 2.67 2.67 0 0 1 1.116 1.075h.016v-4.815h1.731V51.27h-1.698v-1.321h-.016c-.29.503-.67.878-1.141 1.124a3.246 3.246 0 0 1-1.542.369Zm.353-1.493c.738 0 1.326-.274 1.763-.82.443-.553.665-1.283.665-2.19 0-.914-.222-1.644-.665-2.191-.437-.552-1.025-.828-1.763-.828-.7 0-1.269.26-1.706.779-.432.514-.648 1.26-.648 2.24 0 .978.216 1.725.648 2.239.437.514 1.006.77 1.706.77Zm13.601 3.133v-1.657c-1.236-.125-2.207-.55-2.912-1.271-.7-.722-1.05-1.67-1.05-2.847h1.821c.005.684.194 1.245.566 1.682.371.432.896.708 1.575.829v-4.061l-.164-.041c-1.236-.295-2.139-.706-2.707-1.23-.564-.53-.845-1.22-.845-2.068 0-.984.336-1.793 1.009-2.428.672-.634 1.575-1.003 2.707-1.107v-1.649h1.394v1.657c1.099.131 1.969.53 2.609 1.198.64.667.976 1.54 1.009 2.617h-1.764c-.038-.58-.221-1.056-.55-1.428-.322-.377-.757-.629-1.304-.755v3.831l.361.082c1.225.29 2.127.709 2.707 1.255.585.547.878 1.258.878 2.133 0 1.017-.356 1.849-1.067 2.494-.71.645-1.67 1.02-2.879 1.124v1.64h-1.394Zm1.394-3.24c.651-.087 1.168-.298 1.551-.631a1.65 1.65 0 0 0 .574-1.288 1.39 1.39 0 0 0-.492-1.1c-.323-.29-.867-.535-1.633-.738v3.757Zm-1.394-5.832v-3.52c-.569.094-1.029.307-1.379.64a1.58 1.58 0 0 0-.525 1.198c0 .4.148.733.443 1 .296.263.782.49 1.461.682Zm7.145 7.26 5.381-10.64v-.008h-6.226v-1.575h8.063v1.624l-5.332 10.599h-1.886Zm12.616.196c-.946 0-1.764-.257-2.453-.77-.683-.515-1.211-1.242-1.583-2.183-.372-.946-.558-2.061-.558-3.347 0-1.29.186-2.409.558-3.355.372-.946.9-1.676 1.583-2.19.689-.514 1.507-.771 2.453-.771.941 0 1.753.257 2.436.771.689.514 1.22 1.244 1.592 2.19.372.946.557 2.065.557 3.355 0 1.286-.185 2.401-.557 3.347-.372.94-.903 1.668-1.592 2.182-.683.514-1.495.771-2.436.771Zm0-1.55c.886 0 1.583-.421 2.092-1.263.514-.848.771-2.01.771-3.487 0-1.482-.257-2.646-.771-3.494-.509-.848-1.206-1.272-2.092-1.272-.891 0-1.594.424-2.108 1.272-.509.848-.763 2.012-.763 3.494 0 1.477.254 2.64.763 3.487.514.842 1.217 1.263 2.108 1.263Zm5.234 3.74.68-4.191h1.772l-1.214 4.192h-1.238Zm8.203-2.19c-.946 0-1.764-.257-2.453-.77-.684-.515-1.211-1.242-1.583-2.183-.372-.946-.558-2.061-.558-3.347 0-1.29.186-2.409.558-3.355.372-.946.899-1.676 1.583-2.19.689-.514 1.507-.771 2.453-.771.94 0 1.752.257 2.436.771.689.514 1.22 1.244 1.591 2.19.372.946.558 2.065.558 3.355 0 1.286-.186 2.401-.558 3.347-.371.94-.902 1.668-1.591 2.182-.684.514-1.496.771-2.436.771Zm0-1.55c.886 0 1.583-.421 2.091-1.263.515-.848.772-2.01.772-3.487 0-1.482-.257-2.646-.772-3.494-.508-.848-1.205-1.272-2.091-1.272-.892 0-1.594.424-2.109 1.272-.508.848-.762 2.012-.762 3.494 0 1.477.254 2.64.762 3.487.515.842 1.217 1.263 2.109 1.263Zm10.516 1.55c-.946 0-1.764-.257-2.453-.77-.683-.515-1.211-1.242-1.583-2.183-.372-.946-.558-2.061-.558-3.347 0-1.29.186-2.409.558-3.355.372-.946.9-1.676 1.583-2.19.689-.514 1.507-.771 2.453-.771.941 0 1.753.257 2.436.771.689.514 1.22 1.244 1.592 2.19.372.946.558 2.065.558 3.355 0 1.286-.186 2.401-.558 3.347-.372.94-.903 1.668-1.592 2.182-.683.514-1.495.771-2.436.771Zm0-1.55c.886 0 1.583-.421 2.092-1.263.514-.848.771-2.01.771-3.487 0-1.482-.257-2.646-.771-3.494-.509-.848-1.206-1.272-2.092-1.272-.891 0-1.594.424-2.108 1.272-.509.848-.763 2.012-.763 3.494 0 1.477.254 2.64.763 3.487.514.842 1.217 1.263 2.108 1.263Zm10.516 1.55c-.946 0-1.763-.257-2.452-.77-.684-.515-1.212-1.242-1.583-2.183-.372-.946-.558-2.061-.558-3.347 0-1.29.186-2.409.558-3.355.371-.946.899-1.676 1.583-2.19.689-.514 1.506-.771 2.452-.771.941 0 1.753.257 2.437.771.689.514 1.219 1.244 1.591 2.19.372.946.558 2.065.558 3.355 0 1.286-.186 2.401-.558 3.347-.372.94-.902 1.668-1.591 2.182-.684.514-1.496.771-2.437.771Zm0-1.55c.886 0 1.584-.421 2.092-1.263.514-.848.771-2.01.771-3.487 0-1.482-.257-2.646-.771-3.494-.508-.848-1.206-1.272-2.092-1.272-.891 0-1.594.424-2.108 1.272-.508.848-.763 2.012-.763 3.494 0 1.477.255 2.64.763 3.487.514.842 1.217 1.263 2.108 1.263Z"/><defs><linearGradient id="a" x1="14.428" x2="57.97" y1="14.615" y2="20.9" gradientUnits="userSpaceOnUse"><stop stop-color="#323232"/><stop offset="1"/></linearGradient></defs></svg>