<svg xmlns="http://www.w3.org/2000/svg" width="303" height="246" fill="none"><foreignObject width="360.016" height="305.04" x="-29.078" y="-30"><div xmlns="http://www.w3.org/1999/xhtml" style="backdrop-filter:blur(15px);clip-path:url(#a);height:100%;width:100%"/></foreignObject><g data-figma-bg-blur-radius="30"><rect width="300.016" height="245.04" x=".922" fill="#fff" fill-opacity=".5" rx="16"/><rect width="299.016" height="244.04" x="1.422" y=".5" stroke="#fff" stroke-opacity=".8" rx="15.5"/></g><path fill="#454459" d="M23.109 220.024c-.506 0-.918-.15-1.239-.45-.32-.299-.48-.727-.48-1.285v-.312h.703v.312c0 .362.092.638.277.828.188.188.434.282.739.282.304 0 .55-.094.734-.282.188-.19.281-.466.281-.828v-4.164h.703v4.164c0 .558-.16.986-.48 1.285-.32.3-.733.45-1.238.45Zm2.035-.078 2.148-5.821h.797l2.125 5.821h-.75l-.57-1.633h-2.43l-.586 1.633h-.734Zm1.543-2.258h1.992l-.438-1.25a58.675 58.675 0 0 1-.238-.688 260.35 260.35 0 0 1-.312-.965 62.954 62.954 0 0 1-.555 1.653l-.45 1.25Zm4.183 2.258v-5.821h.809l2.398 3.789a48.055 48.055 0 0 1 .637 1.075 42.675 42.675 0 0 1-.02-.633 45.242 45.242 0 0 1-.003-.473v-3.758h.703v5.821h-.817l-2.133-3.368c-.08-.125-.2-.316-.359-.574l-.547-.914a62.41 62.41 0 0 1 .035 1.481v3.375h-.703Zm40.149 0v-5.821h3.66v.625h-2.957v1.903h2.723v.625h-2.723v2.668h-.703Zm4.437 0v-5.821h3.785v.625H76.16v1.903h2.856v.625H76.16v2.043h3.082v.625h-3.785Zm4.64 0v-5.821h2.102c.584 0 1.042.14 1.375.418.334.279.5.655.5 1.129 0 .333-.083.602-.25.805a1.477 1.477 0 0 1-.695.453v.008c.33.054.61.194.84.418.23.221.344.54.344.957 0 .497-.172.894-.516 1.191-.344.294-.866.442-1.566.442h-2.133Zm.704-.625h1.43c.44 0 .777-.082 1.011-.247.237-.166.356-.411.356-.734s-.115-.577-.344-.762c-.23-.187-.557-.281-.984-.281H80.8v2.024Zm0-2.641h1.426c.362 0 .644-.086.847-.258.204-.174.305-.41.305-.707s-.101-.531-.305-.703c-.203-.175-.485-.262-.847-.262H80.8v1.93Zm39.238 3.266v-5.821h.957l1.477 3.758c.036.089.079.201.129.336.052.133.104.271.156.414.055.141.103.27.145.387a25.843 25.843 0 0 1 .296-.801c.053-.135.095-.247.129-.336l1.453-3.758h.961v5.821h-.691v-3.375c0-.209.003-.441.008-.696l.015-.765-.308.843c-.094.256-.172.461-.235.618l-1.351 3.375h-.578l-1.36-3.375c-.06-.149-.135-.343-.226-.582-.091-.24-.193-.504-.305-.793.008.239.013.479.016.718.005.24.008.459.008.657v3.375h-.696Zm6.36 0 2.148-5.821h.797l2.125 5.821h-.75l-.57-1.633h-2.43l-.586 1.633h-.734Zm1.543-2.258h1.992l-.438-1.25a57.22 57.22 0 0 1-.238-.688l-.312-.965c-.125.388-.231.71-.317.965-.083.253-.163.482-.238.688l-.449 1.25Zm4.183 2.258v-5.821h2.16c.607 0 1.088.159 1.442.477.357.315.535.745.535 1.289 0 .414-.112.764-.336 1.051a1.76 1.76 0 0 1-.902.605l1.308 2.399h-.82l-1.227-2.286h-1.457v2.286h-.703Zm.703-2.911h1.442c.403 0 .72-.101.949-.304.232-.206.348-.486.348-.84s-.118-.633-.352-.836c-.232-.203-.549-.305-.953-.305h-1.434v2.285Zm38.692 2.911 2.148-5.821h.797l2.125 5.821h-.75l-.57-1.633h-2.43l-.586 1.633h-.734Zm1.543-2.258h1.992l-.438-1.25a57.22 57.22 0 0 1-.238-.688l-.312-.965c-.125.388-.231.71-.317.965-.083.253-.163.482-.238.688l-.449 1.25Zm4.183 2.258v-5.821h2.086c.607 0 1.087.159 1.442.477.356.315.535.745.535 1.289 0 .362-.084.676-.25.941a1.645 1.645 0 0 1-.699.614c-.3.143-.653.214-1.059.214h-1.352v2.286h-.703Zm.703-2.911h1.36c.403 0 .721-.101.953-.304.234-.206.351-.486.351-.84s-.117-.633-.351-.836c-.232-.203-.55-.305-.953-.305h-1.36v2.285Zm4.196 2.911v-5.821h2.16c.607 0 1.087.159 1.441.477.357.315.535.745.535 1.289 0 .414-.112.764-.335 1.051a1.766 1.766 0 0 1-.903.605l1.309 2.399h-.821l-1.226-2.286h-1.457v2.286h-.703Zm.703-2.911h1.441c.404 0 .72-.101.949-.304.232-.206.348-.486.348-.84s-.117-.633-.351-.836c-.232-.203-.55-.305-.954-.305h-1.433v2.285Z" opacity=".5"/><path fill="#454459" d="M221.929 219.946v-5.821h.957l1.477 3.758c.036.089.079.201.128.336.053.133.105.271.157.414.054.141.103.27.144.387a47.82 47.82 0 0 1 .426-1.137l1.453-3.758h.961v5.821h-.691v-3.375c0-.209.002-.441.007-.696l.016-.765-.308.843c-.094.256-.172.461-.235.618l-1.351 3.375h-.579l-1.359-3.375c-.06-.149-.135-.343-.226-.582l-.305-.793c.008.239.013.479.015.718.006.24.008.459.008.657v3.375h-.695Zm6.359 0 2.149-5.821h.797l2.125 5.821h-.75l-.571-1.633h-2.429l-.586 1.633h-.735Zm1.543-2.258h1.992l-.437-1.25a57.22 57.22 0 0 1-.238-.688c-.084-.255-.188-.577-.313-.965-.125.388-.23.71-.316.965-.084.253-.163.482-.238.688l-.45 1.25Zm4.965 2.258v-2.399l-2.14-3.422h.812l1.168 1.883c.091.143.178.288.262.434.086.143.17.286.254.429.083-.143.168-.286.254-.429.085-.146.173-.291.261-.434l1.164-1.883h.809l-2.141 3.422v2.399h-.703Z"/><path fill="#454459" d="M274.253 220.024c-.505 0-.918-.15-1.238-.45-.32-.299-.481-.727-.481-1.285v-.312h.704v.312c0 .362.092.638.277.828.187.188.433.282.738.282s.55-.094.735-.282c.187-.19.281-.466.281-.828v-4.164h.703v4.164c0 .558-.16.986-.481 1.285-.32.3-.733.45-1.238.45Zm5.082.015c-.456 0-.854-.09-1.195-.269a1.987 1.987 0 0 1-.789-.735 2.026 2.026 0 0 1-.281-1.066v-3.844h.703v3.789c0 .284.062.537.187.758.125.221.305.396.539.524.235.125.513.187.836.187.326 0 .604-.062.836-.187a1.34 1.34 0 0 0 .539-.524c.125-.221.188-.474.188-.758v-3.789h.703v3.844c0 .398-.094.754-.281 1.066a2 2 0 0 1-.789.735c-.339.179-.737.269-1.196.269Zm3.391-.093v-5.821h.808l2.399 3.789a47.17 47.17 0 0 1 .637 1.075 38.848 38.848 0 0 1-.02-.633 36.609 36.609 0 0 1-.004-.473v-3.758h.703v5.821h-.816l-2.133-3.368c-.081-.125-.2-.316-.359-.574-.157-.26-.339-.565-.547-.914a59.27 59.27 0 0 1 .035 1.481v3.375h-.703Z" opacity=".5"/><path stroke="#DDE5ED" d="M.939 26.291h299.999m-299.999 20h299.999m-299.999 20h299.999m-299.999 20h299.999m-299.999 20h299.999m-299.999 20h299.999m-299.999 20h299.999m-299.999 20h299.999m-299.999 20h299.999m-299.999 20h299.999m-299.999 20h299.999" opacity=".2"/><path fill="url(#b)" d="M13.736 150.355c-8.868 1.382-6.993 2.497-12.487 5.245v73.673h299.689V97.66s-8.26 17.993-14.734 17.232c-10.024-1.179-5.664-10.17-15.734-9.49-7.487.505-8.741 24.33-19.48 23.725-13.566-.764-8.237-12.61-21.727-14.235-9.474-1.142-9.192-18.483-18.731-18.73-14.736-.383-16.809-14.561-29.469-15.735-29.878-2.768-2.517-47.285-32.467-45.453-29.226 1.788 3.399 73.475-25.723 70.428-7.334-.768-10.427-7.502-17.732-6.494-9.022 1.246-8.276 13.308-16.982 15.984-11.38 3.497-17.335-12.011-28.97-9.49-11.146 2.414-10.573 19.198-21.977 19.23-15.358.042-8.301 23.359-23.476 25.723Z" opacity=".2"/><path stroke="url(#c)" stroke-linecap="round" stroke-opacity=".8" stroke-width="2.497" d="M1.249 155.6c5.494-2.748 3.62-3.863 12.487-5.245 15.175-2.364 8.118-25.681 23.476-25.723 11.404-.032 10.831-16.816 21.977-19.23 11.635-2.521 17.59 12.987 28.97 9.49 8.706-2.676 7.96-14.738 16.982-15.984 7.305-1.008 10.398 5.726 17.732 6.494 29.122 3.047-3.503-68.64 25.723-70.428 29.95-1.832 2.589 42.685 32.467 45.453 12.66 1.174 14.733 15.352 29.469 15.734 9.539.248 9.257 17.589 18.731 18.731 13.49 1.625 8.161 13.471 21.727 14.235 10.739.605 11.993-23.22 19.48-23.725 10.07-.68 5.71 8.311 15.734 9.49 6.474.761 14.734-17.233 14.734-17.233"/><path fill="url(#d)" d="M158.988 51.977h42.951v168.94h-42.951V51.977Z" opacity=".5"/><g filter="url(#e)"><circle cx="180.463" cy="80.612" r="9.545" fill="#fff"/><circle cx="180.463" cy="80.612" r="6.92" stroke="url(#f)" stroke-width="5.25"/></g><mask id="h" width="6" height="6" x="177.123" y="192.282" fill="#000" maskUnits="userSpaceOnUse"><path fill="#fff" d="M177.123 192.282h6v6h-6z"/><path d="M182.226 197.185c0-.121-.05-.216-.115-.347l-1.708-3.529c-.12-.249-.246-.341-.417-.341-.17 0-.296.092-.419.341l-1.706 3.529c-.064.134-.115.229-.115.347 0 .226.171.383.445.383l3.59-.003c.272 0 .445-.157.445-.38Z"/></mask><path fill="#fff" d="M182.226 197.185c0-.121-.05-.216-.115-.347l-1.708-3.529c-.12-.249-.246-.341-.417-.341-.17 0-.296.092-.419.341l-1.706 3.529c-.064.134-.115.229-.115.347 0 .226.171.383.445.383l3.59-.003c.272 0 .445-.157.445-.38Z"/><path fill="url(#g)" d="m182.111 196.838-.429.208.001.002.428-.21Zm-1.708-3.529-.43.208.43-.208Zm-.836 0-.428-.212-.002.004.43.208Zm-1.706 3.529-.43-.208v.002l.43.206Zm.33.73v.477-.477Zm3.59-.003v-.477.477Zm.445-.38h.477c0-.254-.114-.457-.163-.557l-.429.21-.428.21.042.086.021.048c.006.018.003.014.003.003h.477Zm-.115-.347.43-.208-1.709-3.529-.429.208-.43.208 1.709 3.529.429-.208Zm-1.708-3.529.43-.208a1.21 1.21 0 0 0-.322-.429.823.823 0 0 0-.525-.181v.954c-.001 0-.013 0-.03-.006a.12.12 0 0 1-.04-.021c-.007-.005-.004-.004.008.011a.599.599 0 0 1 .049.088l.43-.208Zm-.417-.341v-.477a.825.825 0 0 0-.524.18 1.237 1.237 0 0 0-.323.426l.428.212.428.211a.708.708 0 0 1 .051-.089c.012-.016.016-.017.01-.012-.008.005-.021.014-.039.02s-.03.006-.031.006v-.477Zm-.419.341-.43-.208-1.706 3.529.43.208.43.208 1.705-3.529-.429-.208Zm-1.706 3.529-.43-.206c-.047.096-.162.302-.162.553h.955c0 .014-.004.018.003-.001a.545.545 0 0 1 .022-.051l.042-.089-.43-.206Zm-.115.347h-.477c0 .24.095.47.282.635.182.16.414.225.64.225v-.955c-.048 0-.039-.013-.01.012a.135.135 0 0 1 .034.047.1.1 0 0 1 .009.036h-.478Zm.445.383v.477l3.591-.003-.001-.477v-.477l-3.59.002v.478Zm3.59-.003v.477a.962.962 0 0 0 .637-.223.829.829 0 0 0 .285-.634h-.954a.137.137 0 0 1 .043-.087c.027-.023.035-.01-.011-.01v.477Z" mask="url(#h)"/><mask id="j" width="6" height="6" x="177.123" y="159.831" fill="#000" maskUnits="userSpaceOnUse"><path fill="#fff" d="M177.123 159.831h6v6h-6z"/><path d="M182.226 164.733c0-.12-.05-.215-.115-.346l-1.708-3.529c-.12-.249-.246-.341-.417-.341-.17 0-.296.092-.419.341l-1.706 3.529c-.064.134-.115.229-.115.346 0 .227.171.384.445.384l3.59-.003c.272 0 .445-.157.445-.381Z"/></mask><path fill="#fff" d="M182.226 164.733c0-.12-.05-.215-.115-.346l-1.708-3.529c-.12-.249-.246-.341-.417-.341-.17 0-.296.092-.419.341l-1.706 3.529c-.064.134-.115.229-.115.346 0 .227.171.384.445.384l3.59-.003c.272 0 .445-.157.445-.381Z"/><path fill="url(#i)" d="m182.111 164.387-.429.208.001.001.428-.209Zm-1.708-3.529-.43.207v.001l.43-.208Zm-.836 0-.428-.212-.002.004.43.208Zm-1.706 3.529-.43-.208v.001l.43.207Zm.33.73v.477-.477Zm3.59-.003v-.478.478Zm.445-.381h.477c0-.253-.114-.457-.163-.556l-.429.21-.428.209.042.086.021.049c.006.017.003.014.003.002h.477Zm-.115-.346.43-.208-1.709-3.529-.429.208-.43.208 1.709 3.529.429-.208Zm-1.708-3.529.43-.208a1.21 1.21 0 0 0-.322-.429.825.825 0 0 0-.525-.182v.955c-.001 0-.013 0-.03-.006a.12.12 0 0 1-.04-.021c-.007-.005-.004-.005.008.011a.63.63 0 0 1 .049.087l.43-.207Zm-.417-.341v-.478a.827.827 0 0 0-.524.181 1.227 1.227 0 0 0-.323.426l.428.212.428.211a.708.708 0 0 1 .051-.089c.012-.016.016-.017.01-.013a.136.136 0 0 1-.039.021c-.018.006-.03.006-.031.006v-.477Zm-.419.341-.43-.208-1.706 3.529.43.208.43.207 1.705-3.529-.429-.207Zm-1.706 3.529-.43-.207c-.047.097-.162.303-.162.553h.955c0 .014-.004.019.003 0a.45.45 0 0 1 .022-.051l.042-.089-.43-.206Zm-.115.346h-.477c0 .241.095.471.282.636a.963.963 0 0 0 .64.225v-.955c-.048 0-.039-.013-.01.012a.135.135 0 0 1 .034.047.097.097 0 0 1 .009.035h-.478Zm.445.384v.477l3.591-.003-.001-.477v-.478l-3.59.003v.478Zm3.59-.003v.477a.962.962 0 0 0 .637-.223.83.83 0 0 0 .285-.635h-.954a.09.09 0 0 1 .01-.039.137.137 0 0 1 .033-.047c.027-.023.035-.011-.011-.011v.478Z" mask="url(#j)"/><mask id="l" width="6" height="6" x="177.123" y="127.38" fill="#000" maskUnits="userSpaceOnUse"><path fill="#fff" d="M177.123 127.38h6v6h-6z"/><path d="M182.226 132.282c0-.12-.05-.216-.115-.347l-1.708-3.529c-.12-.249-.246-.341-.417-.341-.17 0-.296.092-.419.341l-1.706 3.529c-.064.134-.115.229-.115.347 0 .226.171.383.445.383l3.59-.003c.272 0 .445-.157.445-.38Z"/></mask><path fill="#fff" d="M182.226 132.282c0-.12-.05-.216-.115-.347l-1.708-3.529c-.12-.249-.246-.341-.417-.341-.17 0-.296.092-.419.341l-1.706 3.529c-.064.134-.115.229-.115.347 0 .226.171.383.445.383l3.59-.003c.272 0 .445-.157.445-.38Z"/><path fill="url(#k)" d="m182.111 131.935-.429.208.001.002.428-.21Zm-1.708-3.529-.43.208.43-.208Zm-.836 0-.428-.211-.002.003.43.208Zm-1.706 3.529-.43-.208v.002l.43.206Zm.33.73v.477-.477Zm3.59-.003v-.477.477Zm.445-.38h.477c0-.254-.114-.457-.163-.557l-.429.21-.428.21a5.36 5.36 0 0 1 .063.135c.006.017.003.013.003.002h.477Zm-.115-.347.43-.208-1.709-3.529-.429.208-.43.208 1.709 3.529.429-.208Zm-1.708-3.529.43-.207a1.214 1.214 0 0 0-.322-.43.823.823 0 0 0-.525-.181v.954c-.001 0-.013 0-.03-.006a.12.12 0 0 1-.04-.021c-.007-.005-.004-.004.008.011a.66.66 0 0 1 .049.088l.43-.208Zm-.417-.341v-.477a.82.82 0 0 0-.524.181 1.227 1.227 0 0 0-.323.426l.428.211.428.212a.582.582 0 0 1 .051-.089c.012-.017.016-.018.01-.013a.138.138 0 0 1-.039.02c-.018.006-.03.006-.031.006v-.477Zm-.419.341-.43-.208-1.706 3.529.43.208.43.208 1.705-3.529-.429-.208Zm-1.706 3.529-.43-.206c-.047.097-.162.303-.162.553h.955c0 .014-.004.019.003 0a.443.443 0 0 1 .022-.052l.042-.089-.43-.206Zm-.115.347h-.477c0 .24.095.47.282.635.182.16.414.225.64.225v-.954c-.048 0-.039-.013-.01.012a.127.127 0 0 1 .043.082h-.478Zm.445.383v.477l3.591-.003-.001-.477v-.477l-3.59.003v.477Zm3.59-.003v.477a.956.956 0 0 0 .637-.223.829.829 0 0 0 .285-.634h-.954c0-.007.001-.021.01-.04a.124.124 0 0 1 .033-.046c.027-.024.035-.011-.011-.011v.477Z" mask="url(#l)"/><mask id="n" width="6" height="6" x="177.123" y="176.057" fill="#000" maskUnits="userSpaceOnUse"><path fill="#fff" d="M177.123 176.057h6v6h-6z"/><path d="M182.226 180.959c0-.12-.05-.215-.115-.347l-1.708-3.529c-.12-.248-.246-.341-.417-.341-.17 0-.296.093-.419.341l-1.706 3.529c-.064.134-.115.23-.115.347 0 .227.171.383.445.383l3.59-.003c.272 0 .445-.156.445-.38Z"/></mask><path fill="#fff" d="M182.226 180.959c0-.12-.05-.215-.115-.347l-1.708-3.529c-.12-.248-.246-.341-.417-.341-.17 0-.296.093-.419.341l-1.706 3.529c-.064.134-.115.23-.115.347 0 .227.171.383.445.383l3.59-.003c.272 0 .445-.156.445-.38Z"/><path fill="url(#m)" d="m182.111 180.612-.429.208.001.002.428-.21Zm-1.708-3.529-.43.208.43-.208Zm-.836 0-.428-.211-.002.004.43.207Zm-1.706 3.529-.43-.207v.001l.43.206Zm.33.73v.477-.477Zm3.59-.003v-.477.477Zm.445-.38h.477c0-.254-.114-.457-.163-.556l-.429.209-.428.21.042.086a.534.534 0 0 1 .021.049c.006.017.003.013.003.002h.477Zm-.115-.347.43-.208-1.709-3.529-.429.208-.43.208 1.709 3.529.429-.208Zm-1.708-3.529.43-.207a1.21 1.21 0 0 0-.322-.429.819.819 0 0 0-.525-.182v.954c-.001 0-.013 0-.03-.006a.104.104 0 0 1-.04-.021c-.007-.005-.004-.004.008.012a.63.63 0 0 1 .049.087l.43-.208Zm-.417-.341v-.477a.827.827 0 0 0-.524.181 1.227 1.227 0 0 0-.323.426l.428.211.428.212a.582.582 0 0 1 .051-.089c.012-.016.016-.018.01-.013a.138.138 0 0 1-.039.02c-.018.006-.03.006-.031.006v-.477Zm-.419.341-.43-.207-1.706 3.529.43.207.43.208 1.705-3.529-.429-.208Zm-1.706 3.529-.43-.206c-.047.097-.162.303-.162.553h.955c0 .014-.004.019.003 0a.45.45 0 0 1 .022-.051l.042-.09-.43-.206Zm-.115.347h-.477c0 .24.095.471.282.635.182.16.414.225.64.225v-.954c-.048 0-.039-.013-.01.012a.127.127 0 0 1 .043.082h-.478Zm.445.383v.477l3.591-.002-.001-.478v-.477l-3.59.003v.477Zm3.59-.003v.478a.957.957 0 0 0 .637-.224.829.829 0 0 0 .285-.634h-.954c0-.006.001-.021.01-.04a.124.124 0 0 1 .033-.046c.027-.023.035-.011-.011-.011v.477Z" mask="url(#n)"/><mask id="p" width="6" height="6" x="177.123" y="143.606" fill="#000" maskUnits="userSpaceOnUse"><path fill="#fff" d="M177.123 143.606h6v6h-6z"/><path d="M182.226 148.508c0-.12-.05-.215-.115-.347l-1.708-3.529c-.12-.249-.246-.341-.417-.341-.17 0-.296.092-.419.341l-1.706 3.529c-.064.134-.115.229-.115.347 0 .226.171.383.445.383l3.59-.003c.272 0 .445-.156.445-.38Z"/></mask><path fill="#fff" d="M182.226 148.508c0-.12-.05-.215-.115-.347l-1.708-3.529c-.12-.249-.246-.341-.417-.341-.17 0-.296.092-.419.341l-1.706 3.529c-.064.134-.115.229-.115.347 0 .226.171.383.445.383l3.59-.003c.272 0 .445-.156.445-.38Z"/><path fill="url(#o)" d="m182.111 148.161-.429.208.001.002.428-.21Zm-1.708-3.529-.43.208.43-.208Zm-.836 0-.428-.211-.002.004.43.207Zm-1.706 3.529-.43-.208v.002l.43.206Zm.33.73v.477-.477Zm3.59-.003v-.477.477Zm.445-.38h.477c0-.254-.114-.457-.163-.557l-.429.21-.428.21.042.086a.534.534 0 0 1 .021.049c.006.017.003.013.003.002h.477Zm-.115-.347.43-.208-1.709-3.529-.429.208-.43.208 1.709 3.529.429-.208Zm-1.708-3.529.43-.207a1.214 1.214 0 0 0-.322-.43.823.823 0 0 0-.525-.181v.954c-.001 0-.013 0-.03-.006a.12.12 0 0 1-.04-.021c-.007-.005-.004-.004.008.011a.66.66 0 0 1 .049.088l.43-.208Zm-.417-.341v-.477a.82.82 0 0 0-.524.181 1.227 1.227 0 0 0-.323.426l.428.211.428.212a.582.582 0 0 1 .051-.089c.012-.016.016-.018.01-.013a.138.138 0 0 1-.039.02c-.018.006-.03.006-.031.006v-.477Zm-.419.341-.43-.207-1.706 3.528.43.208.43.208 1.705-3.529-.429-.208Zm-1.706 3.529-.43-.206c-.047.097-.162.303-.162.553h.955c0 .014-.004.019.003 0a.53.53 0 0 1 .022-.052l.042-.089-.43-.206Zm-.115.347h-.477c0 .24.095.47.282.635.182.16.414.225.64.225v-.954c-.048 0-.039-.013-.01.012a.127.127 0 0 1 .043.082h-.478Zm.445.383v.477l3.591-.003-.001-.477v-.477l-3.59.003v.477Zm3.59-.003v.477a.956.956 0 0 0 .637-.223.829.829 0 0 0 .285-.634h-.954c0-.007.001-.021.01-.04a.124.124 0 0 1 .033-.046c.027-.024.035-.011-.011-.011v.477Z" mask="url(#p)"/><mask id="r" width="6" height="6" x="177.123" y="111.154" fill="#000" maskUnits="userSpaceOnUse"><path fill="#fff" d="M177.123 111.154h6v6h-6z"/><path d="M182.226 116.056c0-.12-.05-.215-.115-.347l-1.708-3.528c-.12-.249-.246-.342-.417-.342-.17 0-.296.093-.419.342l-1.706 3.528c-.064.135-.115.23-.115.347 0 .227.171.383.445.383l3.59-.003c.272 0 .445-.156.445-.38Z"/></mask><path fill="#fff" d="M182.226 116.056c0-.12-.05-.215-.115-.347l-1.708-3.528c-.12-.249-.246-.342-.417-.342-.17 0-.296.093-.419.342l-1.706 3.528c-.064.135-.115.23-.115.347 0 .227.171.383.445.383l3.59-.003c.272 0 .445-.156.445-.38Z"/><path fill="url(#q)" d="m182.111 115.709-.429.208.001.002.428-.21Zm-1.708-3.528-.43.207v.001l.43-.208Zm-.836 0-.428-.212-.002.004.43.208Zm-1.706 3.528-.43-.207v.001l.43.206Zm.33.73v.478-.478Zm3.59-.003v-.477.477Zm.445-.38h.477c0-.254-.114-.457-.163-.556l-.429.209-.428.21.042.086a.69.69 0 0 1 .021.049c.006.017.003.013.003.002h.477Zm-.115-.347.43-.208-1.709-3.528-.429.208-.43.208 1.709 3.528.429-.208Zm-1.708-3.528.43-.208a1.21 1.21 0 0 0-.322-.429.825.825 0 0 0-.525-.182v.955a.141.141 0 0 1-.07-.027c-.007-.006-.004-.005.008.011a.63.63 0 0 1 .049.087l.43-.207Zm-.417-.342v-.477a.827.827 0 0 0-.524.181 1.227 1.227 0 0 0-.323.426l.428.212.428.211a.64.64 0 0 1 .051-.089c.012-.016.016-.018.01-.013a.136.136 0 0 1-.039.021.164.164 0 0 1-.031.006v-.478Zm-.419.342-.43-.208-1.706 3.529.43.207.43.208 1.705-3.529-.429-.207Zm-1.706 3.528-.43-.206c-.047.097-.162.303-.162.553h.955c0 .014-.004.019.003 0a.45.45 0 0 1 .022-.051l.042-.089-.43-.207Zm-.115.347h-.477c0 .241.095.471.282.635.182.16.414.226.64.226v-.955c-.048 0-.039-.013-.01.012a.127.127 0 0 1 .043.082h-.478Zm.445.383v.478l3.591-.003-.001-.478v-.477l-3.59.003v.477Zm3.59-.003v.478a.957.957 0 0 0 .637-.224.829.829 0 0 0 .285-.634h-.954c0-.006.001-.021.01-.04a.124.124 0 0 1 .033-.046c.027-.023.035-.011-.011-.011v.477Z" mask="url(#r)"/><mask id="t" width="6" height="6" x="177.123" y="94.928" fill="#000" maskUnits="userSpaceOnUse"><path fill="#fff" d="M177.123 94.928h6v6h-6z"/><path d="M182.226 99.83c0-.12-.05-.215-.115-.347l-1.708-3.529c-.12-.248-.246-.34-.417-.34-.17 0-.296.092-.419.34l-1.706 3.53c-.064.134-.115.229-.115.346 0 .227.171.383.445.383l3.59-.003c.272 0 .445-.156.445-.38Z"/></mask><path fill="#fff" d="M182.226 99.83c0-.12-.05-.215-.115-.347l-1.708-3.529c-.12-.248-.246-.34-.417-.34-.17 0-.296.092-.419.34l-1.706 3.53c-.064.134-.115.229-.115.346 0 .227.171.383.445.383l3.59-.003c.272 0 .445-.156.445-.38Z"/><path fill="url(#s)" d="m182.111 99.483-.429.208.001.002.428-.21Zm-1.708-3.529-.43.208.43-.208Zm-.836 0-.428-.211-.002.004.43.207Zm-1.706 3.53-.43-.208v.001l.43.206Zm.33.729v.477-.477Zm3.59-.003v-.477.477Zm.445-.38h.477c0-.254-.114-.457-.163-.556l-.429.21-.428.21a17.842 17.842 0 0 1 .063.134c.006.017.003.013.003.002h.477Zm-.115-.347.43-.208-1.709-3.529-.429.209-.43.207 1.709 3.53.429-.209Zm-1.708-3.529.43-.207a1.21 1.21 0 0 0-.322-.43.823.823 0 0 0-.525-.18v.954c-.001 0-.013 0-.03-.007a.116.116 0 0 1-.04-.02c-.007-.006-.004-.005.008.01a.636.636 0 0 1 .049.088l.43-.208Zm-.417-.34v-.478a.825.825 0 0 0-.524.181 1.228 1.228 0 0 0-.323.426l.428.212.428.211a.633.633 0 0 1 .051-.089c.012-.016.016-.018.01-.013a.143.143 0 0 1-.07.027v-.478Zm-.419.34-.43-.207-1.706 3.529.43.207.43.208 1.705-3.529-.429-.208Zm-1.706 3.53-.43-.207c-.047.097-.162.303-.162.553h.955c0 .014-.004.019.003 0a.463.463 0 0 1 .022-.051l.042-.09-.43-.206Zm-.115.346h-.477c0 .24.095.471.282.635.182.16.414.225.64.225v-.954c-.048 0-.039-.013-.01.012a.133.133 0 0 1 .043.082h-.478Zm.445.383v.477l3.591-.002-.001-.478v-.477l-3.59.003v.477Zm3.59-.003v.478a.957.957 0 0 0 .637-.224.829.829 0 0 0 .285-.634h-.954c0-.006.001-.021.01-.04a.13.13 0 0 1 .033-.046c.027-.023.035-.01-.011-.01v.476Z" mask="url(#t)"/><rect width="31.793" height="20.276" x="201.939" y="18.782" fill="#0CC33D" rx="10.138"/><path fill="#fff" d="M209.528 32.92v-7.025h1.273v5.959h3.098v1.065h-4.371Zm5.05 0v-5.271h1.239v5.27h-1.239Zm.622-6.012a.719.719 0 0 1-.509-.198.626.626 0 0 1-.212-.476c0-.188.07-.349.212-.48a.719.719 0 0 1 .509-.199c.195 0 .363.067.504.198a.629.629 0 0 1 .212.477.63.63 0 0 1-.212.48.712.712 0 0 1-.504.198Zm6.242.74-1.877 5.271h-1.376l-1.872-5.27h1.325l1.221 3.917h.057l1.211-3.917h1.311Zm2.654 5.375c-.528 0-.984-.11-1.367-.33a2.246 2.246 0 0 1-.886-.943c-.205-.405-.307-.883-.307-1.433 0-.544.102-1.02.307-1.428.204-.412.491-.733.862-.962.371-.23.808-.344 1.311-.344.324 0 .63.052.919.155.293.104.55.264.773.481.227.217.404.494.533.83.129.333.193.73.193 1.193v.386h-4.318v-.834h3.701l-.58.245c0-.299-.046-.558-.137-.778a1.153 1.153 0 0 0-.405-.523 1.139 1.139 0 0 0-.67-.189 1.2 1.2 0 0 0-.683.189 1.187 1.187 0 0 0-.429.509c-.098.21-.146.446-.146.707v.58c0 .32.055.596.165.825.113.226.27.4.471.518.204.12.442.18.712.18.176 0 .336-.026.481-.076a1 1 0 0 0 .377-.226c.107-.104.189-.231.245-.382l1.16.137a1.857 1.857 0 0 1-.42.801 1.99 1.99 0 0 1-.778.528 2.965 2.965 0 0 1-1.084.184Z"/><rect width="42.793" height="20.276" x="240.732" y="18.782" fill="#1D1D1D" rx="10.138"/><path fill="#fff" d="M250.592 32.505v-4.748h1.075v4.748h-1.075Zm-1.834-1.834v-1.08h4.743v1.08h-4.743Zm5.639 2.248v-.914l2.442-2.395a12.5 12.5 0 0 0 .575-.627 2.32 2.32 0 0 0 .354-.528c.078-.173.117-.357.117-.552 0-.22-.05-.41-.15-.57a.985.985 0 0 0-.415-.368 1.331 1.331 0 0 0-.594-.127 1.25 1.25 0 0 0-.608.141 1.013 1.013 0 0 0-.406.401 1.274 1.274 0 0 0-.141.618h-1.207c0-.444.1-.829.301-1.155.205-.33.486-.587.844-.769a2.68 2.68 0 0 1 1.231-.273c.474 0 .889.088 1.244.264.356.176.632.418.83.726.198.305.297.653.297 1.046 0 .264-.05.524-.151.778-.1.252-.278.533-.532.844-.252.308-.605.68-1.061 1.117l-1.207 1.23v.053h3.055v1.06h-4.818Zm6.572.08a.744.744 0 0 1-.759-.754c0-.21.072-.388.217-.532a.735.735 0 0 1 .542-.222c.213 0 .393.074.537.221a.716.716 0 0 1 .222.533c0 .21-.074.39-.222.538a.729.729 0 0 1-.537.217Zm1.678-1.38v-1.014l2.984-4.71h.839v1.442h-.513l-2.009 3.178v.057h4.163v1.046h-5.464Zm3.347 1.3v-1.607l.019-.457v-4.96h1.198v7.024h-1.217Zm6.61-1.32v-.367c0-.274.056-.525.17-.755a1.33 1.33 0 0 1 .504-.551c.223-.138.494-.208.811-.208.324 0 .596.07.816.208.22.138.385.322.495.551.113.227.169.478.169.755v.367c0 .274-.056.525-.169.755-.114.23-.28.413-.5.551-.22.139-.49.208-.811.208-.321 0-.592-.07-.816-.208a1.331 1.331 0 0 1-.504-.551 1.725 1.725 0 0 1-.165-.755Zm.891-.367v.367c0 .183.044.35.132.5.088.151.242.226.462.226.217 0 .368-.075.453-.226a1.01 1.01 0 0 0 .127-.5v-.367a1.03 1.03 0 0 0-.123-.5c-.078-.15-.231-.226-.457-.226-.217 0-.371.075-.462.226a.974.974 0 0 0-.132.5Zm-4.46-3.65v-.367c0-.277.058-.528.175-.754.116-.23.284-.414.504-.552.22-.138.487-.207.801-.207.327 0 .601.069.821.207.22.138.386.322.499.552a1.6 1.6 0 0 1 .165.754v.368c.004.273-.053.525-.169.754-.117.23-.285.413-.505.552-.22.135-.49.202-.811.202-.32 0-.59-.069-.81-.207a1.342 1.342 0 0 1-.5-.552 1.675 1.675 0 0 1-.17-.75Zm.901-.367v.368a1 1 0 0 0 .127.5c.085.15.236.224.452.221.224.003.376-.07.458-.222a1 1 0 0 0 .127-.5v-.367a1.03 1.03 0 0 0-.123-.5c-.078-.154-.232-.23-.462-.23-.213 0-.364.076-.452.23-.085.154-.127.32-.127.5Zm-.514 5.704 4.827-7.024h.863l-4.828 7.024h-.862Z"/><defs><linearGradient id="b" x1="151.094" x2="151.094" y1="34.919" y2="229.273" gradientUnits="userSpaceOnUse"><stop stop-color="#406AE4"/><stop offset="1" stop-color="#406AE4" stop-opacity="0"/></linearGradient><linearGradient id="c" x1="49.892" x2="302.374" y1="34.919" y2="92.728" gradientUnits="userSpaceOnUse"><stop stop-color="#406AE4"/><stop offset="1" stop-color="#3B82F6"/></linearGradient><linearGradient id="d" x1="180.463" x2="180.463" y1="51.977" y2="220.917" gradientUnits="userSpaceOnUse"><stop offset=".01" stop-color="#fff" stop-opacity="0"/><stop offset=".281" stop-color="#fff"/><stop offset=".667" stop-color="#fff"/><stop offset=".984" stop-color="#fff" stop-opacity="0"/></linearGradient><linearGradient id="f" x1="172.834" x2="190.645" y1="72.41" y2="74.981" gradientUnits="userSpaceOnUse"><stop stop-color="#323232"/><stop offset="1"/></linearGradient><linearGradient id="g" x1="178.052" x2="183.098" y1="192.282" y2="192.681" gradientUnits="userSpaceOnUse"><stop stop-color="#406AE4"/><stop offset="1" stop-color="#3B82F6"/></linearGradient><linearGradient id="i" x1="178.052" x2="183.098" y1="159.831" y2="160.23" gradientUnits="userSpaceOnUse"><stop stop-color="#406AE4"/><stop offset="1" stop-color="#3B82F6"/></linearGradient><linearGradient id="k" x1="178.052" x2="183.098" y1="127.38" y2="127.778" gradientUnits="userSpaceOnUse"><stop stop-color="#406AE4"/><stop offset="1" stop-color="#3B82F6"/></linearGradient><linearGradient id="m" x1="178.052" x2="183.098" y1="176.057" y2="176.456" gradientUnits="userSpaceOnUse"><stop stop-color="#406AE4"/><stop offset="1" stop-color="#3B82F6"/></linearGradient><linearGradient id="o" x1="178.052" x2="183.098" y1="143.606" y2="144.004" gradientUnits="userSpaceOnUse"><stop stop-color="#406AE4"/><stop offset="1" stop-color="#3B82F6"/></linearGradient><linearGradient id="q" x1="178.052" x2="183.098" y1="111.154" y2="111.553" gradientUnits="userSpaceOnUse"><stop stop-color="#406AE4"/><stop offset="1" stop-color="#3B82F6"/></linearGradient><linearGradient id="s" x1="178.052" x2="183.098" y1="94.928" y2="95.327" gradientUnits="userSpaceOnUse"><stop stop-color="#406AE4"/><stop offset="1" stop-color="#3B82F6"/></linearGradient><clipPath id="a" transform="translate(29.078 30)"><rect width="300.016" height="245.04" x=".922" rx="16"/></clipPath><filter id="e" width="42.951" height="42.95" x="158.988" y="61.522" color-interpolation-filters="sRGB" filterUnits="userSpaceOnUse"><feFlood flood-opacity="0" result="BackgroundImageFix"/><feColorMatrix in="SourceAlpha" result="hardAlpha" values="0 0 0 0 0 0 0 0 0 0 0 0 0 0 0 0 0 0 127 0"/><feOffset dy="2.386"/><feGaussianBlur stdDeviation="5.965"/><feColorMatrix values="0 0 0 0 0 0 0 0 0 0 0 0 0 0 0 0 0 0 0.1 0"/><feBlend in2="BackgroundImageFix" result="effect1_dropShadow_214_568"/><feBlend in="SourceGraphic" in2="effect1_dropShadow_214_568" result="shape"/></filter></defs></svg>