<svg xmlns="http://www.w3.org/2000/svg" width="130" height="31" fill="none"><g clip-path="url(#a)"><mask id="b" width="130" height="31" x="0" y="0" maskUnits="userSpaceOnUse" style="mask-type:luminance"><path fill="#fff" d="M130 0H0v31h130V0Z"/></mask><g mask="url(#b)"><mask id="c" width="130" height="31" x="0" y="0" maskUnits="userSpaceOnUse" style="mask-type:luminance"><path fill="#fff" d="M130 0H0v31h130V0Z"/></mask><g mask="url(#c)"><mask id="d" width="130" height="31" x="0" y="0" maskUnits="userSpaceOnUse" style="mask-type:luminance"><path fill="#fff" d="M130 0H0v30.083h130V0Z"/></mask><g mask="url(#d)"><mask id="e" width="130" height="31" x="0" y="0" maskUnits="userSpaceOnUse" style="mask-type:luminance"><path fill="#fff" d="M130 0H0v30.083h130V0Z"/></mask><g mask="url(#e)"><mask id="f" width="130" height="31" x="0" y="0" maskUnits="userSpaceOnUse" style="mask-type:luminance"><path fill="#fff" d="M130 0H0v30.083h130V0Z"/></mask><g mask="url(#f)"><mask id="g" width="130" height="31" x="0" y="0" maskUnits="userSpaceOnUse" style="mask-type:luminance"><path fill="#fff" d="M129.69 0H0v30.083h129.69V0Z"/></mask><g fill="#4D585F" mask="url(#g)"><path d="M14.946 30.08c8.254 0 14.946-6.69 14.946-14.945C29.892 6.88 23.2.189 14.946.189S0 6.88 0 15.135C0 23.389 6.692 30.08 14.946 30.08Z"/><path fill-rule="evenodd" d="M36.957 3.76V-.001h19.004v3.763h-7.336v22.272h-4.257V3.76h-7.411Zm20.04 5.322c1.317-1.647 3.496-2.47 6.537-2.47 3.04 0 5.207.823 6.499 2.47 1.317 1.647 1.976 4.117 1.976 7.411 0 3.294-.633 5.777-1.9 7.45-1.267 1.671-3.458 2.508-6.575 2.508s-5.308-.837-6.575-2.509c-1.267-1.672-1.9-4.155-1.9-7.449 0-3.294.646-5.764 1.938-7.411Zm3.116 12.352c.583 1.013 1.724 1.52 3.421 1.52 1.698 0 2.838-.507 3.42-1.52.583-1.014.875-2.673.875-4.98 0-2.305-.317-3.939-.95-4.902-.608-.963-1.724-1.444-3.345-1.444-1.622 0-2.75.481-3.383 1.444-.608.963-.912 2.597-.912 4.903 0 2.306.292 3.965.874 4.979Zm16.012 4.599h4.142v-7.754l2.47-.266 4.638 8.02h4.674l-5.777-10.11 5.473-8.894H87.11l-4.485 7.412-2.357.228V-.001h-4.142v26.034ZM93.342 7.029h4.067l4.029 15.469h1.026l4.029-15.469h4.105l-6.126 23.052h-4.012l1.13-4.048h-3.269L93.342 7.029Zm27.685-.418c-3.041 0-5.219.824-6.538 2.47-1.292 1.648-1.938 4.118-1.938 7.412 0 3.294.634 5.777 1.901 7.45 1.266 1.671 3.458 2.508 6.575 2.508 3.116 0 5.307-.837 6.575-2.509 1.267-1.672 1.9-4.155 1.9-7.449 0-3.294-.659-5.764-1.976-7.411-1.293-1.647-3.459-2.47-6.499-2.47Zm0 16.343c-1.699 0-2.839-.507-3.421-1.52-.583-1.014-.875-2.673-.875-4.98 0-2.305.305-3.939.913-4.902.634-.963 1.761-1.444 3.383-1.444 1.621 0 2.736.481 3.344 1.444.633.963.95 2.597.95 4.903 0 2.306-.291 3.965-.874 4.979-.583 1.013-1.723 1.52-3.42 1.52Z" clip-rule="evenodd"/></g></g></g></g></g></g></g><defs><clipPath id="a"><path fill="#fff" d="M0 0h130v31H0z"/></clipPath></defs></svg>