<svg xmlns="http://www.w3.org/2000/svg" width="280" height="70" fill="none"><rect width="279.067" height="68.817" x=".467" y=".467" fill="#fff" stroke="#DDE5ED" stroke-width=".933" rx="8.867"/><rect width="279.067" height="68.817" x=".467" y=".467" fill="#fff" stroke="#DDE5ED" stroke-width=".933" rx="8.867"/><rect width="46.667" height="46.667" x="9.745" y="11.355" fill="url(#a)" rx="9.333"/><path fill="#FDD947" d="M33.079 46.82c6.7 0 12.13-5.431 12.13-12.13 0-6.7-5.43-12.131-12.13-12.131-6.7 0-12.13 5.43-12.13 12.13 0 6.7 5.43 12.13 12.13 12.13Z"/><path fill="url(#b)" d="M44.479 38.845a12.163 12.163 0 0 1-7.284 7.258l-5.197-5.196-.455-1.12V33.64l.237-.724.825-.737.897.018-1.394-1.395-.432-.796.148-1.063 1.037-.835 1.12.237 10.498 10.499Z"/><path fill="#fff" d="M34.615 33.642a1.536 1.536 0 0 0-3.072 0v6.145a1.536 1.536 0 1 0 3.072 0v-6.145Zm-1.535-2.515a1.536 1.536 0 1 0 0-3.072 1.536 1.536 0 0 0 0 3.072Z"/><path fill="#4D585F" d="M67.566 26.691v-9.506h3.617c1.017 0 1.823.266 2.419.797.595.532.893 1.253.893 2.163 0 .664-.17 1.23-.51 1.697-.34.464-.807.802-1.398 1.015l2.055 3.834h-1.596l-1.894-3.598h-2.17v3.598h-1.416Zm1.416-4.804h2.144c.613 0 1.093-.155 1.442-.466.353-.314.53-.74.53-1.276s-.177-.959-.53-1.27c-.353-.31-.836-.465-1.448-.465h-2.138v3.477Zm6.82 4.804v-6.737h1.347v6.737h-1.346Zm.67-7.898a.848.848 0 0 1-.605-.236.8.8 0 0 1-.243-.587c0-.234.081-.43.243-.587a.836.836 0 0 1 .606-.243c.238 0 .44.081.606.243a.776.776 0 0 1 .249.587.79.79 0 0 1-.25.587.848.848 0 0 1-.605.236Zm4.697 8.058a3.7 3.7 0 0 1-1.391-.249 2.355 2.355 0 0 1-1.002-.74c-.251-.327-.391-.734-.421-1.219h1.327c.076.758.564 1.136 1.461 1.136.425 0 .761-.087 1.008-.262.251-.174.377-.395.377-.663 0-.23-.09-.413-.268-.549a1.722 1.722 0 0 0-.702-.306l-1.117-.249c-1.289-.28-1.933-.923-1.933-1.927 0-.595.236-1.08.708-1.454.477-.375 1.1-.562 1.87-.562.761 0 1.386.198 1.875.594.494.39.749.927.766 1.607h-1.289a1.05 1.05 0 0 0-.37-.81c-.242-.217-.563-.325-.963-.325-.383 0-.687.089-.913.268-.225.178-.338.397-.338.657 0 .23.085.415.255.555.175.14.413.244.715.313l1.148.255c.656.144 1.138.368 1.449.67.31.302.465.697.465 1.186 0 .43-.119.8-.357 1.11a2.286 2.286 0 0 1-.963.715 3.687 3.687 0 0 1-1.397.249Zm3.91-.16v-9.506h1.347v5.646h.019l2.871-2.877h1.672l-2.852 2.896 3.043 3.841h-1.652l-2.418-3.03-.683.663v2.367H85.08Zm12.806.154c-.668 0-1.242-.151-1.723-.453a3.015 3.015 0 0 1-1.104-1.245c-.255-.531-.383-1.135-.383-1.812 0-.684.134-1.293.402-1.824a3.11 3.11 0 0 1 1.11-1.25c.473-.307 1.015-.46 1.627-.46.639 0 1.192.149 1.66.446.471.298.837.713 1.097 1.244.259.528.389 1.138.389 1.832v.363h-4.957c.025.609.2 1.1.523 1.474.327.375.787.562 1.378.562.442 0 .806-.1 1.09-.3.286-.2.475-.46.569-.779h1.295a2.447 2.447 0 0 1-.542 1.149 2.845 2.845 0 0 1-1.047.778 3.409 3.409 0 0 1-1.384.274Zm-1.87-4.18h3.63c-.055-.535-.244-.959-.567-1.27-.324-.314-.74-.471-1.25-.471-.511 0-.928.157-1.251.472-.32.31-.506.734-.562 1.27Zm5.226 4.026 2.482-3.432-2.329-3.305h1.537l.804 1.2.377.586c.127.192.251.385.37.581l.376-.58c.124-.192.253-.388.389-.588l.817-1.2h1.512l-2.335 3.287 2.45 3.451h-1.538l-.937-1.365-.377-.574a59.281 59.281 0 0 1-.364-.562c-.123.188-.248.375-.376.562-.123.187-.249.378-.376.574l-.957 1.365h-1.525Zm7.369 2.667v-9.404h1.321v.97h.019c.212-.37.504-.647.874-.83.37-.183.774-.274 1.212-.274.578 0 1.087.149 1.525.447.438.293.778.704 1.021 1.23.246.524.37 1.132.37 1.826 0 .693-.121 1.303-.364 1.83a2.948 2.948 0 0 1-1.021 1.232c-.438.294-.95.44-1.537.44a2.45 2.45 0 0 1-1.187-.287 2.253 2.253 0 0 1-.868-.861h-.019v3.681h-1.346Zm3.145-3.694c.545 0 .985-.2 1.321-.6.34-.4.51-.98.51-1.741 0-.762-.17-1.342-.51-1.742-.336-.404-.776-.606-1.321-.606-.574 0-1.033.214-1.378.644-.34.425-.51.993-.51 1.704 0 .706.17 1.274.51 1.703.345.425.804.638 1.378.638Zm7.28 1.18c-.642 0-1.206-.148-1.691-.446a3.069 3.069 0 0 1-1.135-1.238c-.268-.527-.402-1.136-.402-1.825 0-.697.134-1.31.402-1.837.272-.532.65-.947 1.135-1.244.485-.302 1.049-.453 1.691-.453.642 0 1.204.15 1.684.453a3.02 3.02 0 0 1 1.13 1.244c.272.527.408 1.14.408 1.837 0 .69-.136 1.298-.408 1.825a3.03 3.03 0 0 1-1.13 1.238c-.48.298-1.042.447-1.684.447Zm0-1.16c.579 0 1.034-.213 1.365-.639.332-.425.498-.995.498-1.71 0-.723-.168-1.299-.504-1.729-.332-.43-.785-.644-1.359-.644s-1.029.215-1.365.644c-.332.426-.498 1.002-.498 1.73 0 .718.166 1.29.498 1.716.331.42.787.631 1.365.631Zm6.91 1.167a3.7 3.7 0 0 1-1.391-.249 2.352 2.352 0 0 1-1.002-.74c-.251-.327-.391-.734-.421-1.219h1.327c.077.758.564 1.136 1.461 1.136.426 0 .762-.087 1.008-.262.251-.174.377-.395.377-.663a.653.653 0 0 0-.268-.549 1.726 1.726 0 0 0-.702-.306l-1.116-.249c-1.289-.28-1.934-.923-1.934-1.927 0-.595.236-1.08.709-1.454.476-.375 1.099-.562 1.869-.562.761 0 1.387.198 1.876.594.493.39.748.927.765 1.607h-1.288a1.052 1.052 0 0 0-.371-.81c-.242-.217-.563-.325-.963-.325-.383 0-.687.089-.912.268-.226.178-.338.397-.338.657 0 .23.085.415.255.555.174.14.412.244.714.313l1.149.255c.655.144 1.138.368 1.448.67.311.302.466.697.466 1.186 0 .43-.119.8-.357 1.11-.234.307-.556.545-.964.715a3.685 3.685 0 0 1-1.397.249Zm6.348-.026c-.459 0-.874-.1-1.244-.3a2.226 2.226 0 0 1-.874-.9c-.213-.395-.319-.886-.319-1.473v-4.198h1.346v4.032c0 .54.13.949.389 1.225.26.272.623.409 1.091.409.455 0 .838-.14 1.149-.422.315-.285.472-.74.472-1.365v-3.88h1.346v6.738h-1.321v-1.014c-.459.766-1.137 1.148-2.035 1.148Zm4.875-.134v-6.737h1.288v1.09h.026c.123-.37.317-.656.581-.86.268-.209.616-.313 1.046-.313.102 0 .196.004.281.013l.21.019v1.257a2.151 2.151 0 0 0-.274-.038 3.415 3.415 0 0 0-.434-.026c-.379 0-.704.132-.976.395-.268.264-.402.67-.402 1.22v3.98h-1.346Zm7.216.154c-.668 0-1.242-.151-1.723-.453a3.022 3.022 0 0 1-1.104-1.245c-.255-.531-.383-1.135-.383-1.812 0-.684.134-1.293.402-1.824a3.106 3.106 0 0 1 1.111-1.25c.472-.307 1.014-.46 1.626-.46.638 0 1.191.149 1.659.446.472.298.838.713 1.098 1.244.259.528.389 1.138.389 1.832v.363h-4.958c.026.609.2 1.1.524 1.474.327.375.787.562 1.378.562.442 0 .806-.1 1.091-.3.285-.2.474-.46.568-.779h1.295a2.447 2.447 0 0 1-.542 1.149 2.846 2.846 0 0 1-1.047.778 3.408 3.408 0 0 1-1.384.274Zm-1.87-4.18h3.631c-.056-.535-.245-.959-.568-1.27-.324-.314-.74-.471-1.251-.471-.51 0-.927.157-1.25.472-.319.31-.506.734-.562 1.27Zm11.28 4.135c-.672 0-1.229-.17-1.671-.51-.443-.345-.664-.853-.664-1.525 0-.51.126-.902.377-1.174.255-.277.585-.475.989-.594.408-.119.84-.206 1.295-.261a66.64 66.64 0 0 0 1.002-.128c.246-.034.421-.085.523-.153.106-.068.159-.185.159-.351v-.057a1.02 1.02 0 0 0-.357-.804c-.238-.213-.572-.32-1.002-.32-.429 0-.78.105-1.052.313-.273.204-.422.462-.447.772h-1.321c.03-.642.3-1.167.81-1.576.511-.408 1.187-.612 2.029-.612.83 0 1.483.204 1.959.612.477.409.715.955.715 1.64v4.62h-1.327v-.958h-.026c-.14.273-.364.52-.67.74-.302.217-.742.326-1.321.326Zm.275-1.085c.595 0 1.033-.153 1.314-.46.285-.31.428-.671.428-1.084v-.79c-.09.071-.292.137-.607.197-.314.055-.65.108-1.008.16-.37.055-.695.159-.976.312-.28.153-.421.4-.421.74 0 .29.113.517.338.683.23.161.54.242.932.242Zm5.933-8.53v9.506h-1.346v-9.506h1.346Zm4.403 9.66c-.668 0-1.242-.151-1.723-.453a3.022 3.022 0 0 1-1.104-1.245c-.255-.531-.382-1.135-.382-1.812 0-.684.133-1.293.401-1.824a3.106 3.106 0 0 1 1.111-1.25c.472-.307 1.014-.46 1.627-.46.638 0 1.191.149 1.658.446.473.298.838.713 1.098 1.244.259.528.389 1.138.389 1.832v.363h-4.957c.025.609.2 1.1.523 1.474.327.375.787.562 1.378.562.442 0 .806-.1 1.091-.3.285-.2.474-.46.568-.779h1.295a2.447 2.447 0 0 1-.542 1.149 2.846 2.846 0 0 1-1.047.778 3.408 3.408 0 0 1-1.384.274Zm-1.87-4.18h3.631c-.056-.535-.245-.959-.568-1.27-.323-.314-.74-.471-1.251-.471-.51 0-.927.157-1.25.472-.319.31-.506.734-.562 1.27Zm6.113 4.026v-6.737h1.288v1.09h.026c.123-.37.317-.656.581-.86.267-.209.616-.313 1.046-.313.102 0 .196.004.281.013l.21.019v1.257a2.151 2.151 0 0 0-.274-.038 3.415 3.415 0 0 0-.434-.026c-.379 0-.704.132-.976.395-.268.264-.402.67-.402 1.22v3.98h-1.346Zm7.917-6.737v1.11H175.2v3.847c0 .251.051.426.153.523.102.098.287.147.555.147h.657v1.11h-.848c-1.246 0-1.87-.535-1.87-1.607v-4.02h-1.186v-1.11h1.186v-1.838h1.353v1.838h1.365Z"/><path fill="#1D1D1D" d="M67.674 51.293V42.63h1.731v8.663h-1.73Zm.862-10.155a1.09 1.09 0 0 1-.78-.304 1.028 1.028 0 0 1-.311-.755c0-.3.104-.552.311-.754.214-.208.474-.312.78-.312.306 0 .566.104.779.312.213.202.32.453.32.754 0 .296-.107.547-.32.755a1.09 1.09 0 0 1-.78.303Zm4.56 5.168v4.987h-1.73V42.63h1.698v1.305c.59-.985 1.463-1.477 2.617-1.477.596 0 1.129.132 1.6.394.475.257.85.64 1.123 1.148.273.509.41 1.14.41 1.895v5.398h-1.73v-5.184c0-.695-.167-1.217-.501-1.567-.334-.356-.798-.533-1.394-.533-.591 0-1.089.183-1.493.55-.4.36-.6.943-.6 1.747Zm11.378 5.184c-.825 0-1.55-.192-2.173-.574a3.914 3.914 0 0 1-1.444-1.592c-.345-.683-.517-1.465-.517-2.346 0-.891.172-1.679.517-2.362a3.958 3.958 0 0 1 1.452-1.6c.618-.388 1.34-.582 2.165-.582.69 0 1.305.136 1.846.41.547.268.99.64 1.329 1.115.34.476.544 1.02.615 1.633h-1.722a2.037 2.037 0 0 0-.657-1.198c-.35-.312-.817-.467-1.402-.467-.75 0-1.335.276-1.756.828-.42.552-.632 1.293-.632 2.223 0 .919.211 1.652.632 2.199.421.546 1.006.82 1.756.82.596 0 1.055-.15 1.378-.451.322-.306.541-.714.656-1.223h1.747a3.417 3.417 0 0 1-.607 1.625 3.622 3.622 0 0 1-1.329 1.132c-.547.273-1.165.41-1.854.41Zm5.267-.197V42.63h1.657v1.403h.033c.158-.476.407-.845.746-1.107.345-.268.793-.402 1.345-.402.132 0 .252.005.361.016.11.011.2.02.271.025v1.616a2.804 2.804 0 0 0-.353-.05 4.391 4.391 0 0 0-.557-.032c-.487 0-.906.17-1.255.508-.345.34-.517.862-.517 1.567v5.119H89.74Zm9.278.197c-.859 0-1.597-.194-2.215-.583a3.876 3.876 0 0 1-1.42-1.6c-.328-.683-.492-1.46-.492-2.329 0-.88.173-1.662.517-2.346a4 4 0 0 1 1.427-1.608c.608-.394 1.305-.59 2.092-.59.82 0 1.532.191 2.133.574a3.831 3.831 0 0 1 1.411 1.6c.334.678.5 1.462.5 2.354v.467h-6.373c.032.782.257 1.414.672 1.895.421.482 1.012.722 1.772.722.569 0 1.036-.128 1.403-.386.366-.256.61-.59.73-1h1.665a3.135 3.135 0 0 1-.697 1.476c-.356.427-.804.76-1.345 1.001a4.384 4.384 0 0 1-1.78.353Zm-2.404-5.373h4.668c-.071-.69-.315-1.233-.73-1.633-.416-.404-.952-.607-1.608-.607-.656 0-1.192.203-1.608.607-.41.4-.65.944-.722 1.633Zm10.598 5.315c-.864 0-1.58-.218-2.149-.656-.568-.443-.853-1.096-.853-1.96 0-.657.161-1.16.484-1.51.328-.355.752-.61 1.272-.763.525-.153 1.08-.265 1.665-.336.541-.066.971-.12 1.288-.164.317-.044.541-.11.672-.197.137-.087.205-.238.205-.451v-.074a1.31 1.31 0 0 0-.459-1.033c-.306-.274-.735-.41-1.288-.41-.552 0-1.003.133-1.353.401-.35.263-.542.594-.575.993h-1.698c.039-.826.386-1.501 1.042-2.026.656-.525 1.526-.788 2.609-.788 1.066 0 1.906.263 2.518.788.613.525.919 1.227.919 2.108v5.939h-1.706v-1.23h-.033c-.181.35-.468.667-.861.951-.389.279-.955.418-1.699.418Zm.353-1.394c.766 0 1.329-.197 1.69-.59a2 2 0 0 0 .55-1.395v-1.017c-.115.093-.375.177-.78.254-.404.07-.836.14-1.296.205a3.76 3.76 0 0 0-1.255.402c-.361.197-.541.514-.541.951 0 .372.145.665.435.878.295.208.694.312 1.197.312Zm9.106 1.46c-.662 0-1.258-.107-1.789-.32a3.026 3.026 0 0 1-1.287-.951c-.323-.421-.504-.944-.542-1.567h1.706c.099.973.725 1.46 1.879 1.46.547 0 .979-.112 1.296-.336.323-.225.484-.509.484-.853a.841.841 0 0 0-.345-.706c-.229-.18-.53-.312-.902-.394l-1.435-.32c-1.658-.36-2.486-1.186-2.486-2.477 0-.766.303-1.39.911-1.87.612-.482 1.413-.722 2.403-.722.979 0 1.783.254 2.412.763.634.503.962 1.192.984 2.067h-1.657a1.348 1.348 0 0 0-.476-1.042c-.311-.279-.724-.418-1.238-.418-.493 0-.884.115-1.173.344-.29.23-.435.512-.435.845a.88.88 0 0 0 .328.714c.224.18.53.314.919.402l1.476.328c.842.186 1.463.473 1.862.861.4.389.599.897.599 1.526 0 .552-.153 1.028-.459 1.427-.301.394-.714.7-1.239.92-.525.212-1.124.319-1.796.319Zm8.728-.008c-.859 0-1.597-.194-2.215-.583a3.868 3.868 0 0 1-1.419-1.6c-.328-.683-.492-1.46-.492-2.329 0-.88.172-1.662.516-2.346a4.005 4.005 0 0 1 1.428-1.608c.607-.394 1.304-.59 2.092-.59.82 0 1.531.191 2.132.574a3.824 3.824 0 0 1 1.411 1.6c.334.678.501 1.462.501 2.354v.467h-6.374c.033.782.257 1.414.673 1.895.421.482 1.011.722 1.771.722.569 0 1.037-.128 1.403-.386.367-.256.61-.59.73-1h1.665a3.125 3.125 0 0 1-.697 1.476c-.355.427-.804.76-1.345 1.001a4.381 4.381 0 0 1-1.78.353Zm-2.404-5.373h4.668c-.071-.69-.315-1.233-.73-1.633-.416-.404-.952-.607-1.608-.607-.656 0-1.192.203-1.608.607-.41.4-.651.944-.722 1.633Zm11.189 5.348c-.754 0-1.413-.188-1.977-.566-.563-.383-1-.91-1.312-1.583-.312-.678-.468-1.463-.468-2.354 0-.892.156-1.674.468-2.346.317-.678.757-1.206 1.321-1.584.563-.382 1.216-.574 1.96-.574a3.37 3.37 0 0 1 1.542.353 2.67 2.67 0 0 1 1.116 1.075h.016V39.07h1.731v12.223h-1.698v-1.32h-.016c-.29.502-.67.877-1.14 1.123-.465.246-.979.37-1.543.37Zm.353-1.493c.738 0 1.326-.273 1.764-.82.443-.552.664-1.282.664-2.19 0-.914-.221-1.644-.664-2.19-.438-.553-1.026-.829-1.764-.829-.7 0-1.269.26-1.706.78-.432.513-.648 1.26-.648 2.239 0 .979.216 1.725.648 2.24.437.513 1.006.77 1.706.77Zm13.584-.697v-3.273h-3.232v-1.51h3.232v-3.264h1.575v3.265h3.241v1.509h-3.241v3.273h-1.575Zm11.263-10.205v12.223h-1.763V40.859h-.009l-2.985 1.952v-1.74l3.043-2h1.714Zm6.103 12.42c-.847 0-1.596-.148-2.247-.443-.645-.295-1.151-.703-1.518-1.222a3.028 3.028 0 0 1-.549-1.789 3.118 3.118 0 0 1 1.312-2.584c.41-.29.875-.467 1.395-.533-.673-.126-1.22-.435-1.641-.927-.421-.492-.632-1.102-.632-1.83 0-.633.167-1.197.501-1.689a3.411 3.411 0 0 1 1.378-1.173c.585-.284 1.252-.427 2.001-.427.75 0 1.414.143 1.994.427a3.358 3.358 0 0 1 1.378 1.165c.334.497.5 1.063.5 1.698 0 .722-.213 1.332-.639 1.83a2.75 2.75 0 0 1-1.625.926c.52.071.982.252 1.387.542.41.284.732.65.968 1.099a3.1 3.1 0 0 1 .352 1.476c0 .673-.183 1.27-.549 1.789-.367.52-.875.927-1.526 1.222-.651.295-1.397.443-2.24.443Zm0-1.485c.755 0 1.359-.189 1.813-.566.454-.377.681-.88.681-1.51 0-.64-.235-1.164-.705-1.574-.465-.416-1.061-.624-1.789-.624-.732 0-1.334.208-1.804.624-.471.41-.706.935-.706 1.575 0 .623.227 1.126.681 1.51.46.376 1.069.565 1.829.565Zm0-5.742c.629 0 1.138-.178 1.526-.533.394-.361.591-.837.591-1.428 0-.58-.194-1.047-.583-1.402-.388-.356-.899-.534-1.534-.534-.639 0-1.153.178-1.542.534-.388.355-.582.823-.582 1.402 0 .586.194 1.059.582 1.42.394.36.908.54 1.542.54Zm15.98 7.227c-.53 0-.992-.123-1.386-.37a2.563 2.563 0 0 1-.927-1.017c-.219-.431-.328-.924-.328-1.476v-.246c0-.553.109-1.045.328-1.477.224-.432.533-.77.927-1.017.394-.246.856-.369 1.386-.369.525 0 .985.123 1.378.37.394.245.7.584.919 1.016.224.432.336.924.336 1.477v.246c0 .552-.112 1.044-.336 1.476a2.509 2.509 0 0 1-.919 1.018c-.393.246-.853.369-1.378.369Zm-7.292-6.645c-.525 0-.988-.123-1.387-.369a2.507 2.507 0 0 1-.918-1.017c-.219-.432-.329-.924-.329-1.477v-.246c0-.552.11-1.044.329-1.476.218-.432.525-.771.918-1.017.399-.247.862-.37 1.387-.37.53 0 .992.123 1.386.37.394.246.7.585.919 1.017.218.432.328.924.328 1.476v.246c0 .553-.11 1.045-.328 1.477a2.509 2.509 0 0 1-.919 1.017c-.394.246-.856.37-1.386.37Zm-1.354 6.448 8.4-12.223h1.55l-8.4 12.223h-1.55Zm8.646-1.017c.372 0 .667-.142.886-.427.219-.29.328-.697.328-1.222v-.246c0-.525-.109-.933-.328-1.222a1.053 1.053 0 0 0-.886-.435c-.377 0-.678.145-.902.435-.219.29-.328.697-.328 1.222v.246c0 .525.109.932.328 1.222.224.285.525.427.902.427Zm-7.292-6.637c.377 0 .675-.145.894-.434.218-.29.328-.698.328-1.223v-.246c0-.525-.11-.932-.328-1.222a1.06 1.06 0 0 0-.894-.435c-.372 0-.67.145-.895.435-.218.29-.328.697-.328 1.222v.246c0 .525.11.933.328 1.223.225.29.523.434.895.434Zm20.146-1.009v1.428h-1.755v4.946c0 .323.066.547.197.673s.369.189.714.189h.844v1.427h-1.091c-1.602 0-2.403-.69-2.403-2.067v-5.168h-1.526V42.63h1.526v-2.362h1.739v2.362h1.755Zm3.101 3.675v4.988h-1.731V39.07h1.731v4.807c.596-.946 1.458-1.419 2.584-1.419.596 0 1.13.132 1.6.394.476.257.85.64 1.124 1.148.273.509.41 1.14.41 1.895v5.398h-1.731v-5.184c0-.695-.167-1.217-.5-1.567-.334-.356-.799-.533-1.395-.533-.591 0-1.088.183-1.493.55-.399.36-.599.943-.599 1.747Zm7.67 4.988V42.63h1.731v8.663h-1.731Zm.861-10.155a1.09 1.09 0 0 1-.779-.304 1.027 1.027 0 0 1-.312-.755c0-.3.104-.552.312-.754.213-.208.473-.312.779-.312.307 0 .567.104.78.312a1 1 0 0 1 .32.754c0 .296-.107.547-.32.755a1.09 1.09 0 0 1-.78.303Zm6.038 10.36c-.662 0-1.258-.107-1.788-.32a3.023 3.023 0 0 1-1.288-.951c-.323-.421-.503-.944-.542-1.567h1.707c.098.973.724 1.46 1.878 1.46.547 0 .979-.112 1.296-.336.323-.225.484-.509.484-.853a.843.843 0 0 0-.344-.706c-.23-.18-.531-.312-.903-.394l-1.435-.32c-1.657-.36-2.486-1.186-2.486-2.477 0-.766.304-1.39.911-1.87.612-.482 1.414-.722 2.403-.722.979 0 1.783.254 2.412.763.634.503.963 1.192.984 2.067h-1.657a1.35 1.35 0 0 0-.475-1.042c-.312-.279-.725-.418-1.239-.418-.492 0-.883.115-1.173.344-.29.23-.435.512-.435.845 0 .296.11.533.328.714.224.18.531.314.919.402l1.477.328c.842.186 1.462.473 1.862.861.399.389.599.897.599 1.526 0 .552-.154 1.028-.46 1.427-.301.394-.714.7-1.239.92-.525.212-1.123.319-1.796.319Zm10.935-.205-2.683-8.663h1.813l.993 3.544c.147.525.287 1.061.418 1.608.137.547.271 1.088.402 1.624a109.6 109.6 0 0 0 .418-1.624c.143-.547.285-1.083.427-1.608l1.009-3.544h1.649l.992 3.544c.148.52.29 1.05.427 1.592.137.541.273 1.077.41 1.607.131-.53.263-1.066.394-1.607a59.14 59.14 0 0 1 .426-1.592l1.001-3.544h1.83l-2.683 8.663h-1.805l-1.099-3.773a56.016 56.016 0 0 1-.369-1.346l-.344-1.37c-.121.454-.241.91-.361 1.37-.115.46-.238.908-.37 1.346l-1.115 3.773h-1.78Zm14.527.197c-.858 0-1.596-.194-2.214-.583a3.877 3.877 0 0 1-1.42-1.6c-.328-.683-.492-1.46-.492-2.329 0-.88.173-1.662.517-2.346.345-.684.82-1.22 1.427-1.608.607-.394 1.305-.59 2.092-.59.821 0 1.531.191 2.133.574a3.831 3.831 0 0 1 1.411 1.6c.334.678.5 1.462.5 2.354v.467h-6.373c.032.782.257 1.414.672 1.895.421.482 1.012.722 1.772.722.569 0 1.036-.128 1.403-.386.366-.256.61-.59.73-1h1.665a3.135 3.135 0 0 1-.697 1.476c-.356.427-.804.76-1.345 1.001a4.386 4.386 0 0 1-1.781.353Zm-2.403-5.373h4.668c-.072-.69-.315-1.233-.731-1.633-.415-.404-.951-.607-1.607-.607-.657 0-1.193.203-1.608.607-.41.4-.651.944-.722 1.633Zm11.558 5.373c-.858 0-1.597-.194-2.215-.583a3.882 3.882 0 0 1-1.419-1.6c-.328-.683-.492-1.46-.492-2.329 0-.88.172-1.662.517-2.346.344-.684.82-1.22 1.427-1.608.607-.394 1.304-.59 2.092-.59.82 0 1.531.191 2.133.574a3.831 3.831 0 0 1 1.411 1.6c.333.678.5 1.462.5 2.354v.467h-6.374c.033.782.257 1.414.673 1.895.421.482 1.012.722 1.772.722.569 0 1.036-.128 1.403-.386.366-.256.609-.59.73-1h1.665a3.135 3.135 0 0 1-.697 1.476c-.356.427-.804.76-1.346 1.001a4.381 4.381 0 0 1-1.78.353Zm-2.403-5.373h4.667c-.071-.69-.314-1.233-.73-1.633-.415-.404-.951-.607-1.608-.607-.656 0-1.192.203-1.607.607-.411.4-.651.944-.722 1.633Zm7.858 5.176V39.07h1.731v7.26h.025l3.691-3.7h2.149l-3.666 3.725 3.912 4.938h-2.124l-3.109-3.896-.878.853v3.043h-1.731Z"/><defs><linearGradient id="a" x1="14.428" x2="57.969" y1="14.639" y2="20.923" gradientUnits="userSpaceOnUse"><stop stop-color="#1B3A9E"/><stop offset="1" stop-color="#6C75D0"/></linearGradient><linearGradient id="b" x1="29.565" x2="41.643" y1="31.203" y2="43.28" gradientUnits="userSpaceOnUse"><stop stop-color="#886F0C"/><stop offset="1" stop-color="#886F0C" stop-opacity="0"/></linearGradient></defs></svg>