<svg xmlns="http://www.w3.org/2000/svg" width="28" height="30" fill="none"><path fill="#fff" d="M27.084 22.413c-.165-1.713-1.694-3.058-3.475-3.058a.38.38 0 0 1-.382-.383v-5.7c0-4.233-2.71-7.925-6.44-9.304A3.306 3.306 0 0 0 13.55 0a3.306 3.306 0 0 0-3.242 3.948 9.616 9.616 0 0 0-3.48 2.154 9.592 9.592 0 0 0-2.956 6.963v5.908c0 .208-.17.382-.382.382-1.786 0-3.31 1.345-3.474 3.058a3.39 3.39 0 0 0 3.372 3.716h5.836A4.362 4.362 0 0 0 13.55 30a4.362 4.362 0 0 0 4.325-3.871h5.836a3.4 3.4 0 0 0 2.506-1.108 3.41 3.41 0 0 0 .867-2.608ZM13.55 1.935c.754 0 1.369.615 1.369 1.37 0 .063-.01.12-.02.184a8.573 8.573 0 0 0-.996-.092 9.971 9.971 0 0 0-1.704.096 1.125 1.125 0 0 1-.019-.183c0-.76.615-1.375 1.37-1.375Zm0 26.13a2.428 2.428 0 0 1-2.371-1.936h4.742a2.427 2.427 0 0 1-2.371 1.935Zm11.235-4.346a1.44 1.44 0 0 1-1.074.474H3.388a1.44 1.44 0 0 1-1.074-.474 1.421 1.421 0 0 1-.368-1.122c.068-.73.75-1.307 1.549-1.307a2.321 2.321 0 0 0 2.318-2.317v-5.908a7.68 7.68 0 0 1 2.366-5.57 7.649 7.649 0 0 1 5.656-2.168c4.108.146 7.456 3.712 7.456 7.946v5.7a2.321 2.321 0 0 0 2.318 2.317c.799 0 1.48.576 1.549 1.307.038.416-.092.813-.373 1.122ZM1.018 11.613c.445 0 .846-.31.943-.76a11.311 11.311 0 0 1 3.077-5.598.97.97 0 0 0-1.369-1.37 13.24 13.24 0 0 0-3.6 6.557.962.962 0 0 0 .949 1.17Zm25.064 0a.964.964 0 0 0 .944-1.176 13.262 13.262 0 0 0-3.6-6.556.97.97 0 0 0-1.37 1.37 11.35 11.35 0 0 1 3.077 5.597.975.975 0 0 0 .949.765Z"/></svg>