<svg xmlns="http://www.w3.org/2000/svg" width="252" height="235" fill="none"><path fill="#fff" d="M0 0h251.848v234.596H0z"/><g filter="url(#a)"><circle cx="125.924" cy="88.351" r="57.357" fill="#fff"/></g><path fill="url(#b)" d="M133.146 140.857c.151 1.094-.614 2.107-1.713 2.217a55.005 55.005 0 0 1-40.195-12.039 54.994 54.994 0 0 1-20.182-38.874 55 55 0 0 1 52.762-58.77c1.104-.042 2.001.856 2.003 1.96l.029 15.13c.003 1.104-.892 1.995-1.995 2.059a35.872 35.872 0 0 0-7.597 70.355 35.863 35.863 0 0 0 12.566 1.209c1.101-.089 2.11.67 2.261 1.764l2.061 14.989Z"/><path fill="url(#c)" d="M128.132 35.397c.046-1.103.979-1.965 2.08-1.878a55.004 55.004 0 0 1 47.716 36.927c.359 1.045-.24 2.163-1.297 2.485l-14.475 4.402c-1.057.321-2.168-.278-2.548-1.315a35.876 35.876 0 0 0-30.195-23.367c-1.099-.108-1.957-1.034-1.911-2.138l.63-15.116Z"/><path fill="url(#d)" d="M177.468 76.015c1.075-.257 2.158.405 2.375 1.488a55.002 55.002 0 0 1-7.834 40.867 54.999 54.999 0 0 1-34.214 23.685c-1.078.238-2.121-.485-2.32-1.572l-2.727-14.881c-.199-1.087.522-2.123 1.596-2.383a35.861 35.861 0 0 0 21.636-15.29 35.852 35.852 0 0 0 5.24-25.97c-.196-1.087.46-2.165 1.534-2.422l14.714-3.522Z"/><path fill="url(#e)" d="M111.532 94.621c-.612 0-1.17-.066-1.674-.198a4.235 4.235 0 0 1-1.314-.594 3.511 3.511 0 0 1-.936-.99 3.785 3.785 0 0 1-.486-1.368l2.124-.576c.084.36.204.66.36.9.168.228.354.408.558.54.216.132.444.228.684.288.24.048.48.072.72.072.528 0 .984-.108 1.368-.324.384-.228.69-.534.918-.918.24-.396.408-.846.504-1.35a8.076 8.076 0 0 0 .162-1.656 7.97 7.97 0 0 0-.036-.756 8.825 8.825 0 0 0-.072-.792 12.404 12.404 0 0 0-.126-.756h-.198c.036.672-.042 1.242-.234 1.71a3.014 3.014 0 0 1-.81 1.134 3.355 3.355 0 0 1-1.17.63c-.42.132-.834.198-1.242.198a3.93 3.93 0 0 1-1.782-.414 3.566 3.566 0 0 1-1.332-1.242c-.336-.552-.504-1.218-.504-1.998 0-.492.078-.972.234-1.44.168-.48.426-.906.774-1.278.348-.384.798-.69 1.35-.918.564-.228 1.242-.342 2.034-.342 1.152 0 2.124.252 2.916.756.792.492 1.398 1.212 1.818 2.16.42.936.63 2.082.63 3.438 0 1.32-.204 2.436-.612 3.348-.396.9-.984 1.584-1.764 2.052-.78.456-1.734.684-2.862.684Zm-.144-6.444c.42 0 .798-.096 1.134-.288.336-.192.6-.456.792-.792a2.34 2.34 0 0 0 .306-1.206c0-.48-.108-.852-.324-1.116a1.594 1.594 0 0 0-.774-.576 2.897 2.897 0 0 0-.954-.162c-.372 0-.702.054-.99.162a1.875 1.875 0 0 0-.72.468 2.01 2.01 0 0 0-.414.666c-.084.24-.126.504-.126.792 0 .432.09.804.27 1.116.192.3.444.534.756.702.312.156.66.234 1.044.234Zm7.119 6.174V91.94l4.482-3.096c.228-.168.462-.348.702-.54.24-.204.462-.432.666-.684a3.8 3.8 0 0 0 .504-.81c.132-.3.198-.618.198-.954 0-.36-.084-.666-.252-.918a1.57 1.57 0 0 0-.702-.594c-.3-.144-.672-.216-1.116-.216-.396 0-.738.06-1.026.18-.276.12-.51.3-.702.54-.18.228-.312.516-.396.864a5.17 5.17 0 0 0-.126 1.206l-2.178-.432c-.024-.876.132-1.632.468-2.268a3.539 3.539 0 0 1 1.53-1.494c.672-.36 1.494-.54 2.466-.54.852 0 1.596.138 2.232.414.648.276 1.152.672 1.512 1.188.36.516.54 1.152.54 1.908 0 .588-.102 1.122-.306 1.602a5.06 5.06 0 0 1-.756 1.278 6.91 6.91 0 0 1-1.026 1.026c-.372.288-.732.546-1.08.774l-3.024 2.034v.144l6.408-.09v1.89h-9.018Zm13.801-5.616c-.648 0-1.23-.12-1.746-.36a2.885 2.885 0 0 1-1.206-1.134c-.288-.516-.432-1.152-.432-1.908 0-.636.096-1.176.288-1.62.192-.444.45-.798.774-1.062a3.296 3.296 0 0 1 1.116-.576 4.068 4.068 0 0 1 1.26-.198c.636 0 1.206.126 1.71.378.516.252.924.63 1.224 1.134.3.504.45 1.14.45 1.908 0 .84-.168 1.518-.504 2.034a2.82 2.82 0 0 1-1.296 1.08 4.287 4.287 0 0 1-1.638.324Zm.072-1.728c.24 0 .474-.054.702-.162.228-.108.414-.276.558-.504.144-.24.216-.564.216-.972 0-.432-.078-.774-.234-1.026a1.323 1.323 0 0 0-.594-.558c-.24-.12-.486-.18-.738-.18s-.492.06-.72.18a1.293 1.293 0 0 0-.558.522c-.132.228-.199.546-.199.954 0 .408.073.744.217 1.008.156.264.354.456.594.576.24.108.492.162.756.162ZM141.812 95a3.885 3.885 0 0 1-1.728-.378 2.885 2.885 0 0 1-1.206-1.134c-.288-.504-.432-1.134-.432-1.89 0-.636.096-1.176.288-1.62.192-.444.45-.798.774-1.062a3.138 3.138 0 0 1 1.116-.594 4.38 4.38 0 0 1 1.242-.18c.648 0 1.224.126 1.728.378.516.24.924.618 1.224 1.134.3.504.45 1.14.45 1.908 0 .84-.174 1.512-.522 2.016a2.82 2.82 0 0 1-1.296 1.08 4.008 4.008 0 0 1-1.638.342Zm.09-1.728c.24 0 .474-.054.702-.162.228-.108.414-.276.558-.504.144-.24.216-.564.216-.972 0-.444-.078-.792-.234-1.044a1.347 1.347 0 0 0-.594-.54 1.633 1.633 0 0 0-1.458-.018 1.293 1.293 0 0 0-.558.522c-.132.24-.198.564-.198.972 0 .408.072.744.216 1.008.156.252.354.438.594.558.24.12.492.18.756.18Zm-9.594 1.08 7.128-11.88h2.232l-7.128 11.88h-2.232Z"/><path fill="url(#f)" d="M32.395 181.831v-16.365h1.046v16.365h-1.046Zm.527-1.433c-1.02 0-1.904-.158-2.654-.474-.75-.317-1.336-.777-1.758-1.38-.422-.609-.65-1.348-.685-2.215h2.338c.035.457.175.838.421 1.143.247.299.569.524.967.676.405.153.853.229 1.345.229.516 0 .97-.079 1.362-.237.393-.159.7-.378.923-.66.223-.281.334-.609.334-.984 0-.34-.1-.618-.299-.835-.199-.223-.474-.41-.826-.562a7.907 7.907 0 0 0-1.24-.405l-1.484-.386c-1.079-.276-1.928-.695-2.55-1.257-.62-.569-.93-1.324-.93-2.268 0-.773.207-1.447.623-2.021.416-.58.985-1.032 1.705-1.354.727-.322 1.547-.483 2.461-.483.932 0 1.75.161 2.452.483.703.322 1.254.768 1.653 1.336.398.568.606 1.222.624 1.96H35.41c-.059-.562-.308-.996-.747-1.301-.434-.31-1.005-.465-1.714-.465-.492 0-.917.073-1.275.219-.351.147-.62.349-.808.607a1.45 1.45 0 0 0-.282.879c0 .363.109.662.326.896.222.229.504.413.843.554.346.14.698.258 1.055.351l1.222.308a8.38 8.38 0 0 1 1.424.475 4.95 4.95 0 0 1 1.23.738c.37.293.66.65.87 1.072.217.422.325.917.325 1.485 0 .762-.196 1.436-.588 2.022-.393.58-.958 1.034-1.697 1.362-.738.328-1.629.492-2.672.492Zm11.409-13.297v13.095h-2.356v-10.784h-.079l-3.059 1.96v-2.18l3.252-2.091h2.242Zm1.766 13.095v-1.705l4.553-4.465c.428-.439.785-.829 1.072-1.169.293-.339.513-.668.66-.984.146-.322.22-.665.22-1.028 0-.41-.095-.765-.282-1.064a1.827 1.827 0 0 0-.774-.685 2.485 2.485 0 0 0-1.107-.238c-.434 0-.812.088-1.134.264a1.895 1.895 0 0 0-.756.747c-.175.322-.263.706-.263 1.152h-2.25c0-.827.187-1.544.562-2.154a3.87 3.87 0 0 1 1.573-1.432c.668-.34 1.433-.51 2.294-.51.885 0 1.658.164 2.32.492.663.328 1.178.779 1.548 1.354.369.568.553 1.218.553 1.951 0 .492-.094.975-.281 1.45-.188.469-.519.993-.993 1.573-.469.574-1.128 1.269-1.978 2.083l-2.25 2.294v.097h5.696v1.977h-8.983Zm10.02-2.425v-1.89l5.563-8.78h1.565v2.689h-.958l-3.745 5.924v.105h7.761v1.952H56.117Zm6.24 2.425v-2.997l.035-.852v-9.246h2.232v13.095h-2.267Zm4.86 3.366.774-5.308h2.373l-1.538 5.308h-1.609Zm9.826-3.19c-.855 0-1.62-.158-2.294-.475a4.092 4.092 0 0 1-1.6-1.327 3.498 3.498 0 0 1-.623-1.933h2.303c.035.533.263.969.685 1.309.428.34.938.51 1.53.51.468 0 .881-.105 1.239-.316.357-.217.638-.513.843-.888a2.64 2.64 0 0 0 .317-1.301c0-.498-.106-.937-.317-1.318a2.303 2.303 0 0 0-.87-.905 2.415 2.415 0 0 0-1.274-.334c-.398 0-.785.076-1.16.228-.375.147-.674.34-.897.58l-2.153-.351.685-6.75h7.603v1.986h-5.634l-.378 3.472h.07c.247-.293.59-.531 1.029-.712a3.736 3.736 0 0 1 1.468-.282c.797 0 1.503.188 2.118.563.621.369 1.11.879 1.468 1.529.357.651.536 1.398.536 2.241 0 .862-.2 1.632-.598 2.312a4.274 4.274 0 0 1-1.652 1.591c-.703.381-1.518.571-2.444.571Zm10.996 0c-1.061 0-1.97-.264-2.725-.791-.75-.533-1.324-1.298-1.723-2.294-.398-1.002-.597-2.212-.597-3.63 0-1.418.199-2.628.597-3.63.399-1.007.973-1.775 1.723-2.302.756-.534 1.664-.8 2.725-.8 1.054 0 1.96.266 2.715.8.756.533 1.333 1.3 1.732 2.302.398 1.002.597 2.212.597 3.63 0 1.418-.199 2.628-.597 3.63-.399.996-.973 1.761-1.723 2.294-.75.527-1.658.791-2.724.791Zm0-1.986c.568 0 1.048-.185 1.441-.554.398-.369.7-.905.905-1.608.211-.709.317-1.565.317-2.567 0-1.008-.106-1.866-.317-2.575-.205-.709-.507-1.248-.905-1.617-.393-.375-.873-.563-1.441-.563-.856 0-1.515.416-1.978 1.248-.457.827-.686 1.996-.686 3.507 0 1.002.103 1.858.308 2.567.205.703.507 1.239.905 1.608.399.369.882.554 1.45.554Zm11.337 1.986c-1.06 0-1.968-.264-2.724-.791-.75-.533-1.324-1.298-1.723-2.294-.398-1.002-.597-2.212-.597-3.63 0-1.418.199-2.628.597-3.63.399-1.007.973-1.775 1.723-2.302.756-.534 1.664-.8 2.724-.8 1.055 0 1.96.266 2.716.8.756.533 1.333 1.3 1.732 2.302.398 1.002.597 2.212.597 3.63 0 1.418-.199 2.628-.597 3.63-.399.996-.973 1.761-1.723 2.294-.75.527-1.658.791-2.725.791Zm0-1.986c.569 0 1.049-.185 1.442-.554.398-.369.7-.905.905-1.608.211-.709.317-1.565.317-2.567 0-1.008-.106-1.866-.317-2.575-.205-.709-.507-1.248-.905-1.617-.393-.375-.873-.563-1.442-.563-.855 0-1.514.416-1.977 1.248-.457.827-.686 1.996-.686 3.507 0 1.002.103 1.858.308 2.567.205.703.507 1.239.905 1.608.399.369.882.554 1.45.554Z"/><path fill="#4D585F" d="M27.96 203.646v-9h1.23v1.066h.105a4.48 4.48 0 0 1 .323-.475 1.8 1.8 0 0 1 .586-.468c.25-.137.576-.206.978-.206.527 0 .996.133 1.406.399.414.266.74.65.979 1.154.238.504.357 1.112.357 1.822 0 .704-.117 1.309-.351 1.817-.235.504-.559.892-.973 1.166-.41.269-.88.404-1.412.404-.394 0-.719-.066-.973-.199a1.942 1.942 0 0 1-.591-.475 4.086 4.086 0 0 1-.329-.474h-.07v3.469H27.96Zm2.953-3.405c.378 0 .695-.101.949-.304a1.86 1.86 0 0 0 .574-.827c.133-.351.2-.746.2-1.183 0-.434-.065-.823-.194-1.166a1.822 1.822 0 0 0-.574-.815c-.254-.199-.573-.299-.955-.299-.372 0-.684.096-.938.288-.254.187-.447.453-.58.796-.129.34-.193.739-.193 1.196 0 .457.066.859.199 1.207.133.347.326.619.58.814.258.196.568.293.932.293Zm6.685 1.09c-.613 0-1.15-.141-1.611-.422a2.854 2.854 0 0 1-1.067-1.183c-.25-.508-.375-1.098-.375-1.77 0-.68.125-1.273.375-1.781a2.85 2.85 0 0 1 1.067-1.19c.46-.281.998-.422 1.611-.422.617 0 1.154.141 1.611.422a2.85 2.85 0 0 1 1.067 1.19c.254.508.38 1.101.38 1.781 0 .672-.126 1.262-.38 1.77-.254.507-.61.902-1.067 1.183-.457.281-.994.422-1.61.422Zm0-1.072c.403 0 .735-.106.996-.317a1.85 1.85 0 0 0 .58-.838c.13-.351.194-.734.194-1.148 0-.422-.065-.809-.194-1.16a1.85 1.85 0 0 0-.58-.844c-.261-.211-.593-.316-.996-.316-.398 0-.728.105-.99.316a1.912 1.912 0 0 0-.58.844 3.344 3.344 0 0 0-.194 1.16c0 .414.065.797.194 1.148.129.348.322.627.58.838.262.211.592.317.99.317Zm3.979.937v-6.55H42.8v1.048h.07a1.61 1.61 0 0 1 .633-.832c.305-.207.649-.31 1.032-.31.078 0 .17.004.275.011.11.004.197.01.264.018v1.219a3.183 3.183 0 0 0-.668-.071c-.301 0-.57.065-.809.194a1.43 1.43 0 0 0-.556.521 1.44 1.44 0 0 0-.2.762v3.99h-1.265Zm7.535-6.55v1.025h-3.574v-1.025h3.574Zm-2.62-1.559h1.272v6.187c0 .301.063.522.188.663.125.136.326.205.603.205a2.706 2.706 0 0 0 .445-.047l.24 1.054a2.52 2.52 0 0 1-.421.1 3.057 3.057 0 0 1-.457.035c-.567 0-1.02-.158-1.36-.474-.34-.321-.51-.747-.51-1.278v-6.445Zm6.651 1.559v1.025h-3.697v-1.025h3.697Zm-2.69 6.55v-7.312c0-.406.09-.744.27-1.014a1.69 1.69 0 0 1 .715-.609 2.25 2.25 0 0 1 .955-.205c.262 0 .484.021.668.064.184.043.318.08.404.111l-.304 1.032a3.199 3.199 0 0 0-.229-.065 1.397 1.397 0 0 0-.34-.035c-.308 0-.531.078-.668.234-.136.153-.205.375-.205.668v7.131h-1.265Zm5.989.135c-.613 0-1.15-.141-1.611-.422a2.854 2.854 0 0 1-1.067-1.183c-.25-.508-.375-1.098-.375-1.77 0-.68.125-1.273.375-1.781.254-.512.61-.908 1.067-1.19.46-.281.998-.422 1.61-.422.618 0 1.155.141 1.612.422.457.282.813.678 1.067 1.19.254.508.38 1.101.38 1.781 0 .672-.127 1.262-.38 1.77-.254.507-.61.902-1.067 1.183-.457.281-.994.422-1.611.422Zm0-1.072c.402 0 .734-.106.996-.317a1.85 1.85 0 0 0 .58-.838c.129-.351.193-.734.193-1.148 0-.422-.064-.809-.193-1.16a1.85 1.85 0 0 0-.58-.844c-.262-.211-.594-.316-.996-.316-.398 0-.729.105-.99.316a1.911 1.911 0 0 0-.58.844 3.344 3.344 0 0 0-.194 1.16c0 .414.065.797.194 1.148.129.348.322.627.58.838.261.211.592.317.99.317Zm5.244-7.793v8.73H60.42v-8.73h1.266Zm1.219 8.73v-6.55h1.265v6.55h-1.265Zm.639-7.558a.797.797 0 0 1-.569-.223.709.709 0 0 1-.234-.533c0-.211.078-.391.234-.539a.793.793 0 0 1 .569-.223c.218 0 .406.074.562.223.16.148.24.328.24.539 0 .207-.08.385-.24.533a.79.79 0 0 1-.562.223Zm4.593 7.693c-.613 0-1.15-.141-1.611-.422a2.854 2.854 0 0 1-1.066-1.183c-.25-.508-.375-1.098-.375-1.77 0-.68.125-1.273.375-1.781a2.842 2.842 0 0 1 1.066-1.19c.46-.281.998-.422 1.611-.422.617 0 1.154.141 1.612.422.457.282.812.678 1.066 1.19.254.508.38 1.101.38 1.781 0 .672-.126 1.262-.38 1.77a2.86 2.86 0 0 1-1.066 1.183c-.457.281-.995.422-1.612.422Zm0-1.072c.403 0 .735-.106.996-.317a1.85 1.85 0 0 0 .58-.838c.13-.351.194-.734.194-1.148 0-.422-.065-.809-.194-1.16a1.85 1.85 0 0 0-.58-.844c-.261-.211-.593-.316-.996-.316-.398 0-.728.105-.99.316a1.912 1.912 0 0 0-.58.844 3.344 3.344 0 0 0-.193 1.16c0 .414.064.797.193 1.148.129.348.322.627.58.838.262.211.592.317.99.317Zm12.24-5.613-2.367 6.55h-1.37l-2.374-6.55h1.365l1.664 5.05h.07l1.653-5.05h1.36Zm2.403 6.691a2.68 2.68 0 0 1-1.125-.229 1.877 1.877 0 0 1-.797-.679c-.195-.297-.293-.658-.293-1.084 0-.371.07-.674.21-.908.145-.239.339-.428.581-.569.242-.14.512-.246.809-.316.296-.071.601-.125.914-.164.394-.043.713-.08.955-.112.242-.031.418-.08.527-.146.113-.07.17-.182.17-.334v-.029c0-.371-.105-.659-.316-.862-.208-.203-.516-.304-.926-.304-.426 0-.764.093-1.014.281a1.466 1.466 0 0 0-.51.627l-1.2-.276a2.31 2.31 0 0 1 .626-.961 2.62 2.62 0 0 1 .95-.539c.359-.113.734-.17 1.124-.17.262 0 .54.032.832.094.293.059.569.17.827.334a1.8 1.8 0 0 1 .638.692c.164.3.246.689.246 1.166v4.347H84.76v-.896h-.047a1.7 1.7 0 0 1-.369.48c-.164.16-.375.293-.633.399a2.468 2.468 0 0 1-.931.158Zm.275-1.02c.356 0 .658-.068.908-.205.25-.14.442-.324.575-.55.132-.227.199-.467.199-.721v-.85a.718.718 0 0 1-.264.123 3.463 3.463 0 0 1-.44.1c-.163.027-.323.053-.48.076-.156.02-.287.035-.392.047-.246.035-.471.09-.674.164-.203.07-.367.176-.492.316-.121.137-.182.319-.182.545 0 .317.117.555.352.715.234.16.53.24.89.24Zm5.444-7.851v8.73h-1.266v-8.73h1.266Zm5.367 6.023v-3.843h1.265v6.55H93.89v-1.136h-.07a2.148 2.148 0 0 1-.727.873c-.328.234-.738.349-1.23.345-.422 0-.795-.091-1.12-.275a1.903 1.903 0 0 1-.755-.826c-.18-.367-.27-.823-.27-1.365v-4.166h1.266v4.019c0 .441.125.795.375 1.061.25.265.572.396.967.392.238 0 .474-.058.709-.176.238-.117.435-.296.591-.539.16-.242.24-.547.24-.914Zm5.302 2.842c-.64 0-1.195-.139-1.664-.416a2.782 2.782 0 0 1-1.084-1.172c-.25-.508-.375-1.099-.375-1.775 0-.672.123-1.264.37-1.776.25-.511.6-.91 1.048-1.195.454-.289.985-.434 1.594-.434.371 0 .73.061 1.078.182.348.121.66.313.938.574.277.262.496.602.656 1.02.164.418.246.922.246 1.512v.457h-5.209v-.955h4.553l-.592.316c0-.402-.062-.758-.187-1.066a1.56 1.56 0 0 0-.563-.721c-.246-.176-.553-.264-.92-.264s-.681.088-.943.264a1.715 1.715 0 0 0-.592.697 2.193 2.193 0 0 0-.205.949v.651c0 .449.078.83.234 1.142.156.313.373.551.65.715.282.164.608.246.98.246.241 0 .46-.035.655-.105a1.336 1.336 0 0 0 .844-.838l1.207.228a2.202 2.202 0 0 1-.515.926 2.501 2.501 0 0 1-.932.621 3.474 3.474 0 0 1-1.272.217Z"/><rect width="45" height="20.4" x="176.848" y="184.196" fill="url(#g)" rx="10.2"/><circle cx="186.848" cy="194.396" r="2" fill="#10B981"/><path fill="#fff" d="M193.712 198.396v-8.148h1.477v6.913h3.593v1.235h-5.07Zm5.857 0v-6.114h1.439v6.114h-1.439Zm.722-6.972a.838.838 0 0 1-.591-.23.728.728 0 0 1-.246-.552c0-.219.082-.405.246-.558a.838.838 0 0 1 .591-.23c.226 0 .421.077.585.23a.728.728 0 0 1 .246.552.735.735 0 0 1-.246.558.829.829 0 0 1-.585.23Zm7.241.858-2.177 6.114h-1.597l-2.171-6.114h1.537l1.416 4.545h.066l1.405-4.545h1.521Zm3.079 6.235c-.613 0-1.142-.128-1.586-.383a2.605 2.605 0 0 1-1.028-1.094c-.237-.47-.356-1.024-.356-1.662 0-.631.119-1.183.356-1.657.237-.478.57-.85 1-1.116.431-.266.937-.399 1.521-.399.375 0 .731.06 1.066.18.339.121.638.307.897.558.262.252.468.573.618.963.149.386.224.847.224 1.383v.449h-5.009v-.968h4.293l-.673.284c0-.346-.053-.647-.159-.902a1.332 1.332 0 0 0-.47-.607c-.208-.146-.466-.219-.776-.219s-.575.073-.793.219a1.381 1.381 0 0 0-.498.59c-.113.245-.17.518-.17.821v.672c0 .372.064.691.192.957.131.263.313.463.547.602.237.138.512.208.826.208.204 0 .39-.029.557-.088a1.15 1.15 0 0 0 .438-.262c.124-.121.219-.268.284-.443l1.346.158c-.088.354-.25.664-.487.93a2.33 2.33 0 0 1-.903.613 3.442 3.442 0 0 1-1.257.213Z"/><defs><linearGradient id="b" x1="125.924" x2="125.924" y1="33.351" y2="143.351" gradientUnits="userSpaceOnUse"><stop stop-color="#72E3E6"/><stop offset="1" stop-color="#2C9FE3"/></linearGradient><linearGradient id="c" x1="125.924" x2="125.924" y1="33.351" y2="143.351" gradientUnits="userSpaceOnUse"><stop stop-color="#B8E4CC"/><stop offset="1" stop-color="#61B781"/></linearGradient><linearGradient id="d" x1="125.924" x2="125.924" y1="33.351" y2="143.351" gradientUnits="userSpaceOnUse"><stop stop-color="#FCBA61"/><stop offset="1" stop-color="#F89244"/></linearGradient><linearGradient id="e" x1="109.937" x2="145.582" y1="78.899" y2="88.253" gradientUnits="userSpaceOnUse"><stop stop-color="#323232"/><stop offset="1"/></linearGradient><linearGradient id="f" x1="37.384" x2="103.97" y1="163.744" y2="207.43" gradientUnits="userSpaceOnUse"><stop stop-color="#323232"/><stop offset="1"/></linearGradient><linearGradient id="g" x1="181.363" x2="220.28" y1="185.631" y2="198.022" gradientUnits="userSpaceOnUse"><stop stop-color="#323232"/><stop offset="1"/></linearGradient><filter id="a" width="134.715" height="134.715" x="58.566" y="24.994" color-interpolation-filters="sRGB" filterUnits="userSpaceOnUse"><feFlood flood-opacity="0" result="BackgroundImageFix"/><feColorMatrix in="SourceAlpha" result="hardAlpha" values="0 0 0 0 0 0 0 0 0 0 0 0 0 0 0 0 0 0 127 0"/><feOffset dy="4"/><feGaussianBlur stdDeviation="5"/><feComposite in2="hardAlpha" operator="out"/><feColorMatrix values="0 0 0 0 0.0284763 0 0 0 0 0.266469 0 0 0 0 0.538462 0 0 0 0.2 0"/><feBlend in2="BackgroundImageFix" result="effect1_dropShadow_9797_533"/><feBlend in="SourceGraphic" in2="effect1_dropShadow_9797_533" result="shape"/></filter></defs></svg>