<svg xmlns="http://www.w3.org/2000/svg" width="304" height="280" fill="none"><path fill="#fff" d="M0 0h303.185v278.955H0z"/><mask id="b" width="306" height="281" x="-1" y="-1" maskUnits="userSpaceOnUse" style="mask-type:alpha"><foreignObject width="0" height="0" x="0" y="0"><div xmlns="http://www.w3.org/1999/xhtml" style="backdrop-filter:blur(10px);clip-path:url(#a);height:100%;width:100%"/></foreignObject><rect width="304.185" height="279.955" x="-.5" y="-.5" fill="#fff" stroke="#1D1D1D" data-figma-bg-blur-radius="20" rx="20.5"/></mask><g mask="url(#b)"><rect width="46.667" height="46.667" x="30" y="30" fill="#EDF1F4" rx="9.333"/><path fill="url(#c)" d="M65.218 41.66a.27.27 0 0 0-.188-.198c-3.142-.767-10.397 1.968-14.328 5.899a17.016 17.016 0 0 0-1.908 2.257c-1.212-.107-2.424-.016-3.46.434-2.916 1.282-3.763 4.633-4.005 6.07a.516.516 0 0 0 .569.601l4.681-.515c.005.354.027.708.064 1.057.022.241.134.472.306.643l1.812 1.807c.172.172.403.284.644.306.348.037.697.059 1.05.064l-.514 4.676a.514.514 0 0 0 .6.563c1.438-.23 4.795-1.078 6.07-3.995.451-1.035.542-2.241.44-3.448a17.12 17.12 0 0 0 2.263-1.909c3.941-3.92 6.66-11.014 5.904-14.311Zm-6.204 9.631a2.568 2.568 0 0 1-3.636 0 2.57 2.57 0 0 1 0-3.64 2.57 2.57 0 0 1 3.641 0 2.575 2.575 0 0 1-.005 3.64Z"/><path fill="url(#d)" d="M48.638 61.024c-.295.294-.767.407-1.335.509-1.276.215-2.402-.885-2.172-2.172.086-.488.349-1.174.51-1.335a.236.236 0 0 0 .005-.332.23.23 0 0 0-.198-.07 3.212 3.212 0 0 0-1.882.917c-1.266 1.265-1.384 5.947-1.384 5.947s4.687-.118 5.947-1.384c.51-.51.831-1.169.917-1.887.021-.22-.252-.354-.408-.193Z"/><path fill="#4D585F" d="M90.901 45.686c-.71 0-1.327-.11-1.85-.331-.519-.226-.925-.547-1.218-.964-.294-.417-.458-.912-.492-1.486h1.442c.03.344.14.631.332.86.196.226.449.394.76.505.31.11.65.166 1.02.166.404 0 .766-.064 1.085-.192a1.73 1.73 0 0 0 .746-.535c.183-.235.275-.507.275-.817 0-.28-.081-.51-.243-.69a1.744 1.744 0 0 0-.644-.44 6.258 6.258 0 0 0-.919-.312l-1.116-.306c-.766-.204-1.37-.509-1.813-.913-.442-.408-.663-.942-.663-1.601 0-.549.147-1.027.44-1.436.298-.408.7-.725 1.206-.95a4.137 4.137 0 0 1 1.716-.345c.647 0 1.215.115 1.704.345.493.225.882.536 1.167.931.29.391.44.84.453 1.346H92.9a1.368 1.368 0 0 0-.613-1.02c-.353-.243-.804-.364-1.353-.364-.382 0-.718.062-1.008.185a1.54 1.54 0 0 0-.663.497c-.153.213-.23.458-.23.734 0 .298.092.54.274.728.188.187.413.336.677.446.268.107.525.194.772.262l.925.249c.302.076.612.178.931.306.32.128.615.296.887.504.277.204.498.46.664.765.17.302.255.668.255 1.098 0 .532-.138 1.008-.415 1.43-.276.416-.676.746-1.2.988-.522.238-1.156.357-1.9.357Zm7.893-7.286v1.117h-3.892V38.4h3.892Zm-2.852-1.697h1.384v6.737c0 .328.068.568.205.721.136.15.355.224.657.224a2.642 2.642 0 0 0 .485-.051l.261 1.148c-.14.047-.293.083-.46.109a3.272 3.272 0 0 1-.497.038c-.617 0-1.11-.172-1.48-.517-.37-.349-.555-.812-.555-1.39v-7.019Zm6.763 8.977c-.668 0-1.253-.153-1.755-.46a3.113 3.113 0 0 1-1.16-1.288c-.273-.553-.41-1.196-.41-1.927 0-.74.137-1.387.41-1.94a3.104 3.104 0 0 1 1.16-1.295c.502-.306 1.087-.46 1.755-.46.672 0 1.257.154 1.754.46a3.1 3.1 0 0 1 1.162 1.295c.276.553.414 1.2.414 1.94 0 .731-.138 1.374-.414 1.927a3.11 3.11 0 0 1-1.162 1.289c-.497.306-1.082.459-1.754.459Zm0-1.168c.438 0 .8-.114 1.085-.344.285-.23.495-.534.631-.913.141-.382.211-.8.211-1.25 0-.46-.07-.88-.211-1.263a2.015 2.015 0 0 0-.631-.92c-.285-.229-.647-.344-1.085-.344-.434 0-.793.115-1.078.345-.281.23-.492.536-.632.919s-.211.804-.211 1.263c0 .45.071.868.211 1.25.14.379.351.683.632.913.285.23.644.344 1.078.344Zm7.324 1.168c-.684 0-1.276-.157-1.773-.472a3.105 3.105 0 0 1-1.149-1.302c-.268-.553-.402-1.187-.402-1.901 0-.727.136-1.367.409-1.92a3.154 3.154 0 0 1 1.154-1.302c.498-.315 1.081-.472 1.749-.472.544 0 1.027.1 1.448.3.425.195.768.474 1.027.836.264.361.419.782.466 1.263h-1.353a1.594 1.594 0 0 0-.274-.62 1.41 1.41 0 0 0-.523-.446 1.683 1.683 0 0 0-.772-.166c-.387 0-.725.102-1.015.307-.285.2-.508.487-.67.861-.161.374-.242.817-.242 1.327 0 .515.079.964.236 1.346.157.383.381.679.67.887.293.204.634.306 1.021.306.4 0 .74-.11 1.021-.331a1.5 1.5 0 0 0 .548-.906h1.353a2.59 2.59 0 0 1-.447 1.237 2.61 2.61 0 0 1-1.008.855c-.421.209-.912.313-1.474.313Zm5.187-2.565-.019-1.69h.249l2.839-3.025h1.659l-3.235 3.445h-.229l-1.264 1.27Zm-1.276 2.418v-9.506h1.379v9.506h-1.379Zm4.492 0-2.552-3.381.957-.977 3.305 4.358h-1.71Zm7.567-5.385-1.257.217a1.572 1.572 0 0 0-.453-.657c-.217-.2-.542-.3-.976-.3-.391 0-.719.09-.983.268-.259.175-.389.398-.389.67 0 .238.087.432.262.58.178.15.461.269.848.358l1.142.255c.651.15 1.138.383 1.461.702.324.319.485.727.485 1.225 0 .43-.123.812-.37 1.148-.246.332-.589.594-1.027.785-.438.187-.944.28-1.518.28-.8 0-1.451-.171-1.953-.516-.502-.344-.81-.83-.925-1.454l1.334-.205c.085.35.257.613.516.791.264.18.604.268 1.021.268.451 0 .813-.095 1.085-.287.276-.191.415-.423.415-.695 0-.451-.336-.755-1.008-.913l-1.206-.267c-.668-.154-1.162-.394-1.481-.721-.314-.332-.472-.75-.472-1.251 0-.421.117-.791.351-1.11.238-.32.564-.566.976-.74a3.584 3.584 0 0 1 1.423-.268c.774 0 1.38.168 1.819.504.442.336.735.78.88 1.333Z"/><path fill="#1D1D1D" d="M91.546 71.66V56.384h.968v15.274h-.968Zm.484-1.33c-.913 0-1.706-.142-2.379-.426-.667-.29-1.19-.703-1.567-1.24-.377-.535-.588-1.172-.632-1.91h1.854c.039.443.18.812.427 1.107.252.29.577.506.976.648.4.142.837.213 1.313.213.52 0 .984-.082 1.394-.246.41-.164.73-.394.96-.689.235-.3.353-.65.353-1.05 0-.36-.104-.656-.312-.886-.202-.23-.478-.418-.829-.566a8.04 8.04 0 0 0-1.18-.402l-1.436-.393c-.985-.263-1.761-.654-2.33-1.173-.569-.526-.853-1.212-.853-2.06 0-.705.189-1.32.566-1.845.383-.525.9-.933 1.55-1.222.656-.296 1.392-.443 2.207-.443.831 0 1.561.147 2.19.443.634.29 1.135.689 1.501 1.197a2.97 2.97 0 0 1 .583 1.731h-1.788a1.76 1.76 0 0 0-.788-1.312c-.454-.312-1.034-.468-1.74-.468-.491 0-.923.08-1.295.238-.367.153-.651.366-.853.64a1.573 1.573 0 0 0-.296.943c0 .383.118.695.353.935.24.24.53.432.87.575.344.136.675.248.992.336l1.19.32c.388.098.787.23 1.197.393.41.164.79.38 1.14.648.356.263.64.591.854.985.218.388.328.859.328 1.41 0 .684-.178 1.297-.533 1.838-.356.536-.87.96-1.543 1.272-.672.306-1.487.46-2.444.46Zm6.259-.197 5.332-10.549v-.09h-6.169V57.91h8.088v1.648l-5.323 10.574h-1.928Zm12.321.164c-.853 0-1.608-.147-2.264-.443-.651-.295-1.162-.7-1.534-1.214a3.002 3.002 0 0 1-.55-1.772 3.2 3.2 0 0 1 .32-1.419c.219-.437.514-.8.886-1.09.372-.29.79-.476 1.255-.558v-.074a2.511 2.511 0 0 1-1.468-.976 2.897 2.897 0 0 1-.55-1.74c0-.629.167-1.189.501-1.681a3.44 3.44 0 0 1 1.386-1.157c.591-.284 1.263-.426 2.018-.426.744 0 1.408.142 1.993.426.591.28 1.053.665 1.387 1.157.339.492.508 1.053.508 1.681 0 .651-.186 1.23-.558 1.74a2.47 2.47 0 0 1-1.443.976v.074a2.79 2.79 0 0 1 1.247.557c.371.29.667.654.885 1.091.219.438.329.91.329 1.42 0 .661-.186 1.252-.558 1.771-.372.514-.886.92-1.542 1.214-.651.296-1.4.443-2.248.443Zm0-1.509c.503 0 .941-.082 1.312-.246.372-.17.659-.407.862-.714.202-.306.303-.662.303-1.066 0-.427-.109-.801-.328-1.124a2.188 2.188 0 0 0-.878-.771 2.733 2.733 0 0 0-1.271-.287c-.481 0-.911.093-1.288.279a2.195 2.195 0 0 0-.878.77c-.213.329-.32.706-.32 1.133 0 .404.102.76.304 1.066.202.306.489.544.861.714.372.164.812.246 1.321.246Zm0-5.677c.405 0 .763-.082 1.075-.246a1.87 1.87 0 0 0 .746-.68c.186-.29.279-.63.279-1.018 0-.383-.09-.716-.271-1a1.778 1.778 0 0 0-.738-.665 2.375 2.375 0 0 0-1.091-.238c-.421 0-.79.08-1.107.238a1.78 1.78 0 0 0-.739.664 1.87 1.87 0 0 0-.262 1.001c0 .389.09.728.27 1.017.181.29.427.517.739.681.317.164.683.246 1.099.246Zm5.234 10.05.721-4.783h1.92l-1.354 4.782h-1.287Zm4.757-3.028v-1.329l4.135-4.298c.437-.46.798-.864 1.083-1.214.289-.356.505-.692.648-1.01.147-.316.221-.653.221-1.008 0-.41-.096-.763-.287-1.058a1.884 1.884 0 0 0-.779-.681 2.532 2.532 0 0 0-1.116-.238c-.437 0-.818.09-1.14.27a1.859 1.859 0 0 0-.755.755c-.175.323-.262.703-.262 1.14h-1.756c0-.743.17-1.394.509-1.952.344-.558.815-.99 1.411-1.296.601-.312 1.279-.467 2.034-.467.771 0 1.449.153 2.034.459a3.471 3.471 0 0 1 1.37 1.247c.328.52.493 1.107.493 1.764a3.6 3.6 0 0 1-.255 1.328c-.164.432-.456.916-.877 1.452-.416.53-.996 1.17-1.74 1.92l-2.428 2.543v.098h5.496v1.575h-8.039Zm13.634.164c-.749 0-1.422-.142-2.018-.426a3.684 3.684 0 0 1-1.419-1.19 3.138 3.138 0 0 1-.566-1.73h1.788c.044.519.276.948.697 1.287.421.34.927.509 1.518.509.47 0 .886-.11 1.247-.328.361-.219.645-.517.853-.894.208-.383.312-.82.312-1.313a2.7 2.7 0 0 0-.32-1.32 2.377 2.377 0 0 0-.886-.927 2.444 2.444 0 0 0-1.288-.337c-.372 0-.744.066-1.116.197-.372.126-.672.29-.902.492l-1.698-.246.689-6.16h6.718v1.583h-5.176l-.385 3.42h.065c.235-.235.55-.426.944-.574.399-.153.828-.23 1.287-.23.744 0 1.406.178 1.986.534.585.35 1.044.831 1.378 1.444.333.607.5 1.304.5 2.091 0 .793-.18 1.502-.541 2.125a3.911 3.911 0 0 1-1.493 1.46c-.629.356-1.354.533-2.174.533Zm9.745 0c-.853 0-1.608-.147-2.264-.443-.651-.295-1.162-.7-1.534-1.214a3.001 3.001 0 0 1-.549-1.772c0-.508.106-.981.32-1.419.218-.437.514-.8.885-1.09.372-.29.791-.476 1.256-.558v-.074a2.514 2.514 0 0 1-1.469-.976 2.903 2.903 0 0 1-.549-1.74c0-.629.166-1.189.5-1.681a3.44 3.44 0 0 1 1.386-1.157c.591-.284 1.264-.426 2.018-.426.744 0 1.408.142 1.994.426.59.28 1.052.665 1.386 1.157.339.492.509 1.053.509 1.681 0 .651-.186 1.23-.558 1.74a2.475 2.475 0 0 1-1.444.976v.074a2.79 2.79 0 0 1 1.247.557c.372.29.667.654.886 1.091.219.438.328.91.328 1.42 0 .661-.186 1.252-.558 1.771-.372.514-.886.92-1.542 1.214-.651.296-1.4.443-2.248.443Zm0-1.509c.503 0 .941-.082 1.313-.246.372-.17.659-.407.861-.714.202-.306.304-.662.304-1.066 0-.427-.11-.801-.329-1.124a2.186 2.186 0 0 0-.877-.771 2.74 2.74 0 0 0-1.272-.287c-.481 0-.91.093-1.288.279a2.192 2.192 0 0 0-.877.77 2.03 2.03 0 0 0-.32 1.133c0 .404.101.76.303 1.066.203.306.49.544.862.714.371.164.812.246 1.32.246Zm0-5.677c.405 0 .763-.082 1.075-.246a1.87 1.87 0 0 0 .746-.68c.186-.29.279-.63.279-1.018 0-.383-.09-.716-.27-1a1.78 1.78 0 0 0-.739-.665 2.372 2.372 0 0 0-1.091-.238c-.421 0-.79.08-1.107.238-.317.159-.563.38-.738.664a1.871 1.871 0 0 0-.263 1.001c0 .389.09.728.271 1.017.18.29.426.517.738.681a2.36 2.36 0 0 0 1.099.246Z"/><rect width="61" height="29" x="211.185" y="38.834" fill="#10B981" fill-opacity=".2" rx="14.5"/><path fill="#10B981" d="M225.06 58.232v-6.884h1.558v6.884h-1.558Zm-2.66-2.66v-1.565h6.877v1.566H222.4Zm12.162 3.398c-.739 0-1.393-.123-1.962-.369-.57-.25-1.017-.592-1.34-1.025a2.416 2.416 0 0 1-.479-1.47c0-.424.094-.816.281-1.176.186-.36.439-.66.758-.902a2.494 2.494 0 0 1 1.087-.465v-.062a2.156 2.156 0 0 1-1.271-.806 2.314 2.314 0 0 1-.486-1.456c0-.524.146-.991.438-1.402.296-.41.702-.733 1.217-.97.515-.237 1.1-.356 1.757-.356.651 0 1.235.119 1.75.356.514.237.92.56 1.216.97.297.41.445.878.445 1.402 0 .551-.164 1.037-.493 1.456-.328.42-.747.688-1.257.806v.062c.392.068.749.223 1.073.465.323.241.579.542.766.902.191.36.287.752.287 1.176a2.39 2.39 0 0 1-.486 1.47c-.323.433-.77.774-1.34 1.025-.569.246-1.223.37-1.961.37Zm0-1.415c.382 0 .715-.066.998-.198.282-.132.501-.317.656-.554.155-.241.232-.517.232-.827 0-.323-.082-.61-.246-.861a1.677 1.677 0 0 0-.67-.588 2.083 2.083 0 0 0-.97-.219c-.365 0-.691.073-.978.219a1.677 1.677 0 0 0-.67.588 1.552 1.552 0 0 0-.239.861c0 .31.077.586.232.827.155.237.374.422.656.554.283.132.616.198.999.198Zm0-4.641a1.8 1.8 0 0 0 .827-.185 1.49 1.49 0 0 0 .574-.526 1.45 1.45 0 0 0 .212-.78c0-.296-.069-.553-.205-.772a1.36 1.36 0 0 0-.568-.506 1.824 1.824 0 0 0-.84-.185c-.319 0-.602.062-.848.185a1.36 1.36 0 0 0-.568.506 1.466 1.466 0 0 0-.198.772c0 .292.069.55.205.773.137.223.326.399.568.526.246.128.526.192.841.192Zm5.954 6.036a1.075 1.075 0 0 1-1.101-1.094c0-.305.105-.563.314-.772a1.07 1.07 0 0 1 .787-.322c.31 0 .569.107.779.322.214.21.321.467.321.772s-.107.565-.321.78a1.06 1.06 0 0 1-.779.314Zm2.611-.117v-1.326l3.541-3.472c.333-.342.611-.645.834-.91a3.35 3.35 0 0 0 .513-.765 1.91 1.91 0 0 0 .171-.8c0-.319-.073-.595-.219-.827a1.428 1.428 0 0 0-.602-.533 1.93 1.93 0 0 0-.861-.185c-.337 0-.631.069-.882.205-.251.137-.447.33-.588.581a1.84 1.84 0 0 0-.205.896h-1.75c0-.643.146-1.201.438-1.675.296-.478.704-.85 1.223-1.114.52-.265 1.114-.397 1.784-.397.689 0 1.29.128 1.805.383a2.95 2.95 0 0 1 1.203 1.053c.287.442.431.948.431 1.517 0 .383-.073.76-.219 1.128-.146.365-.403.773-.772 1.224-.365.447-.878.987-1.538 1.62l-1.75 1.784v.075h4.429v1.538h-6.986Zm13.644-1.914v-.533c0-.396.083-.76.247-1.094.164-.332.407-.599.731-.8.324-.2.716-.3 1.176-.3.469 0 .863.1 1.182.3.319.201.559.468.718.8.164.329.246.693.246 1.094v.533c0 .397-.082.762-.246 1.094-.164.333-.405.6-.724.8-.319.2-.711.3-1.176.3-.465 0-.859-.1-1.183-.3a1.933 1.933 0 0 1-.731-.8 2.49 2.49 0 0 1-.24-1.094Zm1.292-.533v.533c0 .265.064.506.192.725.127.219.351.328.67.328.314 0 .533-.11.656-.328.123-.219.185-.46.185-.725v-.533c0-.264-.06-.506-.178-.724-.114-.22-.335-.328-.663-.328-.315 0-.538.109-.67.328-.128.218-.192.46-.192.724Zm-6.466-5.29v-.534c0-.401.084-.766.253-1.094.168-.332.412-.599.731-.8.319-.2.706-.3 1.162-.3.474 0 .871.1 1.19.3.319.201.56.468.724.8.164.328.244.693.239 1.094v.533c.005.397-.077.761-.246 1.094a1.99 1.99 0 0 1-.731.8c-.319.196-.711.294-1.176.294-.465 0-.857-.1-1.176-.301-.319-.2-.56-.467-.724-.8a2.424 2.424 0 0 1-.246-1.087Zm1.305-.534v.533c0 .264.062.506.185.725.123.219.342.326.656.321.324.005.545-.102.663-.321.123-.219.185-.46.185-.725v-.533c0-.264-.059-.506-.178-.725-.114-.223-.337-.335-.67-.335-.31 0-.528.112-.656.335a1.478 1.478 0 0 0-.185.725Zm-.745 8.272 7-10.186h1.251l-7 10.185h-1.251Z"/><path stroke="#DDE5ED" d="M30 88.166h243.185"/><rect width="46.667" height="46.667" x="30" y="100.667" fill="#EDF1F4" rx="9.333"/><path fill="url(#e)" d="M67.175 114.68a37.085 37.085 0 0 0-27.686 0c-.45.18-.691.72-.51 1.171.18.45.72.69 1.17.51a35.416 35.416 0 0 1 26.365 0c.12.03.21.06.33.06.36 0 .69-.21.841-.57.18-.481-.03-.991-.51-1.171Z"/><path fill="url(#f)" d="M65.613 118.583a33.056 33.056 0 0 0-9.279-2.252c-.48-.03-.87.271-.96.721v.03l-2.043 12.462-2.042-12.462v-.03c-.09-.45-.51-.781-.96-.721a33.307 33.307 0 0 0-9.28 2.252.817.817 0 0 0-.51.571c-.09.27-.06.54.09.751l1.592 2.492c.18.27.45.42.75.42a.91.91 0 0 0 .481-.15c.42-.27.54-.811.27-1.231l-.99-1.561a32.551 32.551 0 0 1 6.906-1.652l2.793 17.026c.06.45.45.751.9.751h.15c.39-.06.661-.361.751-.721l2.793-17.026c2.342.27 4.654.841 6.906 1.652l-.99 1.561c-.27.42-.15.991.27 1.231.15.09.33.15.48.15.3 0 .6-.15.75-.42l1.592-2.492a.844.844 0 0 0 .09-.751.808.808 0 0 0-.51-.601Z"/><path fill="#4D585F" d="M87.246 107.925v-1.232h7.362v1.232h-2.96v8.275h-1.43v-8.275h-2.972Zm10.368 8.421c-.698 0-1.302-.151-1.813-.453a3.03 3.03 0 0 1-1.18-1.276c-.272-.553-.408-1.197-.408-1.933 0-.731.134-1.376.402-1.933a3.134 3.134 0 0 1 1.142-1.302c.493-.314 1.072-.472 1.735-.472.404 0 .796.066 1.174.198.379.132.719.34 1.021.625.302.285.54.655.715 1.111.178.455.268 1.003.268 1.646v.497h-5.672v-1.04h4.957l-.644.345c0-.438-.068-.825-.205-1.161a1.697 1.697 0 0 0-.612-.785c-.268-.192-.602-.287-1.002-.287s-.742.095-1.027.287a1.86 1.86 0 0 0-.644.759 2.388 2.388 0 0 0-.224 1.034v.708c0 .489.085.904.256 1.244.17.34.406.6.708.778a2.07 2.07 0 0 0 1.065.268c.264 0 .502-.038.715-.114a1.466 1.466 0 0 0 .919-.913l1.314.249a2.406 2.406 0 0 1-.562 1.008 2.714 2.714 0 0 1-1.014.676 3.781 3.781 0 0 1-1.385.236Zm9.359-5.531-1.257.217a1.55 1.55 0 0 0-.453-.657c-.217-.2-.542-.3-.976-.3-.391 0-.719.089-.982.268-.26.174-.39.397-.39.67 0 .238.088.431.262.58.179.149.462.268.849.357l1.142.256c.65.149 1.137.383 1.461.702.323.319.485.727.485 1.225 0 .429-.124.812-.37 1.148-.247.332-.59.593-1.028.785-.438.187-.944.28-1.518.28-.8 0-1.451-.172-1.952-.516-.502-.345-.811-.83-.926-1.455l1.334-.204c.085.349.257.612.517.791.263.179.604.268 1.02.268.451 0 .813-.096 1.085-.287.277-.192.415-.423.415-.696 0-.451-.336-.755-1.008-.912l-1.206-.268c-.668-.153-1.161-.393-1.48-.721-.315-.332-.472-.749-.472-1.25 0-.422.117-.792.35-1.111.239-.319.564-.565.977-.74a3.588 3.588 0 0 1 1.422-.268c.775 0 1.381.168 1.819.504.442.336.736.781.88 1.334Zm2.489-4.122v9.507h-1.379v-9.507h1.379Zm3.394 9.66c-.451 0-.859-.083-1.225-.249a2.05 2.05 0 0 1-.868-.74c-.213-.323-.319-.717-.319-1.18 0-.405.077-.734.23-.989.157-.26.368-.466.631-.619a3.25 3.25 0 0 1 .881-.345c.323-.076.655-.136.995-.178.43-.047.776-.088 1.04-.122s.455-.087.574-.159c.124-.077.185-.198.185-.364v-.032c0-.404-.114-.716-.344-.938-.226-.221-.562-.331-1.008-.331-.464 0-.832.102-1.104.306-.268.2-.453.427-.555.683l-1.308-.3c.157-.434.385-.783.683-1.047a2.846 2.846 0 0 1 1.033-.587c.392-.123.8-.185 1.225-.185.285 0 .587.034.906.102.319.064.619.185.9.364.285.174.517.425.695.753.179.327.268.751.268 1.27v4.734h-1.359v-.976h-.051a1.887 1.887 0 0 1-.402.523 2.123 2.123 0 0 1-.689.434c-.28.114-.619.172-1.014.172Zm.3-1.11c.387 0 .716-.075.989-.224a1.64 1.64 0 0 0 .625-.599c.144-.247.217-.509.217-.785v-.925a.79.79 0 0 1-.287.134c-.141.042-.3.078-.479.108-.178.03-.353.058-.523.083l-.427.051a3.601 3.601 0 0 0-.734.179 1.24 1.24 0 0 0-.536.344c-.132.149-.198.347-.198.594 0 .344.128.604.383.778.255.174.578.262.97.262Z"/><path fill="#1D1D1D" d="M91.546 142.326v-15.275h.968v15.275h-.968Zm.484-1.329c-.913 0-1.706-.143-2.379-.427-.667-.29-1.19-.703-1.567-1.239-.377-.535-.588-1.173-.632-1.911h1.854c.039.443.18.812.427 1.108.252.289.577.505.976.648.4.142.837.213 1.313.213.52 0 .984-.082 1.394-.246.41-.164.73-.394.96-.689.235-.301.353-.651.353-1.05 0-.361-.104-.657-.312-.886a2.232 2.232 0 0 0-.829-.566 8.087 8.087 0 0 0-1.18-.402l-1.436-.394c-.985-.262-1.761-.653-2.33-1.173-.569-.525-.853-1.211-.853-2.059 0-.705.189-1.321.566-1.846.383-.525.9-.932 1.55-1.222.656-.295 1.392-.443 2.207-.443.831 0 1.561.148 2.19.443.634.29 1.135.689 1.501 1.198a2.97 2.97 0 0 1 .583 1.731h-1.788a1.76 1.76 0 0 0-.788-1.313c-.454-.312-1.034-.468-1.74-.468-.491 0-.923.08-1.295.238-.367.154-.651.367-.853.64a1.575 1.575 0 0 0-.296.944c0 .382.118.694.353.935.24.24.53.432.87.574.344.137.675.249.992.336l1.19.32c.388.099.787.23 1.197.394.41.164.79.38 1.14.648.356.263.64.591.854.984.218.389.328.859.328 1.411 0 .684-.178 1.296-.533 1.838-.356.536-.87.96-1.543 1.271-.672.307-1.487.46-2.444.46Zm5.849-.197v-1.329l4.134-4.299c.438-.459.799-.864 1.083-1.214.29-.355.506-.691.648-1.009.148-.317.221-.653.221-1.009 0-.41-.095-.762-.287-1.058a1.89 1.89 0 0 0-.779-.681 2.54 2.54 0 0 0-1.116-.238c-.437 0-.817.091-1.14.271a1.863 1.863 0 0 0-.755.755c-.175.323-.262.703-.262 1.14h-1.755c0-.744.169-1.394.508-1.952a3.51 3.51 0 0 1 1.411-1.296c.602-.312 1.28-.468 2.034-.468.772 0 1.45.153 2.035.459a3.485 3.485 0 0 1 1.37 1.247c.328.52.492 1.108.492 1.764 0 .454-.085.897-.254 1.329-.164.432-.457.916-.878 1.452-.416.53-.995 1.17-1.739 1.919l-2.428 2.543v.099h5.496v1.575h-8.04Zm9.089-2.387v-1.485l5.274-8.351h1.173v2.199h-.754l-3.774 5.971v.099h7.244v1.567h-9.163Zm5.775 2.387v-2.838l.016-.681v-8.704h1.756V140.8h-1.772Zm4.134 3.027.722-4.783h1.92l-1.354 4.783h-1.288Zm7.695-15.25V140.8h-1.821v-10.369h-.082l-2.904 1.911v-1.771l3.035-1.994h1.772Zm1.804 12.223v-1.329l4.135-4.299c.437-.459.798-.864 1.083-1.214.289-.355.505-.691.648-1.009a2.37 2.37 0 0 0 .221-1.009c0-.41-.096-.762-.287-1.058a1.89 1.89 0 0 0-.779-.681 2.54 2.54 0 0 0-1.116-.238c-.437 0-.818.091-1.14.271a1.86 1.86 0 0 0-.755.755c-.175.323-.262.703-.262 1.14h-1.756c0-.744.17-1.394.509-1.952.344-.558.815-.99 1.411-1.296.601-.312 1.279-.468 2.034-.468.771 0 1.449.153 2.034.459a3.478 3.478 0 0 1 1.37 1.247c.328.52.493 1.108.493 1.764a3.6 3.6 0 0 1-.255 1.329c-.164.432-.456.916-.877 1.452-.416.53-.996 1.17-1.74 1.919l-2.428 2.543v.099h5.496v1.575h-8.039Zm13.634.164c-.749 0-1.422-.142-2.018-.427a3.687 3.687 0 0 1-1.419-1.189 3.14 3.14 0 0 1-.566-1.731h1.788c.044.52.276.949.697 1.288.421.339.927.508 1.518.508.47 0 .886-.109 1.247-.328.361-.218.645-.516.853-.894.208-.383.312-.82.312-1.312 0-.492-.107-.933-.32-1.321a2.373 2.373 0 0 0-.886-.927 2.447 2.447 0 0 0-1.288-.336c-.372 0-.744.065-1.116.197-.372.125-.672.289-.902.492l-1.698-.246.689-6.161h6.718v1.583h-5.176l-.385 3.421h.065c.235-.235.55-.427.944-.574.399-.153.828-.23 1.287-.23.744 0 1.406.178 1.986.533.585.35 1.044.832 1.378 1.444.333.607.5 1.304.5 2.092 0 .793-.18 1.501-.541 2.125a3.921 3.921 0 0 1-1.493 1.46c-.629.355-1.354.533-2.174.533Z"/><rect width="61" height="29" x="211.185" y="109.5" fill="#10B981" fill-opacity=".2" rx="14.5"/><path fill="#10B981" d="M225.189 128.898v-6.883h1.559v6.883h-1.559Zm-2.659-2.659v-1.565h6.877v1.565h-6.877Zm12.079 3.398c-.665 0-1.26-.123-1.784-.369a3.193 3.193 0 0 1-1.244-1.033 2.72 2.72 0 0 1-.485-1.504h1.791c.027.415.205.755.533 1.019.333.264.729.396 1.189.396.365 0 .686-.082.964-.246.278-.168.497-.398.656-.69.165-.296.247-.634.247-1.012a2.07 2.07 0 0 0-.247-1.025 1.79 1.79 0 0 0-.676-.704 1.884 1.884 0 0 0-.991-.26c-.31 0-.611.059-.903.178a1.85 1.85 0 0 0-.697.451l-1.675-.274.533-5.25h5.913v1.545h-4.381l-.294 2.701h.054c.192-.228.458-.413.8-.554a2.91 2.91 0 0 1 1.142-.219c.62 0 1.169.146 1.647.438a3.08 3.08 0 0 1 1.142 1.189c.278.506.417 1.087.417 1.743 0 .67-.155 1.269-.465 1.798-.31.524-.738.937-1.285 1.237-.547.297-1.181.445-1.901.445Zm5.777-.021a1.072 1.072 0 0 1-1.101-1.094c0-.305.105-.562.315-.772.214-.214.476-.321.786-.321.31 0 .569.107.779.321.214.21.321.467.321.772 0 .306-.107.566-.321.78a1.06 1.06 0 0 1-.779.314Zm2.611-.116v-1.326l3.541-3.473c.333-.342.611-.645.834-.909.228-.264.399-.52.513-.766.114-.25.171-.517.171-.799 0-.319-.073-.595-.219-.828a1.423 1.423 0 0 0-.602-.533 1.926 1.926 0 0 0-.861-.184c-.337 0-.631.068-.882.205-.25.136-.446.33-.588.581-.136.25-.205.549-.205.895h-1.75c0-.642.146-1.201.438-1.675a3.023 3.023 0 0 1 1.223-1.114c.52-.264 1.115-.396 1.785-.396.688 0 1.289.127 1.804.383a2.95 2.95 0 0 1 1.203 1.052c.287.442.431.948.431 1.518 0 .383-.073.759-.219 1.128-.146.364-.403.772-.772 1.223-.365.447-.877.987-1.538 1.621l-1.75 1.784v.075h4.429v1.538h-6.986Zm13.645-1.914v-.533c0-.397.082-.761.246-1.094.164-.333.408-.599.731-.8.324-.2.716-.301 1.176-.301.469 0 .864.101 1.183.301.319.201.558.467.717.8.164.328.246.693.246 1.094v.533c0 .396-.082.761-.246 1.094a1.942 1.942 0 0 1-.724.799c-.319.201-.711.301-1.176.301-.465 0-.859-.1-1.183-.301a1.932 1.932 0 0 1-.731-.799 2.493 2.493 0 0 1-.239-1.094Zm1.292-.533v.533c0 .264.063.506.191.725.128.218.351.328.67.328.314 0 .533-.11.656-.328.123-.219.185-.461.185-.725v-.533c0-.265-.06-.506-.178-.725-.114-.219-.335-.328-.663-.328-.315 0-.538.109-.67.328-.128.219-.191.46-.191.725Zm-6.467-5.291v-.533c0-.402.084-.766.253-1.094.168-.333.412-.6.731-.8.319-.201.707-.301 1.162-.301.474 0 .871.1 1.19.301.319.2.56.467.724.8.164.328.244.692.24 1.094v.533c.004.396-.078.761-.246 1.093-.169.333-.413.6-.732.8-.319.196-.711.294-1.176.294-.465 0-.856-.1-1.175-.301-.32-.2-.561-.467-.725-.799a2.425 2.425 0 0 1-.246-1.087Zm1.305-.533v.533c0 .264.062.506.185.724.123.219.342.326.656.322.324.004.545-.103.663-.322a1.45 1.45 0 0 0 .185-.724v-.533c0-.265-.059-.506-.178-.725-.114-.223-.337-.335-.67-.335-.31 0-.528.112-.656.335a1.478 1.478 0 0 0-.185.725Zm-.745 8.271 7-10.186h1.251l-7 10.186h-1.251Z"/><path stroke="#DDE5ED" d="M30 158.833h243.185"/><rect width="46.667" height="46.667" x="30" y="171.333" fill="#EDF1F4" rx="9.333"/><path fill="url(#g)" fill-rule="evenodd" d="m41.26 198.084 4.954 2.861v5.721l-4.954-2.861v-5.721Zm6.396-10.832 4.956 2.86v5.247l-4.956-2.861v-5.246Zm11.355 19.414-4.959-2.863v-.256l.003-.082v-5.381l4.956 2.861v5.721Zm-4.956-16.554 4.956-2.86v5.246l-4.956 2.861v-5.247Zm-1.44 13.691-4.96 2.863v-5.721l4.957-2.861v5.381c0 .027.003.054.003.082v.256Zm7.838 2.864v-5.722l4.954-2.861v5.721l-4.954 2.862Zm4.233-9.833-5.15-2.973-4.954 2.861 5.15 2.973 4.954-2.861Zm-11.353-14.167-5.367 3.098 5.367 3.098 5.365-3.098-5.365-3.098Zm-6.202 11.194-5.15 2.973 4.954 2.861 5.15-2.973-4.954-2.861Z" clip-rule="evenodd"/><path fill="#4D585F" d="M91.686 186.994c-.816 0-1.548-.195-2.195-.587-.646-.391-1.154-.95-1.524-1.678-.37-.731-.555-1.601-.555-2.609 0-1.017.184-1.889.555-2.616.374-.732.882-1.293 1.525-1.684.646-.392 1.378-.587 2.194-.587.502 0 .972.072 1.41.217.443.144.838.355 1.187.631.349.277.636.615.861 1.015.23.399.383.852.46 1.359h-1.442a2.166 2.166 0 0 0-.313-.817 2.147 2.147 0 0 0-.555-.6 2.253 2.253 0 0 0-.734-.37 2.812 2.812 0 0 0-.855-.127c-.544 0-1.035.138-1.473.414-.434.272-.777.677-1.028 1.212-.246.532-.37 1.183-.37 1.953 0 .774.126 1.427.377 1.959.25.527.593.927 1.027 1.199.434.272.92.408 1.461.408.302 0 .587-.04.855-.121.268-.081.513-.202.734-.364a2.196 2.196 0 0 0 .874-1.397h1.442a3.764 3.764 0 0 1-.44 1.295 3.647 3.647 0 0 1-.85 1.008c-.344.281-.737.5-1.18.658a4.404 4.404 0 0 1-1.448.229Zm4.99-.127v-7.133h1.333v1.142h.077a1.75 1.75 0 0 1 .689-.906 1.947 1.947 0 0 1 1.123-.338c.085 0 .185.004.299.012.12.005.215.011.288.019v1.328a1.965 1.965 0 0 0-.3-.052 3.566 3.566 0 0 0-.428-.025c-.327 0-.62.07-.88.211a1.558 1.558 0 0 0-.606.567 1.57 1.57 0 0 0-.217.83v4.345h-1.378Zm5.563 2.667a2.65 2.65 0 0 1-.568-.045 1.618 1.618 0 0 1-.383-.108l.339-1.13.095.026c.353.089.651.083.894-.019.246-.098.453-.373.618-.823l.173-.473-2.603-7.228h1.486l1.799 5.538h.077l1.806-5.538h1.486l-2.935 8.077a3.202 3.202 0 0 1-.517.944c-.208.26-.459.453-.752.581-.29.132-.628.198-1.015.198Zm5.985 0v-9.8h1.34v1.161h.114c.086-.149.202-.321.351-.517a1.95 1.95 0 0 1 .638-.51c.273-.149.628-.224 1.066-.224.574 0 1.085.145 1.531.434.451.289.806.708 1.066 1.257.259.549.389 1.21.389 1.984 0 .766-.128 1.425-.383 1.978-.255.549-.608.972-1.059 1.27a2.74 2.74 0 0 1-1.538.44c-.429 0-.782-.072-1.059-.217a2.107 2.107 0 0 1-.644-.517 4.62 4.62 0 0 1-.358-.516h-.076v3.777h-1.378Zm3.215-3.707c.413 0 .758-.111 1.034-.332.276-.221.485-.521.625-.9a3.61 3.61 0 0 0 .217-1.288c0-.473-.07-.896-.21-1.27a1.984 1.984 0 0 0-.626-.887c-.276-.217-.623-.325-1.04-.325-.404 0-.744.104-1.02.312-.277.204-.487.494-.632.868-.14.37-.211.804-.211 1.302 0 .497.073.935.217 1.314.145.378.355.674.632.887.281.212.619.319 1.014.319Zm7.606-6.093v1.116h-3.892v-1.116h3.892Zm-2.852-1.698h1.384v6.738c0 .328.068.568.204.721.136.149.355.223.657.223a2.335 2.335 0 0 0 .485-.051l.262 1.149a3.212 3.212 0 0 1-.957.146c-.617 0-1.11-.172-1.48-.516-.37-.349-.555-.813-.555-1.391v-7.019Zm6.763 8.977c-.668 0-1.253-.153-1.755-.459a3.099 3.099 0 0 1-1.161-1.289c-.272-.553-.408-1.195-.408-1.927 0-.74.136-1.386.408-1.939a3.091 3.091 0 0 1 1.161-1.295c.502-.307 1.087-.46 1.755-.46.672 0 1.257.153 1.754.46.498.306.885.738 1.161 1.295.277.553.415 1.199.415 1.939 0 .732-.138 1.374-.415 1.927a3.099 3.099 0 0 1-1.161 1.289c-.497.306-1.082.459-1.754.459Zm0-1.167c.438 0 .799-.115 1.084-.345.285-.229.496-.533.632-.912.14-.383.21-.8.21-1.251 0-.459-.07-.88-.21-1.263a2.017 2.017 0 0 0-.632-.919c-.285-.229-.646-.344-1.084-.344-.434 0-.794.115-1.079.344-.28.23-.491.536-.631.919a3.63 3.63 0 0 0-.211 1.263c0 .451.07.868.211 1.251.14.379.351.683.631.912.285.23.645.345 1.079.345Z"/><path fill="#1D1D1D" d="M91.546 212.993v-15.275h.968v15.275h-.968Zm.484-1.329c-.913 0-1.706-.143-2.379-.427-.667-.29-1.19-.703-1.567-1.239-.377-.535-.588-1.173-.632-1.911h1.854c.039.443.18.812.427 1.108.252.289.577.505.976.648.4.142.837.213 1.313.213.52 0 .984-.082 1.394-.246.41-.164.73-.394.96-.689.235-.301.353-.651.353-1.05 0-.361-.104-.657-.312-.886a2.232 2.232 0 0 0-.829-.566 8.087 8.087 0 0 0-1.18-.402l-1.436-.394c-.985-.262-1.761-.653-2.33-1.173-.569-.525-.853-1.211-.853-2.059 0-.705.189-1.321.566-1.846.383-.525.9-.932 1.55-1.222.656-.295 1.392-.443 2.207-.443.831 0 1.561.148 2.19.443.634.29 1.135.689 1.501 1.198a2.97 2.97 0 0 1 .583 1.731h-1.788a1.76 1.76 0 0 0-.788-1.313c-.454-.312-1.034-.468-1.74-.468-.491 0-.923.08-1.295.238-.367.154-.651.367-.853.64a1.575 1.575 0 0 0-.296.944c0 .382.118.694.353.935.24.24.53.432.87.574.344.137.675.249.992.336l1.19.32c.388.099.787.23 1.197.394.41.164.79.38 1.14.648.356.263.64.591.854.984.218.389.328.859.328 1.411 0 .684-.178 1.296-.533 1.838-.356.536-.87.96-1.543 1.271-.672.307-1.487.46-2.444.46Zm5.849-.197v-1.329l4.134-4.299c.438-.459.799-.864 1.083-1.214.29-.355.506-.691.648-1.009.148-.317.221-.653.221-1.009 0-.41-.095-.762-.287-1.058a1.89 1.89 0 0 0-.779-.681 2.54 2.54 0 0 0-1.116-.238c-.437 0-.817.091-1.14.271a1.863 1.863 0 0 0-.755.755c-.175.323-.262.703-.262 1.14h-1.755c0-.744.169-1.394.508-1.952a3.51 3.51 0 0 1 1.411-1.296c.602-.312 1.28-.468 2.034-.468.772 0 1.45.153 2.035.459a3.485 3.485 0 0 1 1.37 1.247c.328.52.492 1.108.492 1.764 0 .454-.085.897-.254 1.329-.164.432-.457.916-.878 1.452-.416.53-.995 1.17-1.739 1.919l-2.428 2.543v.099h5.496v1.575h-8.04Zm9.45 3.027.722-4.783h1.919l-1.353 4.783h-1.288Zm7.694-15.25v12.223h-1.821v-10.369h-.082l-2.904 1.911v-1.771l3.035-1.994h1.772Zm1.805 12.223v-1.329l4.134-4.299c.438-.459.799-.864 1.083-1.214.29-.355.506-.691.648-1.009.148-.317.222-.653.222-1.009 0-.41-.096-.762-.287-1.058a1.898 1.898 0 0 0-.78-.681 2.539 2.539 0 0 0-1.115-.238c-.438 0-.818.091-1.141.271a1.858 1.858 0 0 0-.754.755c-.175.323-.263.703-.263 1.14h-1.755c0-.744.169-1.394.508-1.952a3.51 3.51 0 0 1 1.411-1.296c.602-.312 1.28-.468 2.035-.468.771 0 1.449.153 2.034.459a3.485 3.485 0 0 1 1.37 1.247c.328.52.492 1.108.492 1.764 0 .454-.085.897-.254 1.329-.164.432-.457.916-.878 1.452-.416.53-.995 1.17-1.739 1.919l-2.428 2.543v.099h5.496v1.575h-8.039Zm13.634.164c-.75 0-1.422-.142-2.018-.427a3.697 3.697 0 0 1-1.42-1.189 3.148 3.148 0 0 1-.566-1.731h1.789c.043.52.276.949.697 1.288.421.339.927.508 1.518.508.47 0 .885-.109 1.246-.328.361-.218.646-.516.854-.894.207-.383.311-.82.311-1.312a2.69 2.69 0 0 0-.32-1.321 2.36 2.36 0 0 0-.886-.927 2.444 2.444 0 0 0-1.288-.336c-.371 0-.743.065-1.115.197-.372.125-.673.289-.902.492l-1.699-.246.69-6.161h6.718v1.583h-5.176l-.386 3.421h.066c.235-.235.549-.427.943-.574a3.57 3.57 0 0 1 1.288-.23c.744 0 1.406.178 1.985.533.585.35 1.045.832 1.378 1.444.334.607.501 1.304.501 2.092 0 .793-.181 1.501-.542 2.125a3.914 3.914 0 0 1-1.493 1.46c-.629.355-1.353.533-2.173.533Z"/><rect width="58" height="29" x="211.185" y="180.167" fill="#FF0D0D" fill-opacity=".2" rx="14.5"/><path fill="#FF0D0D" d="M226.807 195.19v1.477h-4.58v-1.477h4.58Zm.984 4.977v-1.326l3.541-3.473c.333-.342.611-.645.834-.909.228-.264.399-.52.513-.766.114-.25.171-.517.171-.799 0-.319-.073-.595-.219-.828a1.423 1.423 0 0 0-.602-.533 1.926 1.926 0 0 0-.861-.184c-.337 0-.631.068-.882.205-.251.136-.446.33-.588.581-.136.25-.205.549-.205.895h-1.75c0-.642.146-1.201.438-1.675a3.023 3.023 0 0 1 1.223-1.114c.52-.264 1.115-.396 1.784-.396.689 0 1.29.127 1.805.383a2.95 2.95 0 0 1 1.203 1.052c.287.442.431.948.431 1.518 0 .383-.073.759-.219 1.128-.146.364-.403.772-.772 1.223-.365.447-.878.987-1.538 1.621l-1.75 1.784v.075h4.429v1.538h-6.986Zm9.529.116c-.31 0-.572-.105-.786-.314a1.075 1.075 0 0 1-.314-.78c0-.305.105-.562.314-.772.214-.214.476-.321.786-.321.31 0 .57.107.78.321.214.21.321.467.321.772 0 .306-.107.566-.321.78-.21.209-.47.314-.78.314Zm5.927.021c-.715 0-1.351-.121-1.907-.363-.556-.246-.996-.587-1.319-1.025a2.613 2.613 0 0 1-.5-1.518h1.86c.014.278.102.52.266.725.169.201.392.358.67.472.278.109.588.164.93.164.365 0 .686-.064.964-.192.282-.132.504-.31.663-.533.16-.228.239-.49.239-.786 0-.31-.082-.583-.246-.82a1.557 1.557 0 0 0-.697-.554c-.305-.132-.672-.198-1.101-.198h-.909v-1.422h.909c.347 0 .654-.062.923-.185a1.5 1.5 0 0 0 .629-.512c.15-.224.226-.483.226-.78 0-.287-.066-.537-.199-.752a1.29 1.29 0 0 0-.546-.499 1.85 1.85 0 0 0-.834-.177c-.31 0-.6.057-.869.171a1.572 1.572 0 0 0-.642.471c-.16.205-.244.451-.253.738h-1.771c.01-.569.171-1.07.486-1.503a3.178 3.178 0 0 1 1.278-1.012c.533-.246 1.13-.369 1.791-.369.675 0 1.262.127 1.764.383.506.25.895.59 1.169 1.018.278.428.417.9.417 1.415 0 .574-.169 1.055-.506 1.443-.337.387-.782.642-1.333.765v.075c.711.101 1.255.365 1.634.793.382.429.574.962.574 1.6 0 .57-.162 1.08-.486 1.531-.323.447-.767.798-1.333 1.053-.565.255-1.212.383-1.941.383Zm10.398-2.051v-.533c0-.397.082-.761.246-1.094.164-.333.408-.599.731-.8.324-.2.716-.301 1.176-.301.469 0 .863.101 1.182.301.319.201.559.467.718.8.164.328.246.693.246 1.094v.533c0 .396-.082.761-.246 1.094a1.942 1.942 0 0 1-.724.799c-.319.201-.711.301-1.176.301-.465 0-.859-.1-1.183-.301a1.932 1.932 0 0 1-.731-.799 2.493 2.493 0 0 1-.239-1.094Zm1.292-.533v.533c0 .264.063.506.191.725.128.218.351.328.67.328.314 0 .533-.11.656-.328.123-.219.185-.461.185-.725v-.533c0-.265-.06-.506-.178-.725-.114-.219-.335-.328-.663-.328-.315 0-.538.109-.67.328-.128.219-.191.46-.191.725Zm-6.467-5.291v-.533c0-.402.084-.766.253-1.094.168-.333.412-.6.731-.8.319-.201.706-.301 1.162-.301.474 0 .871.1 1.19.301.319.2.56.467.724.8.164.328.244.692.24 1.094v.533c.004.396-.078.761-.247 1.093-.168.333-.412.6-.731.8-.319.196-.711.294-1.176.294-.465 0-.857-.1-1.176-.301-.319-.2-.56-.467-.724-.799a2.425 2.425 0 0 1-.246-1.087Zm1.305-.533v.533c0 .264.062.506.185.724.123.219.342.326.656.322.324.004.545-.103.663-.322a1.45 1.45 0 0 0 .185-.724v-.533c0-.265-.059-.506-.178-.725-.114-.223-.337-.335-.67-.335-.31 0-.528.112-.656.335a1.478 1.478 0 0 0-.185.725Zm-.745 8.271 7-10.186h1.251l-7 10.186h-1.251Z"/><path stroke="#DDE5ED" d="M30 229.5h243.185"/><rect width="46.667" height="46.667" x="30" y="242" fill="#EDF1F4" rx="9.333"/><path fill="url(#h)" fill-rule="evenodd" d="m60.697 265.558-7.365 4.352-7.368-4.352 7.368-12.225 7.365 12.225Z" clip-rule="evenodd"/><path fill="url(#i)" fill-rule="evenodd" d="m60.703 266.954-7.37 10.379-7.369-10.379 7.368 4.352 7.37-4.352Z" clip-rule="evenodd"/><path fill="#4D585F" d="M87.718 257.533v-9.506h3.49c.672 0 1.229.11 1.671.331.443.222.772.522.99.9.22.374.331.795.331 1.263 0 .396-.074.73-.223 1.002a1.763 1.763 0 0 1-.58.651 2.64 2.64 0 0 1-.805.357v.089c.32.017.63.12.932.307.302.187.55.453.746.797.2.34.3.757.3 1.251 0 .485-.115.921-.344 1.308-.226.382-.575.687-1.047.912-.472.225-1.078.338-1.818.338h-3.643Zm1.435-1.225h2.067c.69 0 1.183-.134 1.48-.402.299-.268.447-.602.447-1.001a1.52 1.52 0 0 0-.23-.823 1.6 1.6 0 0 0-.644-.6 2.094 2.094 0 0 0-.995-.224h-2.125v3.05Zm0-4.166h1.927a2 2 0 0 0 .868-.185c.26-.123.464-.298.612-.523.153-.23.23-.496.23-.798a1.3 1.3 0 0 0-.415-.982c-.272-.268-.69-.402-1.257-.402h-1.965v2.89Zm6.463 5.391V250.4h1.379v7.133h-1.379Zm.696-8.23a.865.865 0 0 1-.619-.243.771.771 0 0 1-.255-.58c0-.23.085-.426.255-.587a.865.865 0 0 1 .619-.243c.238 0 .442.081.612.243a.77.77 0 0 1 .262.587.763.763 0 0 1-.262.58.857.857 0 0 1-.612.243Zm5.327 1.097v1.117h-3.891V250.4h3.891Zm-2.852-1.697h1.385v6.737c0 .328.068.568.204.721.136.149.355.224.657.224a2.802 2.802 0 0 0 .485-.051l.262 1.148a2.846 2.846 0 0 1-.46.109 3.327 3.327 0 0 1-.497.038c-.617 0-1.11-.172-1.48-.517-.37-.349-.556-.812-.556-1.391v-7.018Zm6.763 8.977c-.684 0-1.276-.157-1.773-.472a3.108 3.108 0 0 1-1.149-1.302c-.268-.553-.402-1.186-.402-1.901 0-.727.136-1.368.409-1.92a3.142 3.142 0 0 1 1.155-1.302c.497-.315 1.08-.472 1.748-.472.544 0 1.027.1 1.448.3.425.195.768.474 1.027.835.264.362.419.783.466 1.264h-1.353a1.576 1.576 0 0 0-.274-.619 1.417 1.417 0 0 0-.523-.447 1.687 1.687 0 0 0-.772-.166c-.387 0-.725.102-1.015.307-.285.2-.508.487-.67.861-.161.374-.242.817-.242 1.327 0 .515.079.963.236 1.346.157.383.381.679.67.887.293.204.634.306 1.021.306.4 0 .74-.11 1.021-.331.285-.222.468-.524.548-.906h1.353a2.588 2.588 0 0 1-.447 1.237 2.603 2.603 0 0 1-1.008.855c-.421.209-.912.313-1.474.313Zm6.904 0c-.668 0-1.253-.153-1.755-.459a3.118 3.118 0 0 1-1.161-1.289c-.272-.553-.408-1.195-.408-1.927 0-.74.136-1.387.408-1.94a3.104 3.104 0 0 1 1.161-1.295c.502-.306 1.087-.459 1.755-.459.672 0 1.257.153 1.754.459a3.1 3.1 0 0 1 1.162 1.295c.276.553.414 1.2.414 1.94 0 .732-.138 1.374-.414 1.927a3.114 3.114 0 0 1-1.162 1.289c-.497.306-1.082.459-1.754.459Zm0-1.168c.438 0 .799-.114 1.084-.344a2.02 2.02 0 0 0 .632-.913c.14-.382.211-.799.211-1.25a3.65 3.65 0 0 0-.211-1.263 2.017 2.017 0 0 0-.632-.919c-.285-.23-.646-.345-1.084-.345-.434 0-.793.115-1.078.345a2.08 2.08 0 0 0-.632.919 3.65 3.65 0 0 0-.211 1.263c0 .451.071.868.211 1.25.14.379.351.683.632.913.285.23.644.344 1.078.344Zm4.332 1.021V250.4h1.378v7.133h-1.378Zm.695-8.23a.863.863 0 0 1-.618-.243.77.77 0 0 1-.256-.58c0-.23.085-.426.256-.587a.863.863 0 0 1 .618-.243c.239 0 .443.081.613.243a.772.772 0 0 1 .262.587.765.765 0 0 1-.262.58.856.856 0 0 1-.613.243Zm3.388 4v4.23h-1.378V250.4h1.34v1.174h.096c.161-.387.414-.693.759-.919.345-.229.787-.344 1.327-.344.485 0 .908.102 1.27.306.366.2.648.5.848.9.204.399.307.895.307 1.486v4.53h-1.379v-4.364c0-.515-.136-.919-.408-1.212-.272-.298-.642-.447-1.11-.447a1.72 1.72 0 0 0-.861.217 1.52 1.52 0 0 0-.594.606c-.144.264-.217.587-.217.97Z"/><path fill="#1D1D1D" d="M87.936 282.133v-12.222h7.67v1.583h-5.824v3.683h5.414v1.575h-5.414v3.798h5.882v1.583h-7.728Zm13.552-9.171v1.436h-5.004v-1.436h5.004Zm-3.667-2.182h1.78v8.663c0 .421.088.73.263.927.175.191.457.287.845.287a3.372 3.372 0 0 0 .623-.066l.337 1.477c-.181.06-.378.106-.591.139a4.18 4.18 0 0 1-.64.049c-.793 0-1.427-.221-1.903-.664-.476-.449-.714-1.045-.714-1.788v-9.024Zm6.916 5.915v5.438h-1.772v-12.222h1.747v4.561h.123c.213-.498.539-.892.976-1.182.443-.295 1.02-.443 1.731-.443.629 0 1.179.129 1.649.386s.837.642 1.099 1.157c.268.514.402 1.153.402 1.919v5.824h-1.788v-5.611c0-.678-.175-1.203-.525-1.575-.345-.372-.826-.557-1.444-.557-.427 0-.804.093-1.132.278a1.98 1.98 0 0 0-.779.78c-.192.339-.287.754-.287 1.247Zm11.607 5.627c-.897 0-1.673-.194-2.33-.582a3.904 3.904 0 0 1-1.517-1.641c-.35-.711-.525-1.54-.525-2.486 0-.94.172-1.769.516-2.485.35-.717.84-1.274 1.469-1.674.634-.404 1.378-.607 2.231-.607.52 0 1.023.085 1.509.255.487.169.925.437 1.313.804.388.366.694.842.919 1.427.229.585.344 1.291.344 2.116v.64h-7.292v-1.337h6.373l-.828.443c0-.563-.088-1.061-.263-1.493a2.183 2.183 0 0 0-.787-1.009c-.345-.246-.774-.369-1.288-.369s-.954.123-1.321.369a2.399 2.399 0 0 0-.828.976 3.062 3.062 0 0 0-.287 1.329v.911c0 .629.109 1.162.328 1.599.219.438.522.771.91 1.001.394.23.851.345 1.37.345.339 0 .646-.05.919-.148.279-.098.52-.246.722-.443.202-.197.355-.44.459-.73l1.69.32a3.1 3.1 0 0 1-.722 1.296 3.486 3.486 0 0 1-1.304.869c-.52.203-1.113.304-1.78.304Zm5.176-.189v-9.171h1.715v1.469h.098a2.25 2.25 0 0 1 .886-1.165 2.51 2.51 0 0 1 1.444-.435c.109 0 .238.005.385.016.153.006.276.014.369.025v1.706a2.41 2.41 0 0 0-.385-.065 4.55 4.55 0 0 0-.55-.033c-.421 0-.798.09-1.132.27a2 2 0 0 0-.779.731 2.01 2.01 0 0 0-.279 1.066v5.586h-1.772Zm9.376.189c-.897 0-1.673-.194-2.329-.582a3.9 3.9 0 0 1-1.518-1.641c-.35-.711-.525-1.54-.525-2.486 0-.94.172-1.769.517-2.485.35-.717.839-1.274 1.468-1.674.635-.404 1.378-.607 2.231-.607.52 0 1.023.085 1.51.255a3.62 3.62 0 0 1 1.312.804c.389.366.695.842.919 1.427.23.585.345 1.291.345 2.116v.64h-7.293v-1.337h6.374l-.829.443c0-.563-.087-1.061-.262-1.493a2.185 2.185 0 0 0-.788-1.009c-.344-.246-.774-.369-1.288-.369s-.954.123-1.32.369a2.409 2.409 0 0 0-.829.976 3.076 3.076 0 0 0-.287 1.329v.911c0 .629.109 1.162.328 1.599.219.438.522.771.911 1.001.394.23.85.345 1.37.345.339 0 .645-.05.918-.148a1.885 1.885 0 0 0 1.182-1.173l1.69.32a3.111 3.111 0 0 1-.722 1.296c-.345.372-.78.662-1.305.869-.519.203-1.113.304-1.78.304Zm10.984-3.979v-5.381h1.772v9.171h-1.739v-1.591h-.098a2.992 2.992 0 0 1-1.018 1.222c-.459.328-1.033.49-1.722.484-.591 0-1.113-.128-1.567-.385-.448-.257-.801-.643-1.058-1.157-.252-.514-.378-1.151-.378-1.911v-5.833h1.772v5.628c0 .618.175 1.112.525 1.484.35.372.802.555 1.354.55a2.2 2.2 0 0 0 .992-.246c.334-.164.61-.416.829-.755.224-.339.336-.765.336-1.28Zm3.478 3.79v-9.171h1.698v1.51h.123c.192-.509.504-.905.936-1.19.437-.29.957-.435 1.558-.435.613 0 1.124.145 1.534.435.416.285.725.681.927 1.19h.099a2.565 2.565 0 0 1 1.041-1.182c.476-.295 1.042-.443 1.698-.443.832 0 1.513.263 2.043.788.531.519.796 1.304.796 2.354v6.144h-1.789v-5.98c0-.623-.169-1.072-.508-1.345a1.85 1.85 0 0 0-1.214-.418c-.58 0-1.031.18-1.354.541-.317.355-.475.807-.475 1.353v5.849h-1.789v-6.095c0-.497-.153-.896-.459-1.197-.306-.301-.708-.451-1.206-.451-.339 0-.654.09-.943.27a1.944 1.944 0 0 0-.689.739c-.17.311-.255.672-.255 1.082v5.652h-1.772Z"/><rect width="61" height="29" x="211.185" y="250.833" fill="#1D1D1D" fill-opacity=".2" rx="14.5"/><path fill="#1D1D1D" d="M225.183 270.232v-6.884h1.558v6.884h-1.558Zm-2.66-2.659v-1.566h6.877v1.566h-6.877Zm12.08 3.397c-.666 0-1.261-.123-1.785-.369a3.2 3.2 0 0 1-1.244-1.032 2.725 2.725 0 0 1-.485-1.504h1.791c.027.415.205.754.533 1.018.333.265.729.397 1.19.397.364 0 .685-.082.963-.246.278-.169.497-.399.657-.691a2.05 2.05 0 0 0 .246-1.011c0-.388-.082-.729-.246-1.026-.164-.3-.39-.535-.677-.704a1.884 1.884 0 0 0-.991-.26c-.31 0-.611.06-.903.178a1.863 1.863 0 0 0-.697.451l-1.675-.273.533-5.25h5.914v1.545h-4.382l-.294 2.7h.054c.192-.228.458-.412.8-.554a2.93 2.93 0 0 1 1.142-.218c.62 0 1.169.145 1.647.437.483.287.864.684 1.142 1.19.278.505.417 1.086.417 1.743 0 .67-.155 1.269-.465 1.798-.31.524-.738.936-1.285 1.237-.547.296-1.18.444-1.9.444Zm5.776-.02a1.08 1.08 0 0 1-1.101-1.094c0-.305.105-.563.315-.773.214-.214.476-.321.786-.321.31 0 .57.107.779.321.214.21.321.468.321.773s-.107.565-.321.779c-.209.21-.469.315-.779.315Zm6.036.02c-.665 0-1.26-.123-1.784-.369a3.192 3.192 0 0 1-1.244-1.032 2.726 2.726 0 0 1-.486-1.504h1.791c.028.415.205.754.534 1.018.332.265.729.397 1.189.397.365 0 .686-.082.964-.246.278-.169.497-.399.656-.691a2.05 2.05 0 0 0 .246-1.011c0-.388-.082-.729-.246-1.026a1.799 1.799 0 0 0-.677-.704 1.881 1.881 0 0 0-.991-.26c-.31 0-.61.06-.902.178a1.855 1.855 0 0 0-.697.451l-1.675-.273.533-5.25h5.913v1.545h-4.382l-.294 2.7h.055c.191-.228.458-.412.8-.554a2.926 2.926 0 0 1 1.141-.218c.62 0 1.169.145 1.648.437a3.08 3.08 0 0 1 1.141 1.19c.278.505.417 1.086.417 1.743 0 .67-.155 1.269-.464 1.798-.31.524-.739.936-1.286 1.237-.546.296-1.18.444-1.9.444Zm10.233-2.051v-.533c0-.396.082-.761.247-1.094.164-.332.407-.599.731-.799.324-.201.715-.301 1.176-.301.469 0 .863.1 1.182.301.319.2.559.467.718.799.164.329.246.693.246 1.094v.533c0 .397-.082.762-.246 1.094a1.945 1.945 0 0 1-.724.8c-.319.201-.711.301-1.176.301-.465 0-.859-.1-1.183-.301a1.935 1.935 0 0 1-.731-.8 2.488 2.488 0 0 1-.24-1.094Zm1.292-.533v.533c0 .265.064.506.192.725.127.219.351.328.67.328.314 0 .533-.109.656-.328.123-.219.185-.46.185-.725v-.533c0-.264-.06-.506-.178-.724-.114-.219-.335-.329-.663-.329-.315 0-.538.11-.67.329-.128.218-.192.46-.192.724Zm-6.466-5.291v-.533c0-.401.084-.766.253-1.094.168-.332.412-.599.731-.8.319-.2.706-.3 1.162-.3.474 0 .871.1 1.19.3.319.201.56.468.724.8.164.328.244.693.239 1.094v.533c.005.397-.077.761-.246 1.094a1.99 1.99 0 0 1-.731.8c-.319.196-.711.294-1.176.294-.465 0-.857-.101-1.176-.301a1.945 1.945 0 0 1-.724-.8 2.425 2.425 0 0 1-.246-1.087Zm1.305-.533v.533c0 .265.062.506.185.725.123.219.342.326.656.321.324.005.545-.102.663-.321.123-.219.185-.46.185-.725v-.533c0-.264-.059-.506-.178-.725-.114-.223-.337-.335-.67-.335-.31 0-.529.112-.656.335a1.481 1.481 0 0 0-.185.725Zm-.745 8.271 7-10.185h1.251l-7 10.185h-1.251Z"/></g><defs><linearGradient id="c" x1="43.732" x2="66.145" y1="43.022" y2="46.26" gradientUnits="userSpaceOnUse"><stop stop-color="#323232"/><stop offset="1"/></linearGradient><linearGradient id="d" x1="42.871" x2="49.276" y1="58.105" y2="59.029" gradientUnits="userSpaceOnUse"><stop stop-color="#323232"/><stop offset="1"/></linearGradient><linearGradient id="e" x1="41.811" x2="56.374" y1="112.311" y2="126.016" gradientUnits="userSpaceOnUse"><stop stop-color="#323232"/><stop offset="1"/></linearGradient><linearGradient id="f" x1="43.066" x2="66.692" y1="117.708" y2="122.16" gradientUnits="userSpaceOnUse"><stop stop-color="#323232"/><stop offset="1"/></linearGradient><linearGradient id="g" x1="43.683" x2="66.207" y1="184.355" y2="187.626" gradientUnits="userSpaceOnUse"><stop stop-color="#323232"/><stop offset="1"/></linearGradient><linearGradient id="h" x1="47.443" x2="61.248" y1="254.499" y2="256.27" gradientUnits="userSpaceOnUse"><stop stop-color="#323232"/><stop offset="1"/></linearGradient><linearGradient id="i" x1="47.443" x2="60.915" y1="267.684" y2="270.445" gradientUnits="userSpaceOnUse"><stop stop-color="#323232"/><stop offset="1"/></linearGradient><clipPath id="a"><rect width="304.185" height="279.955" x="-.5" y="-.5" rx="20.5"/></clipPath></defs></svg>