<svg xmlns="http://www.w3.org/2000/svg" width="130" height="30" fill="none"><g clip-path="url(#a)"><mask id="b" width="130" height="30" x="0" y="0" maskUnits="userSpaceOnUse" style="mask-type:luminance"><path fill="#fff" d="M130 0H0v30h130V0Z"/></mask><g mask="url(#b)"><mask id="c" width="130" height="30" x="0" y="0" maskUnits="userSpaceOnUse" style="mask-type:luminance"><path fill="#fff" d="M130 0H0v30h130V0Z"/></mask><g mask="url(#c)"><mask id="d" width="130" height="30" x="0" y="0" maskUnits="userSpaceOnUse" style="mask-type:luminance"><path fill="#fff" d="M130 0H0v29.593h130V0Z"/></mask><g mask="url(#d)"><mask id="e" width="130" height="30" x="0" y="0" maskUnits="userSpaceOnUse" style="mask-type:luminance"><path fill="#fff" d="M130 0H0v29.593h130V0Z"/></mask><g mask="url(#e)"><mask id="f" width="130" height="30" x="0" y="0" maskUnits="userSpaceOnUse" style="mask-type:luminance"><path fill="#fff" d="M130 0H0v29.593h130V0Z"/></mask><g mask="url(#f)"><mask id="g" width="130" height="30" x="0" y="0" maskUnits="userSpaceOnUse" style="mask-type:luminance"><path fill="#fff" d="M129.83 0H0v29.593h129.83V0Z"/></mask><g mask="url(#g)"><path stroke="#4D585F" stroke-width="8.592" d="M42.164 23.389a18.855 18.855 0 0 0-37.709 0V.955"/><path fill="#4D585F" d="M23.308 29.593a6.205 6.205 0 1 0 0-12.41 6.205 6.205 0 0 0 0 12.41Zm38.697-5.841V10.495h2.218v5.578h6.278v-5.578h2.21V23.75H70.5v-5.597h-6.278v5.598h-2.218Zm17.015.285c-.736 0-1.344-.123-1.823-.368a3.22 3.22 0 0 1-1.141-.94 4.082 4.082 0 0 1-.626-1.214 6.48 6.48 0 0 1-.267-1.216c-.037-.386-.055-.7-.055-.939v-5.55h2.246v4.786c0 .307.021.654.064 1.04.043.381.141.75.295 1.105.16.35.392.639.7.866.312.227.733.34 1.26.34.283 0 .562-.046.838-.138.276-.092.525-.248.746-.47.227-.226.408-.536.543-.93.135-.392.203-.889.203-1.49l1.316.561c0 .847-.166 1.614-.497 2.302a3.915 3.915 0 0 1-1.445 1.647c-.639.405-1.424.608-2.357.608Zm3.25-.285v-3.084h-.267V13.81h2.227v9.941h-1.96Zm8.532.276c-.914 0-1.712-.23-2.393-.69-.681-.461-1.209-1.087-1.583-1.879-.375-.791-.562-1.684-.562-2.678 0-1.007.187-1.903.562-2.688.38-.792.917-1.415 1.61-1.87.694-.46 1.51-.69 2.45-.69.944 0 1.736.23 2.374.69.645.455 1.133 1.078 1.464 1.87.331.791.497 1.687.497 2.688 0 .988-.166 1.88-.497 2.678-.331.792-.825 1.418-1.482 1.878-.657.46-1.47.69-2.44.69Zm.341-1.989c.595 0 1.074-.135 1.436-.405.368-.276.635-.66.801-1.15.172-.491.258-1.059.258-1.703 0-.651-.086-1.219-.258-1.703-.166-.491-.426-.872-.782-1.142-.356-.276-.817-.414-1.381-.414-.596 0-1.087.147-1.473.442a2.518 2.518 0 0 0-.856 1.178 4.633 4.633 0 0 0-.276 1.639c0 .607.088 1.16.267 1.657.184.49.463.88.837 1.169.375.288.85.432 1.427.432Zm2.495 1.712v-6.977h-.276v-6.278h2.237V23.75h-1.961Zm8.38.277c-1.227 0-2.224-.276-2.992-.829-.766-.552-1.233-1.329-1.399-2.329l2.265-.35c.116.491.374.878.773 1.16.399.283.902.424 1.51.424.534 0 .945-.105 1.233-.313.295-.215.442-.506.442-.875 0-.227-.055-.408-.166-.543-.104-.141-.337-.276-.699-.405a22.293 22.293 0 0 0-1.666-.488c-.835-.22-1.498-.457-1.989-.709-.49-.257-.844-.561-1.058-.911-.215-.35-.322-.773-.322-1.27 0-.62.162-1.16.487-1.62.326-.46.78-.814 1.363-1.06.583-.25 1.27-.377 2.062-.377.773 0 1.457.12 2.053.36.601.239 1.086.58 1.454 1.021.369.442.595.96.682 1.556l-2.265.405a1.43 1.43 0 0 0-.58-1.003c-.326-.246-.761-.384-1.307-.415-.522-.03-.942.05-1.261.24-.32.184-.479.445-.479.782 0 .19.064.353.193.488s.387.27.773.405c.393.135.976.3 1.749.497.792.203 1.424.436 1.897.7.478.258.822.568 1.031.93.215.362.321.8.321 1.316 0 1-.364 1.786-1.095 2.357-.724.57-1.727.856-3.01.856Zm10.514 0c-.995 0-1.864-.224-2.606-.672a4.603 4.603 0 0 1-1.73-1.85c-.406-.792-.609-1.7-.609-2.725 0-1.044.21-1.958.627-2.744a4.613 4.613 0 0 1 1.74-1.84c.743-.443 1.602-.664 2.578-.664.999 0 1.871.224 2.613.672a4.607 4.607 0 0 1 1.732 1.86c.411.785.616 1.69.616 2.716 0 1.03-.209 1.942-.626 2.734a4.617 4.617 0 0 1-1.73 1.85c-.743.442-1.612.663-2.605.663Zm0-2.08c.883 0 1.539-.295 1.97-.884.429-.59.643-1.35.643-2.283 0-.964-.217-1.731-.653-2.302-.435-.577-1.09-.865-1.96-.865-.597 0-1.087.135-1.474.405-.38.264-.662.635-.846 1.114-.185.472-.277 1.022-.277 1.648 0 .963.219 1.733.654 2.31.442.57 1.089.856 1.943.856Zm13.866 1.803v-4.786c0-.313-.022-.66-.065-1.04a3.585 3.585 0 0 0-.304-1.096 2.071 2.071 0 0 0-.699-.875c-.307-.227-.724-.34-1.252-.34a2.63 2.63 0 0 0-.838.138 1.92 1.92 0 0 0-.754.479c-.221.22-.4.527-.534.92-.135.387-.203.884-.203 1.491l-1.316-.561c0-.847.163-1.614.487-2.301a3.917 3.917 0 0 1 1.455-1.639c.638-.411 1.423-.617 2.356-.617.737 0 1.345.123 1.824.369a3.22 3.22 0 0 1 1.141.938c.282.38.491.786.626 1.216.135.43.221.837.258 1.224.042.38.064.69.064.93v5.55h-2.246Zm-6.895 0V13.81h1.98v3.083h.266v6.858h-2.246Z"/></g></g></g></g></g></g></g><defs><clipPath id="a"><path fill="#fff" d="M0 0h130v30H0z"/></clipPath></defs></svg>