<svg xmlns="http://www.w3.org/2000/svg" width="130" height="28" fill="none"><g clip-path="url(#a)"><mask id="b" width="130" height="28" x="0" y="0" maskUnits="userSpaceOnUse" style="mask-type:luminance"><path fill="#fff" d="M130 0H0v28h130V0Z"/></mask><g mask="url(#b)"><mask id="c" width="130" height="28" x="0" y="0" maskUnits="userSpaceOnUse" style="mask-type:luminance"><path fill="#fff" d="M130 0H0v28h130V0Z"/></mask><g mask="url(#c)"><mask id="d" width="130" height="28" x="0" y="0" maskUnits="userSpaceOnUse" style="mask-type:luminance"><path fill="#fff" d="M130 0H0v28h130V0Z"/></mask><g mask="url(#d)"><mask id="e" width="130" height="28" x="0" y="0" maskUnits="userSpaceOnUse" style="mask-type:luminance"><path fill="#fff" d="M130 0H0v28h130V0Z"/></mask><g mask="url(#e)"><mask id="f" width="130" height="28" x="0" y="0" maskUnits="userSpaceOnUse" style="mask-type:luminance"><path fill="#fff" d="M130 0H0v28h130V0Z"/></mask><g mask="url(#f)"><mask id="g" width="130" height="28" x="0" y="0" maskUnits="userSpaceOnUse" style="mask-type:luminance"><path fill="#fff" d="M129.733 0H0v28h129.733V0Z"/></mask><g fill="#4D585F" mask="url(#g)"><path d="M14.912 10.068c.703-.406 1.841-.406 2.543 0l13.624 7.865c.702.405.702 1.063 0 1.468l-13.624 7.865c-.702.405-1.84.405-2.543 0L1.288 19.401c-.702-.405-.702-1.063 0-1.468l13.624-7.865Z"/><path d="M14.895 5.624c.702-.405 1.84-.405 2.543 0l13.624 7.865c.702.406.702 1.063 0 1.468l-13.624 7.866c-.703.405-1.841.405-2.543 0L1.27 14.957c-.702-.405-.702-1.062 0-1.468l13.624-7.865Z"/><path d="M14.895.734c.702-.406 1.84-.406 2.543 0l13.624 7.865c.702.405.702 1.063 0 1.468l-13.624 7.865c-.703.405-1.841.405-2.543 0L1.27 10.067c-.702-.405-.702-1.063 0-1.468L14.895.734ZM43.84 21.301 38.361 7.748h2.42l4.28 10.978h-.853l4.318-10.978h2.381L45.39 21.301h-1.55Zm10.738.194c-.839 0-1.6-.213-2.284-.64a4.694 4.694 0 0 1-1.607-1.723c-.387-.735-.581-1.555-.581-2.458 0-.917.194-1.736.58-2.46a4.66 4.66 0 0 1 1.608-1.742 4.144 4.144 0 0 1 2.285-.658c.71 0 1.335.155 1.877.465.555.296.994.71 1.317 1.239.323.529.484 1.13.484 1.8v2.672c0 .671-.161 1.272-.484 1.8-.31.53-.742.95-1.297 1.26-.555.296-1.188.445-1.898.445Zm.349-2.014c.787 0 1.42-.265 1.898-.794.49-.529.735-1.207.735-2.033 0-.555-.11-1.045-.329-1.471a2.37 2.37 0 0 0-.93-.988c-.387-.245-.845-.367-1.374-.367-.517 0-.975.122-1.375.367a2.544 2.544 0 0 0-.93.988c-.218.426-.328.916-.328 1.471s.11 1.046.329 1.472c.232.426.542.761.93 1.006.4.233.858.349 1.374.349Zm2.498 1.82v-2.498l.367-2.265-.367-2.246v-2.284h2.13V21.3h-2.13Zm10.863 0v-5.363c0-.62-.2-1.13-.6-1.53-.388-.4-.89-.6-1.51-.6-.414 0-.781.09-1.104.271a1.93 1.93 0 0 0-.755.755 2.22 2.22 0 0 0-.272 1.104l-.832-.465c0-.71.155-1.336.465-1.878.31-.555.736-.987 1.277-1.297a3.63 3.63 0 0 1 1.86-.484c.696 0 1.316.18 1.858.542.542.348.968.807 1.278 1.375.31.555.465 1.136.465 1.742v5.828h-2.13Zm-6.37 0v-9.293h2.13V21.3h-2.13Zm14.943.194c-.917 0-1.75-.213-2.498-.64a4.703 4.703 0 0 1-1.742-1.742c-.426-.736-.64-1.555-.64-2.459 0-.916.214-1.736.64-2.459a4.702 4.702 0 0 1 1.742-1.742c.749-.426 1.581-.64 2.498-.64.722 0 1.394.143 2.013.427a4.304 4.304 0 0 1 1.607 1.18l-1.394 1.414a2.469 2.469 0 0 0-.987-.716 2.995 2.995 0 0 0-1.24-.252c-.529 0-1 .123-1.413.368a2.53 2.53 0 0 0-.948.968c-.22.413-.33.897-.33 1.452 0 .542.11 1.026.33 1.452.232.413.548.743.948.988.413.232.884.348 1.414.348a3.21 3.21 0 0 0 1.239-.232c.387-.168.716-.413.987-.736l1.394 1.414a4.498 4.498 0 0 1-1.607 1.2c-.62.271-1.29.407-2.013.407Zm9.226 0c-.904 0-1.723-.213-2.459-.64a5.007 5.007 0 0 1-1.762-1.761 4.831 4.831 0 0 1-.639-2.46c0-.903.213-1.716.64-2.439a4.9 4.9 0 0 1 1.761-1.723 4.71 4.71 0 0 1 2.46-.658c.916 0 1.742.213 2.477.639a4.702 4.702 0 0 1 1.743 1.742c.439.723.658 1.536.658 2.44 0 .903-.22 1.723-.658 2.459a4.852 4.852 0 0 1-1.743 1.762c-.736.426-1.561.639-2.478.639Zm0-2.053c.53 0 .994-.116 1.394-.348.413-.245.73-.581.949-1.007.232-.426.348-.91.348-1.452 0-.542-.116-1.02-.348-1.433a2.533 2.533 0 0 0-.949-.968c-.4-.245-.864-.368-1.394-.368-.516 0-.981.123-1.394.368-.4.232-.716.555-.949.968-.22.413-.329.89-.329 1.433 0 .542.11 1.026.33 1.452.232.426.548.762.948 1.007.413.232.878.348 1.394.348Zm10.465 2.053c-.788 0-1.491-.175-2.11-.523a3.82 3.82 0 0 1-1.434-1.433c-.335-.62-.503-1.33-.503-2.13v-5.401h2.13v5.305c0 .451.07.838.212 1.161.155.31.375.549.659.717a2.09 2.09 0 0 0 1.046.251c.619 0 1.09-.18 1.413-.542.335-.374.503-.903.503-1.587v-5.305h2.13v5.401c0 .814-.174 1.53-.523 2.15a3.675 3.675 0 0 1-1.413 1.432c-.607.336-1.31.504-2.11.504Zm9.324-.194-4.24-9.293h2.362l3.233 7.57h-1.394l3.253-7.57h2.265l-4.24 9.293h-1.239Zm10.729.194c-.929 0-1.768-.207-2.517-.62a4.858 4.858 0 0 1-1.762-1.742c-.425-.736-.638-1.562-.638-2.479 0-.916.213-1.736.638-2.459a4.748 4.748 0 0 1 1.724-1.742 4.779 4.779 0 0 1 2.439-.64c.865 0 1.627.201 2.285.601.671.4 1.194.949 1.568 1.646.387.697.581 1.49.581 2.381 0 .155-.013.317-.039.484-.013.155-.038.33-.077.523h-7.628v-1.742h6.524l-.793.697c-.026-.568-.136-1.046-.33-1.433a2.058 2.058 0 0 0-.832-.89c-.349-.207-.781-.31-1.297-.31-.543 0-1.014.116-1.414.348-.4.232-.71.561-.929.987-.22.413-.329.91-.329 1.491 0 .581.116 1.09.348 1.53.233.439.562.78.988 1.026.426.232.916.348 1.471.348.478 0 .916-.084 1.317-.251a2.748 2.748 0 0 0 1.045-.736l1.355 1.375c-.451.529-1 .929-1.645 1.2a5.25 5.25 0 0 1-2.053.407Zm6.025-.194v-9.293h2.13V21.3h-2.13Zm2.13-5.17-.736-.367c0-1.175.258-2.124.775-2.846.529-.736 1.323-1.104 2.381-1.104.465 0 .884.084 1.259.252.374.167.723.438 1.045.813l-1.394 1.433a1.473 1.473 0 0 0-.561-.388 2.04 2.04 0 0 0-.717-.116c-.593 0-1.084.187-1.471.562-.387.374-.581.961-.581 1.761Z"/></g></g></g></g></g></g></g><defs><clipPath id="a"><path fill="#fff" d="M0 0h130v28H0z"/></clipPath></defs></svg>