<svg xmlns="http://www.w3.org/2000/svg" width="130" height="37" fill="none"><g clip-path="url(#a)"><mask id="b" width="130" height="37" x="0" y="0" maskUnits="userSpaceOnUse" style="mask-type:luminance"><path fill="#fff" d="M130 0H0v37h130V0Z"/></mask><g mask="url(#b)"><mask id="c" width="130" height="37" x="0" y="0" maskUnits="userSpaceOnUse" style="mask-type:luminance"><path fill="#fff" d="M130 0H0v37h130V0Z"/></mask><g mask="url(#c)"><mask id="d" width="130" height="37" x="0" y="0" maskUnits="userSpaceOnUse" style="mask-type:luminance"><path fill="#fff" d="M130 0H0v36.768h130V0Z"/></mask><g mask="url(#d)"><mask id="e" width="130" height="37" x="0" y="0" maskUnits="userSpaceOnUse" style="mask-type:luminance"><path fill="#fff" d="M130 0H0v36.768h130V0Z"/></mask><g mask="url(#e)"><mask id="f" width="130" height="37" x="0" y="0" maskUnits="userSpaceOnUse" style="mask-type:luminance"><path fill="#fff" d="M130 0H0v36.768h130V0Z"/></mask><g mask="url(#f)"><mask id="g" width="130" height="37" x="0" y="0" maskUnits="userSpaceOnUse" style="mask-type:luminance"><path fill="#fff" d="M129.095 0H0v36.768h129.095V0Z"/></mask><g fill="#4D585F" mask="url(#g)"><path d="M0 30.076V6.28h6.413v9.062h.093a5.385 5.385 0 0 1 1.023-1.661 4.87 4.87 0 0 1 1.673-1.22c.666-.31 1.44-.465 2.324-.465 1.177 0 2.296.314 3.358.941 1.068.628 1.936 1.615 2.602 2.963.674 1.348 1.01 3.098 1.01 5.252 0 2.06-.32 3.768-.963 5.123-.636 1.356-1.488 2.367-2.557 3.033a6.448 6.448 0 0 1-3.497 1c-.836 0-1.584-.136-2.242-.408a5.175 5.175 0 0 1-1.673-1.127 5.21 5.21 0 0 1-1.058-1.626h-.139v2.928H0Zm6.274-8.923c0 .867.112 1.619.337 2.254.232.627.558 1.115.976 1.464.426.34.933.51 1.522.51s1.088-.166 1.499-.499c.418-.34.736-.825.953-1.452.224-.635.337-1.394.337-2.277 0-.883-.113-1.639-.337-2.266-.217-.635-.535-1.12-.953-1.452-.41-.341-.91-.512-1.499-.512-.589 0-1.096.17-1.522.512-.418.333-.744.817-.976 1.452-.225.627-.337 1.383-.337 2.266Zm19.881 9.2c-1.139 0-2.146-.186-3.02-.558a4.543 4.543 0 0 1-2.046-1.72c-.495-.767-.743-1.742-.743-2.927 0-.977.166-1.81.5-2.499a4.5 4.5 0 0 1 1.393-1.707 6.577 6.577 0 0 1 2.08-1.011 12.602 12.602 0 0 1 2.58-.454c.999-.077 1.8-.17 2.405-.278.612-.117 1.053-.275 1.324-.477a.992.992 0 0 0 .407-.825v-.046c0-.465-.178-.821-.535-1.07-.356-.247-.813-.37-1.37-.37-.613 0-1.112.135-1.5.406-.379.263-.607.67-.685 1.22h-5.902a6.083 6.083 0 0 1 1.034-2.998c.62-.922 1.522-1.657 2.707-2.207 1.185-.558 2.665-.837 4.438-.837 1.278 0 2.425.151 3.44.453 1.014.295 1.878.709 2.59 1.243.713.527 1.255 1.147 1.627 1.86.38.704.57 1.471.57 2.3v12.223h-5.996v-2.51h-.14c-.356.666-.79 1.205-1.3 1.615a4.804 4.804 0 0 1-1.732.895 7.636 7.636 0 0 1-2.126.279Zm2.091-4.044c.488 0 .945-.1 1.371-.302a2.64 2.64 0 0 0 1.058-.871c.27-.38.406-.84.406-1.383v-1.487c-.17.07-.352.136-.546.198a11.007 11.007 0 0 1-1.278.325c-.232.046-.476.089-.732.128-.495.077-.902.205-1.22.383-.31.17-.542.383-.697.64-.147.247-.22.526-.22.836 0 .495.174.875.522 1.138.349.264.794.395 1.336.395Zm12.174 3.767V6.28h6.413v9.062h.093a5.385 5.385 0 0 1 1.023-1.661 4.867 4.867 0 0 1 1.673-1.22c.666-.31 1.44-.465 2.324-.465 1.177 0 2.297.314 3.358.941 1.069.628 1.936 1.615 2.602 2.963.674 1.348 1.01 3.098 1.01 5.252 0 2.06-.32 3.768-.963 5.123-.636 1.356-1.488 2.367-2.556 3.033a6.45 6.45 0 0 1-3.498 1c-.836 0-1.584-.136-2.242-.408a5.179 5.179 0 0 1-1.673-1.127 5.21 5.21 0 0 1-1.058-1.626h-.139v2.928H40.42Zm6.274-8.923c0 .867.112 1.619.337 2.254.233.627.558 1.115.976 1.464.426.34.934.51 1.522.51s1.088-.166 1.499-.499c.418-.34.736-.825.952-1.452.225-.635.337-1.394.337-2.277 0-.883-.112-1.639-.337-2.266-.216-.635-.534-1.12-.952-1.452-.41-.341-.91-.512-1.499-.512-.588 0-1.096.17-1.522.512-.418.333-.743.817-.976 1.452-.225.627-.337 1.383-.337 2.266ZM64.96 36.767c-.735 0-1.436-.058-2.102-.174a8.883 8.883 0 0 1-1.755-.453l1.395-4.555a6.982 6.982 0 0 0 1.44.36c.442.055.817.024 1.127-.093.318-.116.546-.337.686-.662l.139-.325-6.274-18.636h6.692L69.19 24.59h.186l2.928-12.363h6.739l-6.507 19.334a8.556 8.556 0 0 1-1.417 2.649c-.612.79-1.418 1.414-2.417 1.87-1 .458-2.246.686-3.742.686ZM87.282 6.28v23.796h-6.414V6.28h6.414Zm11.865 12.124c-1.937 0-3.594-.383-4.973-1.15a7.91 7.91 0 0 1-3.172-3.23c-.735-1.387-1.104-2.994-1.104-4.822 0-1.828.369-3.431 1.104-4.81a7.817 7.817 0 0 1 3.172-3.23C95.553.387 97.21 0 99.147 0c1.936 0 3.594.387 4.973 1.162a7.818 7.818 0 0 1 3.172 3.23c.735 1.379 1.103 2.982 1.103 4.81 0 1.828-.368 3.435-1.103 4.822a7.91 7.91 0 0 1-3.172 3.23c-1.379.767-3.037 1.15-4.973 1.15Zm.046-4.74c.543 0 1.011-.182 1.406-.546.395-.365.701-.884.918-1.557.217-.674.326-1.476.326-2.405 0-.938-.109-1.74-.326-2.406-.217-.673-.523-1.192-.918-1.556a2.004 2.004 0 0 0-1.406-.547c-.573 0-1.065.182-1.475.547-.41.364-.724.883-.941 1.556-.217.667-.326 1.468-.326 2.406 0 .929.109 1.73.326 2.405.217.673.53 1.192.94 1.556a2.15 2.15 0 0 0 1.476.546Zm18.216 6.371v10.039h-6.414V12.227h6.088v3.393h.186c.388-1.13 1.069-2.018 2.045-2.66.984-.644 2.13-.965 3.439-.965 1.263 0 2.359.29 3.289.872a5.787 5.787 0 0 1 2.172 2.37c.519 1.007.775 2.157.767 3.45v11.387h-6.413V20.035c.007-.883-.217-1.576-.675-2.08-.449-.503-1.076-.755-1.882-.755-.526 0-.987.117-1.382.349-.387.224-.686.55-.895.976-.209.418-.318.922-.325 1.51Z"/></g></g></g></g></g></g></g><defs><clipPath id="a"><path fill="#fff" d="M0 0h130v37H0z"/></clipPath></defs></svg>