<svg xmlns="http://www.w3.org/2000/svg" width="122" height="30" fill="none"><rect width="30" height="30" fill="url(#a)" rx="5"/><path fill="#fff" d="M10.75 8.245a6.57 6.57 0 0 1-4.931 4.93.943.943 0 0 0-.745.915v1.82a.935.935 0 0 0 1.1.92 10.14 10.14 0 0 0 4.013-1.667 10.252 10.252 0 0 0 2.55-2.55 10.131 10.131 0 0 0 1.772-4.744.332.332 0 0 0-.33-.369h-2.515a.943.943 0 0 0-.915.745Zm4.74 13.887a.331.331 0 0 0 .33.368h2.515a.943.943 0 0 0 .915-.745 6.563 6.563 0 0 1 4.93-4.93.943.943 0 0 0 .745-.915v-1.82a.935.935 0 0 0-1.098-.921 10.11 10.11 0 0 0-4.014 1.668 10.247 10.247 0 0 0-2.55 2.549 10.146 10.146 0 0 0-1.772 4.746Z"/><path fill="#fff" d="M18.335 7.5H15.82a.332.332 0 0 0-.33.369c.185 1.75.814 3.37 1.772 4.743a10.254 10.254 0 0 0 2.55 2.551 10.139 10.139 0 0 0 4.015 1.668.935.935 0 0 0 1.098-.921v-1.82a.943.943 0 0 0-.744-.915 6.569 6.569 0 0 1-4.93-4.93.943.943 0 0 0-.916-.745Zm-5.597 9.886a10.245 10.245 0 0 0-6.565-4.217.935.935 0 0 0-1.099.921v1.82c0 .443.313.817.745.915a6.563 6.563 0 0 1 4.93 4.93.943.943 0 0 0 .916.745h2.516a.331.331 0 0 0 .328-.368 10.146 10.146 0 0 0-1.771-4.746Z"/><path fill="#18181A" d="M36 22.3V9.1h2.88v13.2H36Zm1.38-4.94V15h7.7v2.36h-7.7Zm0-5.8V9.1h8.44v2.46h-8.44ZM47.735 22.3V11.8h2.88v10.5h-2.88Zm1.46-12.08c-.56 0-.993-.113-1.3-.34-.293-.24-.44-.587-.44-1.04 0-.467.147-.82.44-1.06.307-.24.74-.36 1.3-.36.573 0 1.007.12 1.3.36.307.24.46.593.46 1.06 0 .44-.153.78-.46 1.02-.293.24-.727.36-1.3.36Zm4.087 12.08V11.8h2.36l-.02 3.14h.4c.173-.76.42-1.393.74-1.9.32-.507.72-.887 1.2-1.14.493-.253 1.073-.38 1.74-.38 1.213 0 2.133.427 2.76 1.28.64.853.96 2.193.96 4.02v5.48h-2.9v-5.16c0-1.12-.167-1.933-.5-2.44-.32-.52-.794-.78-1.42-.78-.533 0-.98.167-1.34.5-.36.333-.633.773-.82 1.32a6.211 6.211 0 0 0-.28 1.8v4.76h-2.88Zm16.478.24c-1.173 0-2.04-.307-2.6-.92-.547-.627-.82-1.62-.82-2.98v-4.58h-1.52l.04-2.26h1.06c.413 0 .72-.06.92-.18.2-.12.32-.34.36-.66l.26-1.5h1.64v2.34h2.66v2.34H69.1v4.38c0 .48.113.827.34 1.04.227.213.573.32 1.04.32.253 0 .493-.027.72-.08.24-.053.447-.14.62-.26v2.68a5.98 5.98 0 0 1-1.14.26c-.347.04-.653.06-.92.06Zm8.87.04c-.866 0-1.64-.12-2.32-.36a4.676 4.676 0 0 1-1.7-1.04 4.564 4.564 0 0 1-1.08-1.68c-.24-.667-.36-1.42-.36-2.26 0-.827.114-1.587.34-2.28a5.2 5.2 0 0 1 1.04-1.82 4.546 4.546 0 0 1 1.66-1.2c.654-.28 1.394-.42 2.22-.42.8 0 1.514.133 2.14.4.627.253 1.147.64 1.56 1.16.427.52.734 1.16.92 1.92.2.747.274 1.607.22 2.58l-8.24.08v-1.58l6.58-.06-1.02.8c.094-.707.047-1.287-.14-1.74-.186-.453-.46-.787-.82-1a2.17 2.17 0 0 0-1.16-.32c-.506 0-.953.133-1.34.4-.386.267-.686.66-.9 1.18-.213.507-.32 1.12-.32 1.84 0 1.133.247 1.967.74 2.5.507.533 1.167.8 1.98.8.374 0 .687-.047.94-.14.267-.107.48-.24.64-.4.174-.16.307-.34.4-.54.107-.2.194-.4.26-.6l2.5.54c-.12.493-.3.94-.54 1.34a3.499 3.499 0 0 1-.92 1.02c-.386.28-.853.493-1.4.64-.533.16-1.16.24-1.88.24Zm11.7 0c-.907 0-1.7-.133-2.38-.4-.68-.267-1.247-.64-1.7-1.12a4.672 4.672 0 0 1-1.02-1.7 6.732 6.732 0 0 1-.34-2.18c0-.827.113-1.58.34-2.26a5.23 5.23 0 0 1 1.04-1.8 4.616 4.616 0 0 1 1.68-1.18c.666-.28 1.426-.42 2.28-.42.853 0 1.593.14 2.22.42.64.28 1.153.673 1.54 1.18.4.493.673 1.08.82 1.76l-2.66.86a2.372 2.372 0 0 0-.34-1.06 1.612 1.612 0 0 0-.72-.68 2.054 2.054 0 0 0-1-.24c-.387 0-.72.08-1 .24a1.99 1.99 0 0 0-.72.66c-.187.28-.334.627-.44 1.04-.094.4-.14.853-.14 1.36 0 .72.093 1.333.28 1.84.2.493.486.873.86 1.14.386.253.86.38 1.42.38.533 0 .96-.1 1.28-.3.32-.213.553-.48.7-.8.16-.333.26-.673.3-1.02l2.52.56a4.53 4.53 0 0 1-.44 1.46c-.214.453-.52.847-.92 1.18-.4.333-.887.6-1.46.8-.56.187-1.227.28-2 .28Zm6.467-.28V8h2.9v3.28c0 .267-.013.547-.04.84a7.147 7.147 0 0 1-.1.9c-.04.293-.086.593-.14.9-.04.307-.086.613-.14.92h.44c.187-.68.421-1.267.701-1.76a3.166 3.166 0 0 1 1.119-1.14c.454-.28 1.027-.42 1.72-.42 1.227 0 2.147.433 2.761 1.3.613.853.92 2.167.92 3.94v5.54h-2.901v-5.1c0-1.12-.166-1.947-.5-2.48-.32-.547-.806-.82-1.46-.82-.533 0-.973.16-1.32.48-.346.32-.606.753-.78 1.3a6.684 6.684 0 0 0-.3 1.8v4.82h-2.88Zm11.6 0 4.54-6.62-4.44-6.58h3.36l3.04 5.04h.12l3.06-5.04h3.38l-4.5 6.52 4.62 6.68h-3.36l-3.22-5.16h-.1l-3.14 5.16h-3.36Z"/><defs><linearGradient id="a" x1="1.11" x2="27.267" y1=".985" y2="28.754" gradientUnits="userSpaceOnUse"><stop stop-color="#18181A"/><stop offset="1" stop-color="#2D2D2D"/></linearGradient></defs></svg>