<svg xmlns="http://www.w3.org/2000/svg" width="130" height="28" fill="none"><g clip-path="url(#a)"><mask id="b" width="130" height="28" x="0" y="0" maskUnits="userSpaceOnUse" style="mask-type:luminance"><path fill="#fff" d="M130 0H0v28h130V0Z"/></mask><g mask="url(#b)"><mask id="c" width="130" height="28" x="0" y="0" maskUnits="userSpaceOnUse" style="mask-type:luminance"><path fill="#fff" d="M130 0H0v28h130V0Z"/></mask><g mask="url(#c)"><mask id="d" width="130" height="28" x="0" y="0" maskUnits="userSpaceOnUse" style="mask-type:luminance"><path fill="#fff" d="M130 0H0v27.13h130V0Z"/></mask><g mask="url(#d)"><mask id="e" width="130" height="28" x="0" y="0" maskUnits="userSpaceOnUse" style="mask-type:luminance"><path fill="#fff" d="M130 0H0v27.13h130V0Z"/></mask><g fill="#4D585F" mask="url(#e)"><path d="M9.836 26.517c-2.647-.087-4.647-.685-6-1.794-1.354-1.137-2.332-2.406-2.934-3.807C.301 19.486 0 18.043 0 16.584c0-1.517.286-2.976.857-4.376.602-1.43 1.58-2.698 2.933-3.807 1.384-1.137 3.128-1.72 5.234-1.75h14.619c2.105.03 3.835.613 5.188 1.75 1.384 1.109 2.362 2.378 2.933 3.807.602 1.4.902 2.86.902 4.376 0 1.459-.3 2.903-.902 4.332-.601 1.4-1.579 2.67-2.933 3.807-1.353 1.109-3.354 1.707-6 1.794H9.836Zm-.993-14.002c-.571 0-1.067.233-1.489.7a4.212 4.212 0 0 0-.947 1.575 5.894 5.894 0 0 0-.27 1.75c0 .613.09 1.226.27 1.838.21.584.526 1.109.947 1.576.422.437.918.67 1.49.7h14.98c.57-.03 1.067-.263 1.488-.7a4.17 4.17 0 0 0 .903-1.576c.21-.612.315-1.225.315-1.838a5.13 5.13 0 0 0-.315-1.75 3.771 3.771 0 0 0-.903-1.575c-.421-.467-.917-.7-1.489-.7H8.843ZM66.505 9.19c0 .728-.3 1.341-.902 1.837-.571.467-1.278.7-2.12.7H44.397c-.391 0-.707.073-.948.219-.24.146-.42.306-.54.481-.122.146-.182.277-.182.394 0 .146.06.306.181.481.12.146.3.292.541.438.241.117.557.19.948.219H59.15c1.895.029 3.46.394 4.692 1.094 1.234.67 2.106 1.473 2.617 2.406.542.905.812 1.824.812 2.757 0 .905-.27 1.824-.812 2.757-.541.905-1.428 1.707-2.662 2.407-1.203.67-2.752 1.006-4.647 1.006a8.86 8.86 0 0 1-.722.044H40.923c-.843 0-1.565-.233-2.166-.7-.571-.496-.857-1.094-.857-1.794 0-.73.3-1.342.902-1.838.572-.467 1.278-.7 2.12-.7h18.59c.451.029.812-.03 1.083-.175.3-.146.526-.307.677-.482.15-.175.225-.35.225-.525 0-.087-.075-.233-.225-.437a1.36 1.36 0 0 0-.677-.526c-.271-.145-.632-.233-1.083-.262h-14.8c-1.744-.03-3.188-.38-4.33-1.05-1.144-.7-1.956-1.503-2.437-2.407-.481-.904-.722-1.809-.722-2.713 0-.904.24-1.794.722-2.67.511-.904 1.323-1.677 2.436-2.318 1.143-.671 2.587-1.036 4.332-1.094.3-.03.526-.044.677-.044h18.093c.842 0 1.549.248 2.12.744.602.466.902 1.05.902 1.75ZM75.395 0c.812.03 1.504.32 2.076.875.571.525.872 1.182.902 1.97v21.441c-.18 1.75-1.173 2.699-2.978 2.844-.842 0-1.58-.262-2.21-.787a2.685 2.685 0 0 1-.904-2.057V2.844c.03-.817.346-1.487.948-2.013C73.83.277 74.553 0 75.395 0Zm18.046 26.517c-2.647-.087-4.647-.685-6-1.794-1.354-1.137-2.332-2.406-2.933-3.807-.602-1.43-.902-2.873-.902-4.332 0-1.517.285-2.976.857-4.376.601-1.43 1.579-2.698 2.933-3.807 1.383-1.137 3.128-1.72 5.233-1.75h14.619c2.106.03 3.835.613 5.189 1.75 1.383 1.109 2.361 2.378 2.933 3.807.601 1.4.902 2.86.902 4.376 0 1.459-.301 2.903-.902 4.332-.602 1.4-1.58 2.67-2.933 3.807-1.354 1.109-3.354 1.707-6.001 1.794H93.441Zm-.992-14.002c-.572 0-1.068.233-1.49.7a4.215 4.215 0 0 0-.947 1.575 5.894 5.894 0 0 0-.27 1.75c0 .613.09 1.226.27 1.838.211.584.527 1.109.948 1.576.421.437.918.67 1.49.7h14.979c.571-.03 1.067-.263 1.488-.7.422-.467.722-.992.903-1.576a5.613 5.613 0 0 0 .316-1.838c0-.583-.105-1.166-.316-1.75a3.767 3.767 0 0 0-.903-1.575c-.421-.467-.917-.7-1.488-.7h-14.98Zm33.513 14.615a3.23 3.23 0 1 0 0-6.459 3.23 3.23 0 0 0 0 6.46Z"/></g></g></g></g></g><defs><clipPath id="a"><path fill="#fff" d="M0 0h130v28H0z"/></clipPath></defs></svg>