<svg xmlns="http://www.w3.org/2000/svg" width="20" height="18" fill="none"><path fill="#F9595F" d="M18.846 2.272C18.13 1.244 17.118.509 15.974.184a4.86 4.86 0 0 0-3.439.3c-.97.457-1.834 1.228-2.535 2.25C9.299 1.71 8.434.94 7.465.484a4.86 4.86 0 0 0-3.439-.3C2.882.51 1.87 1.244 1.154 2.272.4 3.352 0 4.704 0 6.179 0 8.3 1.158 10.629 3.443 13.1c1.86 2.014 4.06 3.663 5.206 4.467.403.282.872.432 1.351.432s.948-.15 1.351-.432c1.145-.804 3.345-2.453 5.206-4.467C18.842 10.631 20 8.301 20 6.18c0-1.475-.4-2.826-1.154-3.907Z"/></svg>