<svg xmlns="http://www.w3.org/2000/svg" width="20" height="20" fill="none"><g clip-path="url(#a)"><mask id="b" width="20" height="20" x="0" y="0" maskUnits="userSpaceOnUse" style="mask-type:luminance"><path fill="#fff" d="M20 0H0v20h20V0Z"/></mask><g mask="url(#b)"><mask id="c" width="20" height="20" x="0" y="0" maskUnits="userSpaceOnUse" style="mask-type:luminance"><path fill="#fff" d="M20 0H0v20h20V0Z"/></mask><g fill="#1D1D1D" mask="url(#c)"><path fill-rule="evenodd" d="M19.582 2.439a1.429 1.429 0 0 0-2.02-2.02l-6.87 6.868 1.803 2.238 7.087-7.086ZM7.504 10.475l1.803 2.238-6.868 6.869a1.429 1.429 0 0 1-2.02-2.02l7.085-7.087Z" clip-rule="evenodd"/><path d="M2.29 0C1.059 0 .443 0 .186.324A.857.857 0 0 0 .02.669c-.091.404.295.883 1.067 1.842l13.626 16.914c.202.25.303.376.436.455.044.026.09.048.138.066.144.054.306.054.627.054h1.795c1.231 0 1.847 0 2.104-.324a.856.856 0 0 0 .165-.345c.09-.404-.295-.883-1.068-1.842L5.286.575C5.084.325 4.983.199 4.85.12a.857.857 0 0 0-.138-.066C4.567 0 4.406 0 4.084 0H2.29Z"/></g></g></g><defs><clipPath id="a"><path fill="#fff" d="M0 0h20v20H0z"/></clipPath></defs></svg>