<svg xmlns="http://www.w3.org/2000/svg" width="24" height="18" fill="none"><path fill="#1A59AC" d="M7.03 0C4.698 0 2.8 2.012 2.8 4.484c0 2.473 1.898 4.485 4.23 4.485 2.332 0 4.23-2.012 4.23-4.485C11.26 2.012 9.361 0 7.03 0Zm9.616.642h-.029a3.509 3.509 0 0 0-2.574 1.163 3.938 3.938 0 0 0-1.025 2.71 3.938 3.938 0 0 0 1.07 2.691 3.51 3.51 0 0 0 2.563 1.121h.03a3.509 3.509 0 0 0 2.574-1.164 3.937 3.937 0 0 0 1.025-2.709C20.262 2.346 18.635.642 16.646.642Zm.178 8.42h-.35a6.325 6.325 0 0 0-4.256 1.64c.282.217.55.453.805.707a8.144 8.144 0 0 1 2.383 5.352h7.766v-1.352c0-3.5-2.847-6.347-6.348-6.347Zm-2.778 7.698a6.809 6.809 0 0 0-2.735-5.04 6.786 6.786 0 0 0-4.07-1.348H6.82A6.818 6.818 0 0 0 0 17.191V18h14.06v-.81c0-.144-.005-.287-.014-.43Z"/></svg>