<svg xmlns="http://www.w3.org/2000/svg" width="130" height="29" fill="none"><g clip-path="url(#a)"><mask id="b" width="130" height="29" x="0" y="0" maskUnits="userSpaceOnUse" style="mask-type:luminance"><path fill="#fff" d="M130 0H0v29h130V0Z"/></mask><g mask="url(#b)"><mask id="c" width="130" height="29" x="0" y="0" maskUnits="userSpaceOnUse" style="mask-type:luminance"><path fill="#fff" d="M130 0H0v29h130V0Z"/></mask><g mask="url(#c)"><mask id="d" width="130" height="29" x="0" y="0" maskUnits="userSpaceOnUse" style="mask-type:luminance"><path fill="#fff" d="M130 0H0v28.661h130V0Z"/></mask><g mask="url(#d)"><mask id="e" width="130" height="29" x="0" y="0" maskUnits="userSpaceOnUse" style="mask-type:luminance"><path fill="#fff" d="M130 0H0v28.661h130V0Z"/></mask><g mask="url(#e)"><mask id="f" width="130" height="29" x="0" y="0" maskUnits="userSpaceOnUse" style="mask-type:luminance"><path fill="#fff" d="M130 0H0v28.661h130V0Z"/></mask><g mask="url(#f)"><mask id="g" width="130" height="29" x="0" y="0" maskUnits="userSpaceOnUse" style="mask-type:luminance"><path fill="#fff" d="M129.931 0H0v28.661h129.931V0Z"/></mask><g fill="#4D585F" mask="url(#g)"><path d="M34.587 5.9h4.06v15.925h9.622v3.49H34.587V5.902Zm28.181 6.877c1.212 1.52 1.819 3.315 1.819 5.387 0 2.108-.607 3.912-1.819 5.414-1.213 1.493-3.054 2.24-5.523 2.24s-4.31-.747-5.523-2.24c-1.212-1.502-1.819-3.306-1.819-5.414 0-2.072.607-3.868 1.82-5.387 1.212-1.519 3.053-2.278 5.522-2.278 2.47 0 4.31.759 5.523 2.278Zm-5.536.896c-1.098 0-1.946.39-2.544 1.172-.589.773-.883 1.88-.883 3.32s.294 2.55.883 3.332c.598.781 1.446 1.172 2.544 1.172s1.942-.39 2.53-1.172c.59-.782.884-1.893.884-3.333 0-1.44-.295-2.546-.883-3.319-.589-.781-1.433-1.172-2.531-1.172Zm16.818.065c-1.273 0-2.147.54-2.622 1.62-.246.57-.37 1.3-.37 2.186v7.772h-3.743V10.985h3.625v2.094c.484-.737.94-1.269 1.371-1.593.773-.58 1.753-.87 2.94-.87 1.484 0 2.697.39 3.637 1.173.95.772 1.424 2.059 1.424 3.859v9.668h-3.849v-8.733c0-.755-.101-1.335-.303-1.739-.37-.737-1.072-1.106-2.11-1.106Zm22.817-7.811v19.388h-3.65v-1.989c-.537.852-1.148 1.471-1.833 1.858-.686.386-1.538.58-2.557.58-1.678 0-3.093-.677-4.244-2.03-1.143-1.36-1.714-3.103-1.714-5.228 0-2.45.563-4.378 1.687-5.783 1.134-1.405 2.645-2.107 4.535-2.107.87 0 1.643.193 2.32.58a4.506 4.506 0 0 1 1.647 1.58v-6.85h3.81ZM86.744 18.229c0 1.326.264 2.384.791 3.174.519.8 1.31 1.2 2.373 1.2 1.063 0 1.871-.396 2.425-1.186.554-.79.83-1.814.83-3.07 0-1.756-.443-3.011-1.33-3.766a2.866 2.866 0 0 0-1.899-.685c-1.098 0-1.907.417-2.425 1.25-.51.826-.765 1.854-.765 3.083Zm25.532-5.452c1.213 1.52 1.819 3.315 1.819 5.387 0 2.108-.606 3.912-1.819 5.414-1.213 1.493-3.054 2.24-5.523 2.24-2.47 0-4.31-.747-5.523-2.24-1.213-1.502-1.819-3.306-1.819-5.414 0-2.072.606-3.868 1.819-5.387 1.213-1.519 3.053-2.278 5.523-2.278 2.469 0 4.31.759 5.523 2.278Zm-5.536.896c-1.099 0-1.947.39-2.545 1.172-.588.773-.882 1.88-.882 3.32s.294 2.55.882 3.332c.598.781 1.446 1.172 2.545 1.172 1.098 0 1.942-.39 2.53-1.172.589-.782.884-1.893.884-3.333 0-1.44-.295-2.546-.884-3.319-.588-.781-1.432-1.172-2.53-1.172Zm16.819.065c-1.275 0-2.149.54-2.624 1.62-.246.57-.368 1.3-.368 2.186v7.772h-3.744V10.985h3.625v2.094c.483-.737.94-1.269 1.371-1.593.773-.58 1.753-.87 2.939-.87 1.486 0 2.698.39 3.638 1.173.949.772 1.423 2.059 1.423 3.859v9.668h-3.849v-8.733c0-.755-.1-1.335-.303-1.739-.368-.737-1.071-1.106-2.108-1.106ZM11.255 0h11.254L11.255 16.84H0L11.255 0Zm8.555 20.232H0l5.9 8.43h20.232l-6.322-8.43Z"/></g></g></g></g></g></g></g><defs><clipPath id="a"><path fill="#fff" d="M0 0h130v29H0z"/></clipPath></defs></svg>