<svg xmlns="http://www.w3.org/2000/svg" width="130" height="29" fill="none"><g clip-path="url(#a)"><mask id="b" width="130" height="29" x="0" y="0" maskUnits="userSpaceOnUse" style="mask-type:luminance"><path fill="#fff" d="M130 0H0v29h130V0Z"/></mask><g mask="url(#b)"><mask id="c" width="130" height="29" x="0" y="0" maskUnits="userSpaceOnUse" style="mask-type:luminance"><path fill="#fff" d="M130 0H0v29h130V0Z"/></mask><g mask="url(#c)"><mask id="d" width="130" height="29" x="0" y="0" maskUnits="userSpaceOnUse" style="mask-type:luminance"><path fill="#fff" d="M130 0H0v28.364h130V0Z"/></mask><g mask="url(#d)"><mask id="e" width="130" height="29" x="0" y="0" maskUnits="userSpaceOnUse" style="mask-type:luminance"><path fill="#fff" d="M130 0H0v28.364h130V0Z"/></mask><g fill="#4D585F" mask="url(#e)"><path d="M0 .094h1.893l20.487 28.25h-3.522L2.84 6.191v22.153H0V.094ZM32.594.075c1.972 0 3.818.367 5.536 1.098a14.132 14.132 0 0 1 4.494 3.01 14.098 14.098 0 0 1 3.014 4.488c.733 1.717 1.1 3.56 1.1 5.53 0 1.968-.37 3.811-1.112 5.528a14.264 14.264 0 0 1-3.03 4.487 14.403 14.403 0 0 1-4.491 3.03c-1.718.745-3.56 1.117-5.53 1.117v-2.84c1.54 0 2.998-.296 4.374-.888a11.672 11.672 0 0 0 3.617-2.42 11.262 11.262 0 0 0 2.442-3.591c.593-1.374.89-2.842.89-4.405 0-1.587-.297-3.068-.89-4.442a11.263 11.263 0 0 0-6.059-5.992 11.15 11.15 0 0 0-4.373-.87c-1.59 0-3.08.29-4.469.871a11.349 11.349 0 0 0-3.635 2.405 11.273 11.273 0 0 0-2.443 3.597c-.593 1.377-.89 2.86-.89 4.45h-2.726c0-1.97.373-3.812 1.118-5.529a14.406 14.406 0 0 1 3.034-4.491 14.294 14.294 0 0 1 4.493-3.03C28.777.446 30.623.075 32.594.075ZM49.427.038h1.893l20.487 28.25h-3.522L52.267 6.135v22.153h-2.84V.038Zm25.106.037h2.083l12.08 14.807L100.587.075h3.559L89.719 18.063h-1.78L77.374 5.528v22.835h-2.84V.075ZM129.405 0h-22.683v2.84h22.683V0Zm.037 15.11h-19.88v10.413h19.88v2.84h-22.72V12.27h22.72v2.84Z"/></g></g></g></g></g><defs><clipPath id="a"><path fill="#fff" d="M0 0h130v29H0z"/></clipPath></defs></svg>