<svg xmlns="http://www.w3.org/2000/svg" width="21" height="20" fill="none"><path fill="#fff" fill-rule="evenodd" d="M9.388 3.725a20.994 20.994 0 0 1-2.754-.268c.053-.137.109-.27.166-.402C7.5 1.46 8.432.365 9.388 0v3.725Zm6.764 5.55a20.622 20.622 0 0 0-.68-4.73c.898-.226 1.758-.51 2.572-.85a10.09 10.09 0 0 1 2.18 5.58h-4.072Zm-.68 6.18c.394-1.452.629-3.065.68-4.73h4.072a10.09 10.09 0 0 1-2.18 5.58 18.143 18.143 0 0 0-2.573-.85Zm-.725 2.077c.099-.224.193-.456.282-.695a17.3 17.3 0 0 1 1.958.605 10.158 10.158 0 0 1-3.371 2.071c.416-.559.798-1.222 1.131-1.98Zm-9.552-.695c.102.271.209.534.322.788.325.72.692 1.353 1.091 1.888a10.145 10.145 0 0 1-3.371-2.07 16.935 16.935 0 0 1 1.958-.606ZM4.07 10.724c.053 1.668.288 3.28.683 4.732-.9.225-1.76.509-2.573.848A10.09 10.09 0 0 1 0 10.724h4.07Zm.683-6.18c-.395 1.453-.63 3.066-.683 4.732H0c.15-2.1.942-4.026 2.18-5.58.813.34 1.674.623 2.573.848Zm.721-2.07c-.098.223-.19.453-.28.689a17.032 17.032 0 0 1-1.957-.606A10.153 10.153 0 0 1 6.61.486c-.42.561-.802 1.227-1.136 1.988Zm9.248-.062A9.975 9.975 0 0 0 13.616.486a10.167 10.167 0 0 1 3.371 2.072c-.625.236-1.281.438-1.958.605a12.283 12.283 0 0 0-.307-.75Zm-3.886 1.313V0c.946.361 1.866 1.432 2.564 3 .066.15.128.302.19.457-.89.147-1.813.237-2.754.268Zm0 5.55V5.174a22.428 22.428 0 0 0 3.217-.326c.376 1.348.598 2.858.652 4.429h-3.87Zm0 5.552v-4.103h3.869c-.054 1.57-.278 3.08-.652 4.429a22.461 22.461 0 0 0-3.217-.326Zm0 1.449c.941.03 1.864.12 2.754.267-.055.138-.11.274-.168.408-.7 1.593-1.63 2.684-2.586 3.049v-3.724Zm-1.448 0V20c-.94-.36-1.853-1.416-2.55-2.968a13.13 13.13 0 0 1-.204-.49 21.17 21.17 0 0 1 2.754-.266Zm0-5.552v4.103c-1.102.033-2.18.143-3.217.326-.376-1.347-.598-2.858-.652-4.429h3.87Zm0-5.55v4.102H5.52c.054-1.57.276-3.08.652-4.429 1.037.183 2.115.293 3.217.326Z" clip-rule="evenodd"/></svg>