<svg xmlns="http://www.w3.org/2000/svg" width="280" height="70" fill="none"><rect width="279.067" height="68.817" x=".467" y=".467" fill="#fff" stroke="#DDE5ED" stroke-width=".933" rx="8.867"/><rect width="279.067" height="68.817" x=".467" y=".467" fill="#fff" stroke="#DDE5ED" stroke-width=".933" rx="8.867"/><rect width="46.667" height="46.667" x="9.746" y="11.355" fill="url(#a)" rx="9.333"/><g filter="url(#b)"><path fill="url(#c)" d="M32.926 34.245c1.606 0 2.996-.576 4.132-1.712 1.136-1.136 1.712-2.526 1.712-4.131 0-1.605-.576-2.995-1.712-4.132-1.136-1.136-2.526-1.711-4.132-1.711-1.605 0-2.995.575-4.131 1.711-1.136 1.136-1.712 2.526-1.712 4.132 0 1.605.576 2.995 1.712 4.131 1.136 1.136 2.526 1.712 4.131 1.712Z"/><path fill="url(#d)" d="M43.15 41.214a14.426 14.426 0 0 0-.196-1.533 12.075 12.075 0 0 0-.377-1.541 7.607 7.607 0 0 0-.633-1.438 5.421 5.421 0 0 0-.956-1.245 4.213 4.213 0 0 0-1.372-.862 4.743 4.743 0 0 0-1.752-.317c-.248 0-.487.101-.95.402-.285.186-.618.4-.99.638-.317.203-.748.392-1.28.564a5.083 5.083 0 0 1-1.565.253c-.52 0-1.047-.085-1.566-.253-.531-.171-.962-.361-1.28-.564a132.3 132.3 0 0 1-.99-.638c-.461-.301-.701-.403-.949-.403-.63 0-1.22.107-1.752.318a4.209 4.209 0 0 0-1.372.862c-.36.345-.682.764-.956 1.245a7.631 7.631 0 0 0-.633 1.438c-.152.474-.279.992-.377 1.54a14.35 14.35 0 0 0-.197 1.534c-.032.465-.048.946-.048 1.433 0 1.267.403 2.292 1.196 3.048.784.746 1.822 1.124 3.084 1.124H38.92c1.262 0 2.3-.378 3.083-1.124.794-.756 1.197-1.781 1.197-3.048 0-.489-.017-.971-.05-1.433Z"/></g><path fill="#4D585F" d="M67.566 26.691v-9.506h3.522c1.016 0 1.822.266 2.418.797.595.532.893 1.253.893 2.163 0 .609-.138 1.136-.415 1.583a2.75 2.75 0 0 1-1.167 1.027c-.502.238-1.093.357-1.774.357h-2.06v3.58h-1.417Zm1.416-4.804h2.036c.612 0 1.095-.155 1.448-.466.357-.314.536-.74.536-1.276s-.179-.957-.536-1.263c-.353-.31-.836-.466-1.448-.466h-2.036v3.471Zm9.08 4.957c-.643 0-1.206-.148-1.691-.446a3.072 3.072 0 0 1-1.136-1.238c-.268-.527-.402-1.136-.402-1.825 0-.697.134-1.31.402-1.837.272-.532.65-.947 1.136-1.244.485-.302 1.048-.453 1.69-.453.643 0 1.204.15 1.685.453a3.02 3.02 0 0 1 1.13 1.244c.271.527.407 1.14.407 1.837 0 .69-.136 1.298-.408 1.825-.268.528-.644.94-1.13 1.238-.48.298-1.041.447-1.684.447Zm0-1.16c.578 0 1.033-.213 1.365-.639.331-.425.497-.995.497-1.71 0-.723-.168-1.299-.504-1.729-.331-.43-.784-.644-1.359-.644-.574 0-1.029.215-1.365.644-.332.426-.498 1.002-.498 1.73 0 .718.166 1.29.498 1.716.332.42.787.631 1.365.631Zm4.415 1.007v-6.737h1.288v1.09h.026c.123-.37.317-.656.58-.86.268-.209.617-.313 1.047-.313.102 0 .195.004.28.013l.211.019v1.257a2.161 2.161 0 0 0-.274-.038 3.407 3.407 0 0 0-.434-.026c-.379 0-.704.132-.976.395-.268.264-.402.67-.402 1.22v3.98h-1.346Zm7.917-6.737v1.11H89.03v3.847c0 .251.051.426.153.523.102.098.287.147.555.147h.657v1.11h-.848c-1.247 0-1.87-.535-1.87-1.607v-4.02H86.49v-1.11h1.186v-1.838h1.353v1.838h1.365Zm4.077 0v1.11H93.1v5.627h-1.347v-5.627h-1.206v-1.11h1.206v-1.091c0-.532.166-.944.498-1.238.336-.293.808-.44 1.416-.44h.804v1.11h-.593c-.285 0-.487.06-.606.179-.115.119-.172.32-.172.606v.874h1.371Zm3.79 6.89c-.642 0-1.206-.148-1.69-.446a3.073 3.073 0 0 1-1.136-1.238c-.268-.527-.402-1.136-.402-1.825 0-.697.134-1.31.402-1.837.272-.532.65-.947 1.135-1.244.485-.302 1.049-.453 1.691-.453.642 0 1.204.15 1.684.453.485.297.862.712 1.13 1.244.272.527.408 1.14.408 1.837 0 .69-.136 1.298-.408 1.825-.268.528-.645.94-1.13 1.238-.48.298-1.042.447-1.684.447Zm0-1.16c.579 0 1.034-.213 1.365-.639.332-.425.498-.995.498-1.71 0-.723-.168-1.299-.504-1.729-.332-.43-.785-.644-1.359-.644s-1.03.215-1.365.644c-.332.426-.498 1.002-.498 1.73 0 .718.166 1.29.498 1.716.332.42.787.631 1.365.631Zm5.761-8.5v9.507h-1.346v-9.506h1.346Zm1.525 9.507v-6.737h1.347v6.737h-1.347Zm.67-7.898a.848.848 0 0 1-.606-.236.798.798 0 0 1-.242-.587c0-.234.08-.43.242-.587a.836.836 0 0 1 .606-.243c.238 0 .44.081.606.243a.776.776 0 0 1 .249.587.79.79 0 0 1-.249.587.848.848 0 0 1-.606.236Zm5.098 8.052c-.642 0-1.206-.15-1.691-.447a3.069 3.069 0 0 1-1.135-1.238c-.268-.527-.402-1.136-.402-1.825 0-.697.134-1.31.402-1.837.272-.532.65-.947 1.135-1.244.485-.302 1.049-.453 1.691-.453.642 0 1.204.15 1.684.453a3.02 3.02 0 0 1 1.13 1.244c.272.527.408 1.14.408 1.837 0 .69-.136 1.298-.408 1.825a3.03 3.03 0 0 1-1.13 1.238c-.48.298-1.042.447-1.684.447Zm0-1.162c.579 0 1.034-.212 1.365-.638.332-.425.498-.995.498-1.71 0-.723-.168-1.299-.504-1.729-.332-.43-.785-.644-1.359-.644s-1.029.215-1.365.644c-.332.426-.498 1.002-.498 1.73 0 .718.166 1.29.498 1.716.331.42.787.631 1.365.631Zm9.583 1.117c-.672 0-1.229-.17-1.672-.51-.442-.345-.663-.853-.663-1.525 0-.51.125-.902.376-1.174.256-.277.585-.475.989-.594a8.11 8.11 0 0 1 1.295-.261c.422-.051.755-.094 1.002-.128s.421-.085.523-.153c.107-.068.16-.185.16-.351v-.057a1.02 1.02 0 0 0-.357-.804c-.239-.213-.573-.32-1.002-.32-.43 0-.781.105-1.053.313-.272.204-.421.462-.446.772h-1.321c.03-.642.3-1.167.81-1.576.511-.408 1.187-.612 2.029-.612.829 0 1.482.204 1.959.612.476.409.714.955.714 1.64v4.62h-1.327v-.958h-.025c-.141.273-.364.52-.67.74-.302.217-.742.326-1.321.326Zm.274-1.085c.596 0 1.034-.153 1.315-.46a1.55 1.55 0 0 0 .427-1.084v-.79c-.089.071-.291.137-.606.197a32.38 32.38 0 0 1-1.008.16c-.37.055-.695.159-.976.312s-.421.4-.421.74c0 .29.113.517.338.683.23.161.54.242.931.242Zm5.934-8.53v9.506h-1.346v-9.506h1.346Zm2.871 0v9.506h-1.346v-9.506h1.346Zm4.422 9.66c-.643 0-1.206-.15-1.691-.447a3.071 3.071 0 0 1-1.136-1.238c-.268-.527-.402-1.136-.402-1.825 0-.697.134-1.31.402-1.837a3.061 3.061 0 0 1 1.136-1.244c.485-.302 1.048-.453 1.691-.453.642 0 1.203.15 1.684.453.485.297.861.712 1.129 1.244.273.527.409 1.14.409 1.837 0 .69-.136 1.298-.409 1.825-.268.528-.644.94-1.129 1.238-.481.298-1.042.447-1.684.447Zm0-1.162c.578 0 1.033-.212 1.365-.638.332-.425.498-.995.498-1.71 0-.723-.168-1.299-.504-1.729-.332-.43-.785-.644-1.359-.644-.575 0-1.03.215-1.366.644-.332.426-.497 1.002-.497 1.73 0 .718.165 1.29.497 1.716.332.42.787.631 1.366.631Zm7.299 1.162c-.643 0-1.206-.15-1.691-.447a3.041 3.041 0 0 1-1.123-1.238c-.268-.532-.402-1.14-.402-1.825 0-.693.134-1.305.402-1.837a3.08 3.08 0 0 1 1.129-1.244c.481-.302 1.042-.453 1.685-.453.536 0 1.014.106 1.435.319.425.208.77.497 1.034.867.263.37.423.794.478 1.27h-1.34a1.584 1.584 0 0 0-.51-.931c-.272-.243-.636-.364-1.091-.364-.583 0-1.038.215-1.365.644-.328.43-.492 1.006-.492 1.73 0 .714.164 1.284.492 1.71.327.425.782.637 1.365.637.464 0 .821-.117 1.072-.35.251-.239.421-.556.51-.951h1.359a2.654 2.654 0 0 1-.472 1.263 2.82 2.82 0 0 1-1.033.88 3.182 3.182 0 0 1-1.442.32Zm6.227-.045c-.672 0-1.23-.17-1.672-.51-.442-.345-.663-.853-.663-1.525 0-.51.125-.902.376-1.174.255-.277.585-.475.989-.594.408-.119.84-.206 1.295-.261a66.64 66.64 0 0 0 1.002-.128c.246-.034.421-.085.523-.153.106-.068.159-.185.159-.351v-.057a1.02 1.02 0 0 0-.357-.804c-.238-.213-.572-.32-1.002-.32-.429 0-.78.105-1.052.313-.273.204-.421.462-.447.772h-1.321c.03-.642.3-1.167.811-1.576.51-.408 1.186-.612 2.029-.612.829 0 1.482.204 1.958.612.477.409.715.955.715 1.64v4.62h-1.327v-.958h-.026c-.14.273-.363.52-.67.74-.302.217-.742.326-1.32.326Zm.274-1.085c.595 0 1.034-.153 1.314-.46.285-.31.428-.671.428-1.084v-.79c-.09.071-.292.137-.606.197a32.38 32.38 0 0 1-1.008.16 2.93 2.93 0 0 0-.977.312c-.28.153-.421.4-.421.74a.8.8 0 0 0 .339.683c.229.161.54.242.931.242Zm7.835-5.761v1.11h-1.365v3.847c0 .251.051.426.153.523.102.098.287.147.555.147h.657v1.11h-.849c-1.246 0-1.869-.535-1.869-1.607v-4.02h-1.187v-1.11h1.187v-1.838h1.353v1.838h1.365Zm1.065 6.737v-6.737h1.347v6.737h-1.347Zm.67-7.898a.848.848 0 0 1-.606-.236.801.801 0 0 1-.242-.587c0-.234.081-.43.242-.587a.836.836 0 0 1 .606-.243c.239 0 .441.081.606.243a.776.776 0 0 1 .249.587.79.79 0 0 1-.249.587.845.845 0 0 1-.606.236Zm5.098 8.052c-.642 0-1.206-.15-1.691-.447a3.069 3.069 0 0 1-1.135-1.238c-.268-.527-.402-1.136-.402-1.825 0-.697.134-1.31.402-1.837.272-.532.65-.947 1.135-1.244.485-.302 1.049-.453 1.691-.453.642 0 1.204.15 1.684.453a3.02 3.02 0 0 1 1.13 1.244c.272.527.408 1.14.408 1.837 0 .69-.136 1.298-.408 1.825a3.03 3.03 0 0 1-1.13 1.238c-.48.298-1.042.447-1.684.447Zm0-1.162c.579 0 1.034-.212 1.365-.638.332-.425.498-.995.498-1.71 0-.723-.168-1.299-.504-1.729-.332-.43-.785-.644-1.359-.644s-1.029.215-1.365.644c-.332.426-.498 1.002-.498 1.73 0 .718.166 1.29.498 1.716.332.42.787.631 1.365.631Zm5.761-2.87v3.878h-1.346v-6.737h1.321v1.014c.459-.765 1.138-1.148 2.035-1.148.464 0 .879.102 1.244.306.37.2.662.498.874.893.213.396.319.887.319 1.474v4.198h-1.346V22.66c0-.54-.13-.946-.389-1.218-.259-.277-.621-.415-1.085-.415-.459 0-.846.142-1.161.427-.31.281-.466.734-.466 1.36Zm11.134 3.987c-.672 0-1.229-.17-1.672-.51-.442-.345-.663-.853-.663-1.525 0-.51.125-.902.376-1.174.255-.277.585-.475.989-.594.408-.119.84-.206 1.295-.261a66.64 66.64 0 0 0 1.002-.128c.247-.034.421-.085.523-.153.107-.068.16-.185.16-.351v-.057c0-.328-.119-.596-.358-.804-.238-.213-.572-.32-1.001-.32-.43 0-.781.105-1.053.313-.272.204-.421.462-.447.772h-1.32c.029-.642.3-1.167.81-1.576.51-.408 1.187-.612 2.029-.612.829 0 1.482.204 1.959.612.476.409.714.955.714 1.64v4.62h-1.327v-.958h-.025c-.141.273-.364.52-.67.74-.302.217-.743.326-1.321.326Zm.274-1.085c.596 0 1.034-.153 1.315-.46a1.55 1.55 0 0 0 .427-1.084v-.79c-.089.071-.291.137-.606.197a32.38 32.38 0 0 1-1.008.16c-.37.055-.696.159-.976.312-.281.153-.421.4-.421.74a.8.8 0 0 0 .338.683c.229.161.54.242.931.242Zm5.934-8.53v9.506h-1.346v-9.506h1.346Zm4.402 9.66c-.668 0-1.242-.151-1.722-.453a3.008 3.008 0 0 1-1.104-1.245c-.255-.531-.383-1.135-.383-1.812 0-.684.134-1.293.402-1.824a3.111 3.111 0 0 1 1.11-1.25c.472-.307 1.015-.46 1.627-.46.638 0 1.191.149 1.659.446a2.98 2.98 0 0 1 1.097 1.244c.26.528.389 1.138.389 1.832v.363h-4.957c.026.609.2 1.1.523 1.474.328.375.787.562 1.378.562.443 0 .806-.1 1.091-.3.285-.2.475-.46.568-.779h1.295a2.43 2.43 0 0 1-.542 1.149 2.835 2.835 0 0 1-1.046.778 3.412 3.412 0 0 1-1.385.274Zm-1.869-4.18h3.63c-.055-.535-.244-.959-.568-1.27-.323-.314-.74-.471-1.25-.471-.511 0-.927.157-1.251.472-.319.31-.506.734-.561 1.27Zm6.112 4.026v-6.737h1.289v1.09h.025c.124-.37.317-.656.581-.86.268-.209.617-.313 1.046-.313.102 0 .196.004.281.013.085.008.155.015.211.019v1.257a2.175 2.175 0 0 0-.275-.038 3.403 3.403 0 0 0-.434-.026c-.378 0-.704.132-.976.395-.268.264-.402.67-.402 1.22v3.98h-1.346Zm7.918-6.737v1.11h-1.366v3.847c0 .251.052.426.154.523.102.098.287.147.555.147h.657v1.11h-.849c-1.246 0-1.869-.535-1.869-1.607v-4.02h-1.187v-1.11h1.187v-1.838h1.352v1.838h1.366Z"/><path fill="#1D1D1D" d="M69.635 39.07v12.223h-1.821V39.07h1.821Zm3.823 7.236v4.987h-1.731V42.63h1.698v1.305c.59-.985 1.463-1.477 2.617-1.477.596 0 1.129.132 1.6.394.475.257.85.64 1.123 1.148.273.509.41 1.14.41 1.895v5.398h-1.73v-5.184c0-.695-.167-1.217-.501-1.567-.334-.356-.799-.533-1.395-.533-.59 0-1.088.183-1.493.55-.399.36-.598.943-.598 1.747Zm11.377 5.184c-.825 0-1.55-.192-2.173-.574a3.913 3.913 0 0 1-1.444-1.592c-.345-.683-.517-1.465-.517-2.346 0-.891.172-1.679.517-2.362a3.958 3.958 0 0 1 1.452-1.6c.618-.388 1.34-.582 2.165-.582.69 0 1.305.136 1.846.41.547.268.99.64 1.329 1.115a3.45 3.45 0 0 1 .615 1.633h-1.722a2.037 2.037 0 0 0-.657-1.198c-.35-.312-.817-.467-1.402-.467-.75 0-1.335.276-1.756.828-.421.552-.632 1.293-.632 2.223 0 .919.211 1.652.632 2.199.421.546 1.006.82 1.756.82.596 0 1.055-.15 1.378-.451.322-.306.541-.714.656-1.223h1.747a3.417 3.417 0 0 1-.607 1.625 3.629 3.629 0 0 1-1.329 1.132c-.547.273-1.165.41-1.854.41Zm5.267-.197V42.63h1.657v1.403h.033c.158-.476.407-.845.746-1.107.345-.268.793-.402 1.345-.402.132 0 .252.005.361.016.11.011.2.02.271.025v1.616a2.804 2.804 0 0 0-.353-.05 4.39 4.39 0 0 0-.558-.032c-.486 0-.905.17-1.255.508-.344.34-.516.862-.516 1.567v5.119h-1.731Zm9.277.197c-.858 0-1.596-.194-2.214-.583a3.876 3.876 0 0 1-1.42-1.6c-.328-.683-.492-1.46-.492-2.329 0-.88.173-1.662.517-2.346a4 4 0 0 1 1.428-1.608c.607-.394 1.304-.59 2.091-.59.821 0 1.532.191 2.133.574a3.831 3.831 0 0 1 1.411 1.6c.334.678.5 1.462.5 2.354v.467H96.96c.032.782.257 1.414.672 1.895.421.482 1.012.722 1.772.722.569 0 1.036-.128 1.403-.386.366-.256.61-.59.73-1h1.665a3.135 3.135 0 0 1-.697 1.476c-.356.427-.804.76-1.345 1.001a4.385 4.385 0 0 1-1.78.353Zm-2.403-5.373h4.668c-.072-.69-.315-1.233-.731-1.633-.415-.404-.951-.607-1.607-.607-.657 0-1.192.203-1.608.607-.41.4-.65.944-.722 1.633Zm10.598 5.315c-.864 0-1.58-.218-2.149-.656-.569-.443-.853-1.096-.853-1.96 0-.657.161-1.16.484-1.51.328-.355.752-.61 1.272-.763.525-.153 1.08-.265 1.665-.336.541-.066.97-.12 1.288-.164.317-.044.541-.11.672-.197.137-.087.205-.238.205-.451v-.074a1.31 1.31 0 0 0-.459-1.033c-.306-.274-.736-.41-1.288-.41s-1.003.133-1.353.401c-.35.263-.542.594-.575.993h-1.698c.039-.826.386-1.501 1.042-2.026.656-.525 1.526-.788 2.609-.788 1.066 0 1.906.263 2.518.788.613.525.919 1.227.919 2.108v5.939h-1.706v-1.23h-.033c-.181.35-.468.667-.862.951-.388.279-.954.418-1.698.418Zm.353-1.394c.766 0 1.329-.197 1.69-.59a2 2 0 0 0 .55-1.395v-1.017c-.115.093-.375.177-.78.254-.404.07-.836.14-1.296.205a3.76 3.76 0 0 0-1.255.402c-.361.197-.541.514-.541.951 0 .372.145.665.434.878.296.208.695.312 1.198.312Zm9.106 1.46c-.662 0-1.258-.107-1.789-.32a3.036 3.036 0 0 1-1.288-.951c-.322-.421-.503-.944-.541-1.567h1.706c.099.973.725 1.46 1.879 1.46.547 0 .979-.112 1.296-.336.323-.225.484-.509.484-.853a.841.841 0 0 0-.345-.706c-.229-.18-.53-.312-.902-.394l-1.436-.32c-1.657-.36-2.485-1.186-2.485-2.477 0-.766.303-1.39.91-1.87.613-.482 1.414-.722 2.404-.722.979 0 1.783.254 2.412.763.634.503.962 1.192.984 2.067h-1.657a1.348 1.348 0 0 0-.476-1.042c-.311-.279-.724-.418-1.238-.418-.493 0-.884.115-1.173.344-.29.23-.435.512-.435.845a.88.88 0 0 0 .328.714c.224.18.53.314.919.402l1.476.328c.842.186 1.463.473 1.862.861.4.389.599.897.599 1.526 0 .552-.153 1.028-.459 1.427-.301.394-.714.7-1.239.92-.525.212-1.124.319-1.796.319Zm8.728-.008c-.859 0-1.597-.194-2.215-.583a3.868 3.868 0 0 1-1.419-1.6c-.328-.683-.492-1.46-.492-2.329 0-.88.172-1.662.516-2.346a4.005 4.005 0 0 1 1.428-1.608c.607-.394 1.304-.59 2.092-.59.82 0 1.531.191 2.132.574a3.824 3.824 0 0 1 1.411 1.6c.334.678.501 1.462.501 2.354v.467h-6.374c.033.782.257 1.414.672 1.895.422.482 1.012.722 1.772.722.569 0 1.037-.128 1.403-.386.366-.256.61-.59.73-1h1.665a3.135 3.135 0 0 1-.697 1.476c-.355.427-.804.76-1.345 1.001a4.381 4.381 0 0 1-1.78.353Zm-2.404-5.373h4.668c-.071-.69-.315-1.233-.73-1.633-.416-.404-.952-.607-1.608-.607-.656 0-1.192.203-1.608.607-.41.4-.651.944-.722 1.633Zm11.189 5.348c-.754 0-1.413-.188-1.977-.566-.563-.383-1-.91-1.312-1.583-.312-.678-.468-1.463-.468-2.354 0-.892.156-1.674.468-2.346.317-.678.757-1.206 1.321-1.584.563-.382 1.216-.574 1.96-.574a3.37 3.37 0 0 1 1.542.353 2.67 2.67 0 0 1 1.116 1.075h.016V39.07h1.731v12.223h-1.698v-1.32h-.016c-.29.502-.67.877-1.141 1.123a3.24 3.24 0 0 1-1.542.37Zm.353-1.493c.738 0 1.326-.273 1.764-.82.443-.552.664-1.282.664-2.19 0-.914-.221-1.644-.664-2.19-.438-.553-1.026-.829-1.764-.829-.7 0-1.269.26-1.706.78-.432.513-.648 1.26-.648 2.239 0 .979.216 1.725.648 2.24.437.513 1.006.77 1.706.77Zm14.175-7.342v1.428h-1.755v4.946c0 .323.065.547.196.673.132.126.37.189.714.189h.845v1.427h-1.091c-1.602 0-2.404-.69-2.404-2.067v-5.168h-1.525V42.63h1.525v-2.362h1.74v2.362h1.755Zm4.947 8.86c-.826 0-1.551-.192-2.174-.574a3.947 3.947 0 0 1-1.46-1.592c-.345-.678-.517-1.46-.517-2.346 0-.897.172-1.684.517-2.362a3.934 3.934 0 0 1 1.46-1.6c.623-.388 1.348-.582 2.174-.582.825 0 1.547.194 2.165.582a3.875 3.875 0 0 1 1.452 1.6c.35.678.525 1.465.525 2.362 0 .886-.175 1.668-.525 2.346a3.887 3.887 0 0 1-1.452 1.592c-.618.382-1.34.574-2.165.574Zm0-1.493c.743 0 1.328-.274 1.755-.82.427-.547.64-1.28.64-2.199 0-.93-.216-1.67-.648-2.223-.427-.552-1.009-.828-1.747-.828-.739 0-1.324.276-1.756.828-.427.547-.64 1.288-.64 2.223 0 .924.213 1.66.64 2.207.427.541 1.012.812 1.756.812Zm9.146-1.55v-1.46l5.693-7.917h2.231v7.85h1.78v1.526h-1.78v2.847h-1.731v-2.846h-6.193Zm6.193-1.526v-5.94h-.016l-4.249 5.923v.017h4.265Zm4.643 4.372v-1.444l4.397-3.92c.465-.422.853-.8 1.165-1.133a4 4 0 0 0 .697-1c.159-.329.238-.698.238-1.108 0-.695-.208-1.244-.623-1.649-.416-.41-.982-.615-1.698-.615-.777 0-1.381.24-1.813.722-.432.481-.648 1.135-.648 1.96h-1.698c0-.837.169-1.572.508-2.206a3.738 3.738 0 0 1 1.444-1.485c.624-.361 1.356-.542 2.199-.542.787 0 1.484.159 2.091.476.607.312 1.083.75 1.428 1.313.35.557.525 1.206.525 1.944 0 .815-.225 1.55-.673 2.206-.448.651-1.113 1.37-1.993 2.158l-3.068 2.756v.017h5.799v1.55h-8.277Zm19.967.197c-.531 0-.993-.123-1.387-.37a2.578 2.578 0 0 1-.927-1.017 3.233 3.233 0 0 1-.328-1.476v-.246c0-.553.11-1.045.328-1.477.225-.432.534-.77.927-1.017.394-.246.856-.369 1.387-.369.525 0 .984.123 1.378.37.394.245.7.584.919 1.016.224.432.336.924.336 1.477v.246c0 .552-.112 1.044-.336 1.476a2.509 2.509 0 0 1-.919 1.018c-.394.246-.853.369-1.378.369Zm-7.293-6.645c-.525 0-.987-.123-1.386-.369a2.509 2.509 0 0 1-.919-1.017c-.219-.432-.328-.924-.328-1.477v-.246c0-.552.109-1.044.328-1.476.219-.432.525-.771.919-1.017.399-.247.861-.37 1.386-.37.531 0 .993.123 1.386.37.394.246.7.585.919 1.017.219.432.328.924.328 1.476v.246c0 .553-.109 1.045-.328 1.477a2.509 2.509 0 0 1-.919 1.017c-.393.246-.855.37-1.386.37Zm-1.353 6.448 8.4-12.223h1.55l-8.4 12.223h-1.55Zm8.646-1.017c.372 0 .667-.142.886-.427.218-.29.328-.697.328-1.222v-.246c0-.525-.11-.933-.328-1.222a1.052 1.052 0 0 0-.886-.435c-.378 0-.678.145-.903.435-.218.29-.328.697-.328 1.222v.246c0 .525.11.932.328 1.222.225.285.525.427.903.427Zm-7.293-6.637c.377 0 .676-.145.894-.434.219-.29.328-.698.328-1.223v-.246c0-.525-.109-.932-.328-1.222a1.06 1.06 0 0 0-.894-.435c-.372 0-.67.145-.894.435-.219.29-.328.697-.328 1.222v.246c0 .525.109.933.328 1.223.224.29.522.434.894.434Z"/><defs><linearGradient id="a" x1="14.428" x2="57.97" y1="14.639" y2="20.923" gradientUnits="userSpaceOnUse"><stop stop-color="#3B1010"/><stop offset="1" stop-color="#A61414"/></linearGradient><linearGradient id="c" x1="32.926" x2="32.926" y1="22.559" y2="34.245" gradientUnits="userSpaceOnUse"><stop stop-color="#fff"/><stop offset="1" stop-color="#381A1A"/></linearGradient><linearGradient id="d" x1="33.08" x2="33.08" y1="34.277" y2="46.819" gradientUnits="userSpaceOnUse"><stop stop-color="#fff"/><stop offset="1" stop-color="#381A1A"/></linearGradient><filter id="b" width="24.285" height="28.305" x="20.937" y="22.559" color-interpolation-filters="sRGB" filterUnits="userSpaceOnUse"><feFlood flood-opacity="0" result="BackgroundImageFix"/><feColorMatrix in="SourceAlpha" result="hardAlpha" values="0 0 0 0 0 0 0 0 0 0 0 0 0 0 0 0 0 0 127 0"/><feOffset dy="2.022"/><feGaussianBlur stdDeviation="1.011"/><feComposite in2="hardAlpha" operator="out"/><feColorMatrix values="0 0 0 0 0 0 0 0 0 0 0 0 0 0 0 0 0 0 0.5 0"/><feBlend in2="BackgroundImageFix" result="effect1_dropShadow_1126_425"/><feBlend in="SourceGraphic" in2="effect1_dropShadow_1126_425" result="shape"/></filter></defs></svg>