<svg xmlns="http://www.w3.org/2000/svg" width="17" height="18" fill="none"><path fill="#0DB561" d="M15.247 2.333A14.714 14.714 0 0 1 9.066.219a1.485 1.485 0 0 0-1.551 0 14.712 14.712 0 0 1-6.181 2.114A1.485 1.485 0 0 0 0 3.811V8.23a9.146 9.146 0 0 0 4.701 7.99l2.866 1.592a1.479 1.479 0 0 0 1.446 0l2.866-1.592a9.145 9.145 0 0 0 4.701-7.99V3.81a1.485 1.485 0 0 0-1.333-1.478Z"/><path fill="#fff" d="M7.695 11.73c-.25 0-.491-.092-.678-.258L4.594 9.318A1.02 1.02 0 1 1 5.95 7.793l1.68 1.494 3.36-3.584A1.021 1.021 0 0 1 12.478 7.1L8.44 11.408a1.013 1.013 0 0 1-.745.322Z"/><path fill="#1A352B" d="M8.29 18c-.253 0-.502-.065-.723-.189L4.7 16.22A9.147 9.147 0 0 1 0 8.23V3.812a1.485 1.485 0 0 1 1.334-1.479A14.712 14.712 0 0 0 7.513.22a1.49 1.49 0 0 1 1.554 0 14.714 14.714 0 0 0 6.18 2.114 1.485 1.485 0 0 1 1.333 1.479V8.23a9.146 9.146 0 0 1-4.701 7.99l-2.866 1.593c-.221.123-.47.188-.723.188Zm0-16.726a.203.203 0 0 0-.106.03A15.96 15.96 0 0 1 1.468 3.6a.21.21 0 0 0-.193.21v4.42a7.87 7.87 0 0 0 4.046 6.875l2.866 1.592a.21.21 0 0 0 .205 0l2.867-1.592a7.87 7.87 0 0 0 4.046-6.875V3.812a.21.21 0 0 0-.193-.211 15.96 15.96 0 0 1-6.716-2.297.2.2 0 0 0-.106-.03Z"/></svg>